<?xml version="1.0" encoding="UTF-8"?>
<!DOCTYPE svg PUBLIC "-//W3C//DTD SVG 1.1//EN" "http://www.w3.org/Graphics/SVG/1.1/DTD/svg11.dtd">
<!-- Creator: CorelDRAW 2021 (64-Bit) -->
<svg xmlns="http://www.w3.org/2000/svg" xml:space="preserve" width="24.6893mm" height="19.2546mm" version="1.1" style="shape-rendering:geometricPrecision; text-rendering:geometricPrecision; image-rendering:optimizeQuality; fill-rule:evenodd; clip-rule:evenodd"
viewBox="0 0 505.56 394.28"
 xmlns:xlink="http://www.w3.org/1999/xlink"
 xmlns:xodm="http://www.corel.com/coreldraw/odm/2003">
 <defs>
  <style type="text/css">
   <![CDATA[
    .fil37 {fill:#040202}
    .fil3 {fill:#120D13}
    .fil68 {fill:#150E19}
    .fil35 {fill:#151213}
    .fil9 {fill:#1B140E}
    .fil21 {fill:#1B151B}
    .fil30 {fill:#1D1722}
    .fil14 {fill:#1D1A1B}
    .fil5 {fill:#221C1C}
    .fil65 {fill:#231D24}
    .fil10 {fill:#252223}
    .fil19 {fill:#282429}
    .fil20 {fill:#2B252B}
    .fil41 {fill:#322D2D}
    .fil74 {fill:#322D34}
    .fil73 {fill:#332728}
    .fil24 {fill:#342D3A}
    .fil31 {fill:#353233}
    .fil80 {fill:#372B36}
    .fil45 {fill:#37312E}
    .fil63 {fill:#3A3435}
    .fil42 {fill:#3B3443}
    .fil76 {fill:#423C43}
    .fil67 {fill:#433C3C}
    .fil52 {fill:#453838}
    .fil22 {fill:#453D54}
    .fil56 {fill:#46423E}
    .fil55 {fill:#494548}
    .fil27 {fill:#4A3E61}
    .fil71 {fill:#4B444B}
    .fil28 {fill:#4C435C}
    .fil51 {fill:#524C53}
    .fil39 {fill:#544B63}
    .fil79 {fill:#555252}
    .fil85 {fill:#595558}
    .fil26 {fill:#5A4E6C}
    .fil70 {fill:#5A5554}
    .fil72 {fill:#5B545B}
    .fil0 {fill:#615574}
    .fil69 {fill:#625D5D}
    .fil61 {fill:#645B6C}
    .fil8 {fill:#695E7C}
    .fil77 {fill:#6A6565}
    .fil36 {fill:#6C6373}
    .fil84 {fill:#6D6A6B}
    .fil32 {fill:#725C64}
    .fil43 {fill:#75697A}
    .fil34 {fill:#756A84}
    .fil60 {fill:#766A85}
    .fil58 {fill:#7C7384}
    .fil64 {fill:#7D7B7B}
    .fil25 {fill:#82758C}
    .fil53 {fill:#846D74}
    .fil46 {fill:#857894}
    .fil86 {fill:#858383}
    .fil62 {fill:#887B8A}
    .fil83 {fill:#8B8484}
    .fil4 {fill:#8C7274}
    .fil13 {fill:#8C838C}
    .fil47 {fill:#8D8293}
    .fil17 {fill:#937B76}
    .fil7 {fill:#938896}
    .fil81 {fill:#958B93}
    .fil66 {fill:#959392}
    .fil23 {fill:#9A8E9A}
    .fil6 {fill:#9D929B}
    .fil48 {fill:#A4867D}
    .fil33 {fill:#A49CBA}
    .fil49 {fill:#A59AA2}
    .fil2 {fill:#AA9DA4}
    .fil75 {fill:#ADABAA}
    .fil38 {fill:#B1ABC9}
    .fil54 {fill:#B2A5AA}
    .fil16 {fill:#B8ACB2}
    .fil50 {fill:#BDB3B4}
    .fil11 {fill:#C1B5B5}
    .fil78 {fill:#C2B8B7}
    .fil18 {fill:#C4BDC6}
    .fil57 {fill:#C5BBBB}
    .fil12 {fill:#C9BEBD}
    .fil44 {fill:#CBC7D4}
    .fil1 {fill:#CEC2C1}
    .fil29 {fill:#D1CED7}
    .fil59 {fill:#D8D5D9}
    .fil82 {fill:#EDEBEB}
    .fil15 {fill:#F1F1F1}
    .fil40 {fill:#F4F3F3}
   ]]>
  </style>
 </defs>
 <g id="Capa_x0020_1">
  <metadata id="CorelCorpID_0Corel-Layer"/>
  <g id="_2035277044208">
   <path class="fil0" d="M307.25 239.5l11.65 -4.06c-13.14,17.06 -37.74,21.21 -65.01,19.14 -5.95,13.06 1.47,4.72 -12.38,10.23 -10.45,4.16 -45.39,6.08 -61.91,9.25l-3.38 0.53c-13.34,1.16 3.53,-1.74 -7.14,-0.06 -3.03,0.48 2.62,1.77 -10.58,2.85 -3.47,-3.65 -3.98,4.44 -2.17,-6.99 -10.27,6.05 -6.43,6.71 -12.32,18.66l-12.15 15.89c9.25,-5.5 9.91,-1.05 16.64,-3.48 0.66,-0.24 3.56,-1.87 4.41,-2.39l13.9 1.83c1.28,-12.31 -0.27,-12.04 9.63,-19.81 10.15,5.12 16.48,12.11 20.31,25.46 13.4,-0.73 7.45,-3.08 15.62,3.85l5.71 -4.27 -2.32 -1.71 -14.18 -3.14c-6.23,-1.75 0.29,-16.34 1.77,-19.09l12.78 5.32 11.71 3.55c7.82,-13.57 17.97,-10.41 36.96,-13.56 27.61,-4.57 46.2,-24.04 62.68,-37.78 7.13,-5.94 15.27,-17.46 20.32,-30.83 -9.58,6.1 -5.98,4.45 -18.9,5.35l3.03 -16.4 0 -4.62c-2.34,-16.18 0.29,-4.4 -6.33,-8.92l-1.76 -0.03c-1.51,19.2 0.66,17.51 2.69,34.09 -3.84,3.82 -6.09,6.65 -9.61,10.4l-9.66 10.72z"/>
   <path class="fil1" d="M179.13 118.72l-0.88 1.34c12.31,1.97 22.86,-0.87 28.3,7.54 19.2,4.63 15.26,22.79 16.24,43.04l-1.48 1.69 8.95 0.32 6 -10.31 31.64 -4.02 4.4 -6.9 3.71 -9c-4.62,-2.93 -6.8,-3.75 -12.45,-6.88 -7.45,-4.14 -4.33,-1.96 -8.08,-7.29 -9.43,-3.2 -8.37,-4.36 -9.1,-13.4 -1.85,-1.79 -4.96,2.14 -1.83,-8.51 1.85,-6.28 1.43,-3.85 5.91,-7.82 -28.69,-0.69 -51.84,6.62 -71.33,20.21z"/>
   <path class="fil2" d="M136.91 224.69c-12.68,4.2 -12.36,11.93 -20.02,22.66 -2.99,4.18 -5.58,7.22 -8.95,11.78 -7.23,9.79 -6.35,6.37 -7.63,16.05l1.65 10.38c-0.27,-22.77 -1.39,-3.25 5.61,-11.53 4.78,-4.89 10.17,-11.02 12.06,-14.75 18.56,-14.23 45.32,-16.48 52.67,-18.61l8.28 -4.13c20.27,-11.84 33.05,-1.69 41.12,-14.61 -3.77,-9.98 -7.71,-15.21 -6.87,-31.63 -7.04,0 -4.95,-1.62 -5.24,5.91l1.14 15.21 -73.16 19.38c-3.74,-5.25 -2.99,3.21 -0.65,-6.09z"/>
   <path class="fil3" d="M346.57 64.7c2.02,14.77 8.44,19.51 7.77,34.16 7.99,8.53 8.76,32.93 6.06,45.45 -6.11,28.39 -25.27,24.56 -12,30.73l6.76 -4.01 -3.67 22.25 -3.68 15.65c-5.06,13.37 -13.19,24.89 -20.32,30.83 -16.48,13.73 -35.07,33.2 -62.68,37.78 -18.99,3.14 -29.14,-0.01 -36.96,13.56l2.08 2.78c8.01,-12.5 31.93,-8.66 51.29,-11.43 22.11,-3.16 -17.64,5.36 5.31,-0.98l4.57 -2.29 -6.21 -0.54c8.26,-5.25 16.39,-8.96 24.49,-15.19l23.65 -17.65 5.3 -8.16c5.48,-13.58 9.88,-4.77 18.28,-38.1 5.17,-20.51 0.95,-28.37 8.48,-48.05 13.2,-34.48 -12.9,-64.13 -13.62,-94.93 -6.77,-5.82 -1.95,-1.51 -3.93,-0.79l-0.99 8.96z"/>
   <path class="fil4" d="M236.87 73.62c-9.57,4.15 -3.1,-1.6 -9.07,8.26 -0.73,-6.37 -0.84,-2.37 0.02,-7.72l2.45 -4.08c15.81,0.54 3.24,-0.62 6.6,3.54zm-26.09 -44.83c-1.01,22.55 -14.19,45.67 -8.75,70.16l45.26 -8.67 -3.41 -9.3c-3.62,-2.28 -1.92,-0.83 -5.04,-3.89 -0.26,-0.25 -0.89,-0.81 -1.07,-1.68 -0.19,-0.87 -0.59,-1.19 -0.9,-1.78l3.5 -2.98c-5.17,-8.5 -6.77,-17.44 -19.07,-20.64 -3.65,5.84 -2.03,4.78 -4.13,9.52l-5.18 8.64c-0.99,-14.17 0.31,-12.71 5.25,-24.29l13.09 1.21c-0.66,-13.47 -3.69,-7.71 0.53,-16.79 0.26,-0.55 1.48,-0.82 1.71,-2.13 0.24,-1.4 1.22,-1.54 1.92,-2.21l-4.86 -3.33c-0.39,0.12 -1.08,-0.03 -1.23,-0 -0.15,0.03 -1.1,0.03 -1.29,0.09l-2.47 0.91c-1.48,1.11 -2.99,5.33 -3.34,6.24 -10.53,-9.72 -1.55,-6.37 -10.52,0.93z"/>
   <path class="fil5" d="M124.03 224.26c-12.02,-13.6 -21.39,-31.9 -8.31,-49.51 4.63,36.53 2.57,23.02 13.97,42.34l-5.66 7.16zm12.7 -103.13l2.76 3.86c0.38,0.5 0.97,1.36 1.38,1.88l6.42 6.81 -12.65 15.97c-14.92,26.86 3.11,32.04 -1.4,60.17 -17.35,-9.88 -7.05,-22.39 -13.62,-39.91 -6.63,1.87 -4.84,-1.95 -9.31,7.77 -3.11,6.75 -9.28,34.49 3.28,43.43 4.5,3.66 7.44,-5.64 1.42,12.88 5.32,0.32 1.35,0.6 -0.09,3.79l-5.31 7.8 -22.96 -4.22c2.27,2.25 -3.65,0.14 6.84,4.96 5.19,2.39 7.81,2.51 12.13,3.68 -17.38,27.35 -18.28,27.54 -11.76,61.34 6.84,-5.5 2.32,2.31 3.23,-6.17 0.2,-1.87 -0.99,-7.72 -1.22,-10.33 -0.84,-9.41 -1.7,-14.09 4.45,-19.69 1.28,-9.68 0.4,-6.26 7.63,-16.05 3.37,-4.56 5.96,-7.6 8.95,-11.78 7.66,-10.72 7.35,-18.46 20.02,-22.66 1.47,-5.47 -1.61,-0.05 2.19,-6.19 3.33,-5.39 0.89,-1.54 5.44,-5.03l-2.29 -6.07 -7.5 -2.17 -0.17 -20.59c2.65,-9.24 -0.57,-9.68 1.11,-20.65 0.8,-5.22 4.55,-14.03 5.61,-17.17 3.29,-6.32 -3.78,-1.84 6.3,-6.96 1.25,-0.63 5.29,-0.39 6.87,-0.44 -1.12,-0.84 -2.05,-2.54 -2.65,-3.24l-5.29 -5.85c-0.67,-2.8 -4.14,-18.92 -5.65,-20.81l-2.26 -0.12 -1.91 11.74z"/>
   <path class="fil6" d="M119.63 259.27l13.6 -2.12 2.31 18.94 1.52 1.84 8.92 -6.91c10.2,-8.9 25.02,-14.58 39.36,-14.54 7.01,-10.31 -0.51,-3.51 11.91,-8.81 5.89,-9.76 10.57,-9.96 21.06,-14.73l12.35 3.85c8.66,-3.21 3.9,-1.43 8.57,-8.96l-17.53 -5.92c-8.07,12.93 -20.85,2.77 -41.12,14.61l-8.28 4.13c-7.35,2.13 -34.11,4.38 -52.67,18.61z"/>
   <path class="fil7" d="M311.05 189.97c1.37,20.59 -3.04,33.95 -19.92,40.26 -13.58,5.08 -38.95,4.48 -51.9,-2.4 -4.66,7.53 0.09,5.75 -8.57,8.96l2.59 3.63c24.32,16.89 50.95,5.74 74.01,-0.91l9.66 -10.72c3.52,-3.75 5.77,-6.58 9.61,-10.4 -2.03,-16.58 -4.2,-14.89 -2.69,-34.09l-2.2 6.15c-0.29,1.13 -0.54,1.9 -0.8,3.11 -0.25,1.17 -0.33,1.92 -0.53,3.05 -0.44,2.55 -0.16,4.44 -0.47,6.93 -2,16.15 3.1,-15.26 -2.8,4.73l-5.98 -18.3z"/>
   <path class="fil8" d="M207.7 250.68l-9.81 -1.77c-0.04,-0.58 -0.38,-0.85 -0.65,-1.23 -12.42,5.3 -4.89,-1.51 -11.91,8.81 4.83,3.33 -2.55,3.02 -11.03,6.85 -6.64,3 -12.09,4.61 -17.98,7.06 -1.82,11.42 -1.3,3.34 2.17,6.99 13.19,-1.08 7.55,-2.37 10.58,-2.85 10.67,-1.68 -6.19,1.22 7.14,0.06l3.38 -0.53c16.53,-3.17 51.46,-5.09 61.91,-9.25 13.85,-5.51 6.43,2.83 12.38,-10.23 -14.99,-2.14 -20.61,-8.71 -27.38,-9.73 -11.78,-1.77 -10.75,8.09 -18.82,5.82z"/>
   <path class="fil9" d="M165.33 123.68l3.1 -3.42 10.7 -1.54c19.49,-13.58 42.64,-20.9 71.33,-20.21l4.39 -0.26 6.04 -2.36 7.01 -4.22c0.39,-1.04 1.44,-0.77 2.19,-1.08 -6.84,-17.13 -20.08,-45.17 -31.41,-52.86l-1.14 0.06 27.85 54.24 -13.57 -4.13c-1.91,-5.52 0.07,1.1 -1.32,-4.97 -0.02,-0.08 -0.52,-6.47 -0.65,-7.51 -9.62,-2.36 -7.62,-4.21 -5.99,5.56l3.41 9.3 -45.26 8.67c-5.44,-24.49 7.74,-47.61 8.75,-70.16l-1.74 -3.12c-4.93,28.19 -19.24,39.16 -13.07,74.88 -7.86,7.21 -27.41,15.46 -30.64,23.13z"/>
   <path class="fil10" d="M232.15 215.49c-0.09,-0.02 -19.77,0.65 -7.28,-21.54 10.01,-17.78 30.03,-23.6 50.38,-21.83 20.3,1.77 20.67,8.86 24.21,15.14 5.1,-2.04 4.17,4.64 4.58,8.66 8.17,7.76 0.88,38.11 -52.94,30.51 -2.63,-0.37 -10.06,-1.91 -12.29,-3.13 -8.3,-4.54 -5.58,-5.74 -6.65,-7.81zm-9.15 -36.97l-8.17 11.77c-0.84,16.42 3.1,21.65 6.87,31.63l17.53 5.92c12.95,6.89 38.32,7.48 51.9,2.4 16.88,-6.31 21.29,-19.67 19.92,-40.26l-5.59 -14.21c-9.38,2.93 -7.04,1.97 -16.31,-3.86 -4.13,-16.62 -1.89,-2.89 3.54,-7.98l-8.31 -2.53 -0.29 0.51c-1.42,8.49 0.72,2.18 -3.77,6.57 -11.03,-1.45 -25.08,-0.17 -35.37,3.5 -13.5,4.82 -16.45,8.28 -22.88,17.53l0.93 -10.99z"/>
   <path class="fil11" d="M134.59 184.63c6.79,7.94 3.73,4.69 6.33,16.61l3.79 -12.76c4.1,10.99 5.7,12.77 -2.46,18.91l2.29 6.07 4.76 4.15c17.23,-14.52 37.39,-21.18 60.27,-21.43 0.3,-7.54 -1.8,-5.91 5.24,-5.91l8.17 -11.77 -1.69 -6.18 1.48 -1.69c-8.34,7.71 -6.48,11.98 -18.11,18.16 -10.16,5.4 -21.54,6.28 -33.97,4.33 -26.05,-4.07 -27.41,-20.14 -23.32,-44.05l-6.09 -2.28c-1.07,3.14 -4.82,11.95 -5.61,17.17 -1.68,10.96 1.54,11.41 -1.11,20.65z"/>
   <path class="fil12" d="M255.1 107.48c-6.73,3.71 -5.77,2.73 -5.01,10.99l13.85 5.46 31.51 1.1 10.41 -10.12 0.9 -10.23 -25.87 -7.17 -19.99 -1.61c-1.73,12.47 2.03,3.67 -5.8,11.58z"/>
   <path class="fil12" d="M284.86 135.93l-2.1 23.76c0.23,-0.53 1.01,1.21 1.62,1.7l8.31 2.53 6.06 -0.01c2.43,0.55 13.89,1.35 18.41,0.8 13.4,-1.64 12.49,-1.55 12.39,-14.67 -6.41,-5.12 -2.93,-1.89 -6.24,-8.05 -3.48,-1.07 -1.63,0.57 -6.64,-2.15 -6.27,-3.4 -0.83,0.28 -5.22,-4.97l-0.1 -0.36 -2.69 0c-4.82,0.32 -7.89,-4.29 -8.04,-4.91 -0.2,-0.91 -1.01,-1.03 -1.59,-1.46 -5.4,4.74 -7.07,5.48 -14.19,7.79z"/>
   <path class="fil13" d="M93.85 311.35l1.75 4.89 2.75 0.73c0.66,-0.75 2.43,-1.99 2.67,-2.28 2.58,-3.06 0.99,6.54 2.07,-2.8 0.16,-1.38 -1.82,-7.84 -2.47,-10.62 6.51,4.05 7.74,5.44 12.66,11.02l18.58 -7.34 12.15 -15.89 1.96 -18.03 -8.92 6.91 -1.52 -1.84c-2.75,2.66 -2.2,1.68 -4.89,5.83 -6.28,9.69 -0.6,9.45 -13.02,11.81 -3.28,-18.73 8.76,-4.34 1.99,-20.18l-7.04 8.42c-4.28,6.13 -0.11,1.71 -5.5,6.24l0.5 -14.19c-7.01,8.28 -5.89,-11.24 -5.61,11.53l-1.65 -10.38c-6.15,5.6 -5.29,10.28 -4.45,19.69 0.23,2.61 1.42,8.46 1.22,10.33 -0.91,8.48 3.61,0.66 -3.23,6.17z"/>
   <path class="fil14" d="M161.35 183.29l-5.87 -2.23 -4.19 -6.79c-10.33,-12.14 4.16,-29.57 19.34,-30.59l11.59 -5.11c4.8,-0.83 10.43,-0.85 15.2,0.07 10.35,1.99 14.64,7.63 18.14,13.34 10.5,36.98 -44.31,43.29 -54.2,31.31zm50.05 -46.61c4.37,3.36 5.45,-3.34 3.48,3.57l-5.26 -4.17c-17.79,-5.21 -31.9,-3.07 -48.34,2.82 -2.94,6.78 0.77,3.09 -5.13,7.27 -0.66,0.46 -3.37,1.38 -3.94,1.63l-4.83 1.28c-4.1,23.91 -2.74,39.98 23.32,44.05 12.43,1.94 23.8,1.06 33.97,-4.33 11.63,-6.18 9.78,-10.45 18.11,-18.16 -0.98,-20.24 2.96,-38.4 -16.24,-43.04l4.86 9.08z"/>
   <path class="fil15" d="M182.7 154.06l10.15 0.6c5.22,4.25 4.3,-5.7 4.38,5.46l-9.64 0.53 -5.07 -0.06c-0.69,16.03 -0.91,11.18 -4.06,15.46 -5.18,-20.15 -0.01,-6.77 -7.99,-12.86l0 10.89c-2.78,-0.46 -7.41,-0.8 -10.8,-0.77 -6.75,0.04 -1.47,-0.95 -8.39,0.96l4.19 6.79 5.87 2.23c57.23,7.92 56.58,-40.36 32.97,-42.26 -18.48,-1.49 -10.01,2.15 -12.43,4.89l0.81 8.15z"/>
   <path class="fil16" d="M144.55 213.46c-4.55,3.5 -2.12,-0.35 -5.44,5.03 -3.8,6.15 -0.72,0.72 -2.19,6.19 -2.34,9.3 -3.09,0.84 0.65,6.09l73.16 -19.38 -1.14 -15.21c-22.88,0.25 -43.04,6.9 -60.27,21.43l-4.76 -4.15z"/>
   <path class="fil17" d="M308.59 120l0.09 14.51 2.69 0c-1.96,-12.82 -2.74,-12.32 4.4,-20.56 6.02,-12.97 12.68,-20.09 17.47,-36.22 4.08,3.69 2.3,0.22 5.93,6.32 9.46,15.9 13.07,40.7 10.19,60 8.3,-12.13 4.64,-31.2 4.99,-45.21 0.67,-14.65 -5.75,-19.39 -7.77,-34.16l-7.49 4.6 -3.7 -20.4c-0.96,-0.49 -0.08,-14.14 -4.58,5.07 -0.57,2.44 -0.78,7.82 -1.19,10.82 -3.63,26.46 -11.51,32.05 -21.02,55.21z"/>
   <path class="fil18" d="M273.71 202.05l0.33 10.16 -9.44 -9.06c1.67,5.59 0.51,-2.64 1.42,5.35l-1.49 4.58c-9.88,4.46 -19.57,8.67 -32.38,2.39 1.07,2.07 -1.64,3.27 6.65,7.81 2.23,1.22 9.65,2.76 12.29,3.13 53.83,7.59 61.12,-22.75 52.94,-30.51 -2.78,7.12 -2.52,8.32 -11.19,9.62 -9.33,1.41 -11.59,-1.22 -19.14,-3.48z"/>
   <path class="fil19" d="M86.64 241.37c-4.06,-5.12 5.02,1.15 -6.47,-5.86l-24.85 -10.86c-19.09,-6.55 -19.47,5.18 -37.1,-7.47 -2.96,-12.28 -2.2,-3.12 3.43,-6.63 15.02,-6.15 6.39,-5.31 12.83,-16.68 11.11,1.5 7.33,1.12 13.23,8.34 3.02,3.7 5.1,5.61 8.24,9.1 8.06,4.03 9.29,2.63 15.33,9.07 13.22,2.58 21.12,8.35 35.87,8.3l2.74 -2.84 -47.65 -17.35c-14.51,-8.05 -7.74,-11.55 -20.36,-19.89 -24.73,5.13 1.96,1.17 -21.14,16l-7.25 6.18c-1.61,17.69 14.59,15.92 31.45,17.49 17.75,1.64 24.3,12.57 41.72,13.11z"/>
   <path class="fil20" d="M387.47 245.62l-8.17 7.19 0.24 5.16c13.4,-4.66 28.41,-7.57 38.74,-13.84 17.2,-10.44 13.73,-19.05 28.38,-23.59l8.5 20.3c4.85,2.13 3.2,-1.04 3.29,5.67 -10.5,6.84 -20.67,3.13 -40.83,11.16 -14.59,5.81 -10.48,3.8 -7.36,7.08 11.69,-2.04 17.06,-8.05 29.31,-9.01 19.15,-1.49 40.88,-2.49 19.01,-22.21l-3.88 -7.36c-3.32,-7.5 -2.64,-7.26 -12.1,-9.81 -12.83,5.23 -10,11.61 -23.68,18.89 -9.18,4.89 -20.43,10.29 -31.45,10.37z"/>
   <path class="fil5" d="M98.7 387.65c10.71,1.31 2.84,0.85 6.02,-2.32 -23.34,-6.73 -37.83,-20.76 -42.63,-43.86 9.01,9.36 4.05,12.67 32.23,29.75 4.94,2.99 12.3,7.52 19.33,10.82 15.27,7.16 12.86,1.93 20.91,11.23 11.05,0.61 8.87,2.96 17.26,-2.64 -8.02,-11.13 -12.89,-4.42 -25.34,-9.85 -8.28,-3.61 -4.95,-2.86 -8.07,-5.77 -9.31,0.39 -15.14,-4.96 -23.6,-10.53 -10.14,-6.67 -14.34,-6.12 -18.03,-16.49 -9.41,-5.57 -0.23,-0.03 -7.11,-6.17 -5.74,-5.13 -0.03,-3.51 -9.86,-5.03 -8.51,18.37 23.15,47.47 38.89,50.85z"/>
   <path class="fil21" d="M212.37 310.42l-12.34 4.57c1.27,14.14 -0.46,2.97 5.81,15.55l25.35 0.43c-4.16,-5.69 0.11,-2.1 -12.93,-4.25 -9.94,-1.64 -3.07,3.1 -10.7,-3.71 -3.37,-6.82 6.41,-10.18 13.55,-10.8 20.04,-1.74 44.99,5.75 63.62,12.56l-11.44 1.77c-15.3,-0.88 -19.24,-3.88 -41.81,-0.08l29.27 4.75 31.25 3.02c-2.42,-23.72 -47.38,-27.89 -73.92,-28.08l-5.71 4.27z"/>
   <path class="fil22" d="M469.5 284.9l-0.58 4.05c16.36,-0.07 12.71,-8.51 28.32,-0.01 -18.01,9.61 -6.73,0.05 -15.76,17.17 -7.89,0.4 -20.44,-3.77 -29.92,-7.28 0,7.65 1.77,5.31 -6.37,6.03l-1.28 1.78c17.12,4.83 15.58,6.86 28.59,11.98l18.64 -2.26 6.54 -22.64c5.59,-4.95 -1.01,-2.14 7.89,-4.78 -2.91,-4.38 -0.99,-6.07 -9.59,-9.29 -4.69,-1.75 -6.65,-1.25 -11.47,-0.79 -3.15,0.3 -16.65,3.2 -15,6.04z"/>
   <path class="fil23" d="M108.39 123.48c-0.21,13.58 0.61,4.81 -3.49,15.9 0.98,0.45 6.23,2.23 6.26,2.24 8.08,4.29 2.15,-1.58 7.63,5.72l15.85 2.31 12.65 -15.97 -6.42 -6.81c-0.41,-0.52 -1,-1.38 -1.38,-1.88l-2.76 -3.86c-8.54,8.69 -1.41,3.04 -11.23,-7.28l-10.54 -0.49 4.33 16.83c-10.32,-6.91 -4.66,3.3 -6.52,-11.91l-4.37 5.2z"/>
   <path class="fil24" d="M445.18 304.86c8.15,-0.72 6.37,1.62 6.37,-6.03l-19.57 -3.19c15.01,-1.44 28.61,1.41 36.93,-6.69l0.58 -4.05c-16.32,4.69 -30.21,3.93 -47.55,3.17 -10.71,-0.47 -37.12,-7.84 -41.2,2.08 0.51,0.18 1.31,-0.05 1.51,0.58l10.02 3.73c6.34,1.59 12.5,1.82 18.06,2.78 13.03,2.24 22.93,5.83 34.84,7.62z"/>
   <path class="fil25" d="M86.64 241.37l22.96 4.22 5.31 -7.8c-12.05,3.45 -17.72,-1.08 -27.1,-6.45 -4.17,-2.39 -6.51,-3.38 -10.21,-5.18 -14.69,-7.16 -7.97,-2.63 -6.32,-5.78 -6.03,-6.43 -7.27,-5.04 -15.33,-9.07 -4.53,3.09 1,1.23 -6.34,1.27 -4.91,0.02 -1.86,-0.89 -9.48,0 -12.76,1.49 -13.64,5.6 -18.48,-2.03 -5.64,3.5 -6.4,-5.65 -3.43,6.63 17.64,12.65 18.01,0.92 37.1,7.47l24.85 10.86c11.49,7.02 2.41,0.74 6.47,5.86z"/>
   <path class="fil16" d="M298.75 163.91c1.88,6.7 3.19,7.41 6.71,11.85l5.59 14.21 5.98 18.3c5.9,-19.99 0.8,11.42 2.8,-4.73 0.31,-2.49 0.03,-4.38 0.47,-6.93 0.2,-1.13 0.27,-1.89 0.53,-3.05 0.26,-1.21 0.51,-1.98 0.8,-3.11l2.2 -6.15 1.76 0.03c5.15,-5.52 7.6,-8.32 11.23,-14.26l1.89 -13c-6.44,-7.74 -0.83,-2.58 -9.17,-7.02 0.1,13.12 1.01,13.02 -12.39,14.67 -4.52,0.55 -15.98,-0.24 -18.41,-0.8z"/>
   <path class="fil26" d="M377.87 265.37l-1.04 6.1c12.35,5.22 10.91,7.02 22.3,1.25 2.73,-1.38 3.54,-1.77 5.78,-3.34 3.26,-2.29 3.4,-2.57 5.36,-4.63 -3.11,-3.28 -7.23,-1.27 7.36,-7.08 20.17,-8.03 30.34,-4.31 40.83,-11.16 -0.09,-6.71 1.57,-3.54 -3.29,-5.67 -17.34,3.3 -28.56,2.17 -42.92,9.14 -13.88,6.74 -16.64,12.84 -34.39,15.4z"/>
   <path class="fil27" d="M231.18 330.98l29.56 0.23 -29.27 -4.75c22.57,-3.8 26.51,-0.8 41.81,0.08l11.44 -1.77c-18.64,-6.8 -43.58,-14.3 -63.62,-12.56 -7.14,0.62 -16.92,3.98 -13.55,10.8 7.63,6.82 0.77,2.07 10.7,3.71 13.04,2.15 8.77,-1.44 12.93,4.25z"/>
   <path class="fil28" d="M229.93 293.85l20.97 2.75c1.98,-4.09 -8,-8.25 21.18,-4.53 26.13,3.33 32.72,2.74 62.03,10.41 -11.76,-5.54 -16.72,-9.35 -32.48,-14.06l7.24 -3.07 -17.77 -6.2 -4.57 2.29c-22.95,6.34 16.8,-2.18 -5.31,0.98 -19.37,2.77 -43.28,-1.06 -51.29,11.43z"/>
   <path class="fil29" d="M261.36 184.76c6.12,8.31 -0.19,2.43 10.67,3.78 7.52,0.93 3.12,-2.17 11.01,2.77l-12.19 5.04 2.86 5.7c7.55,2.26 9.81,4.89 19.14,3.48 8.66,-1.31 8.41,-2.5 11.19,-9.62 -0.41,-4.02 0.52,-10.69 -4.58,-8.66 -15.44,-11.4 -15.58,-10.37 -36.29,-10.15 -4.53,4.33 -7.84,-6.25 -1.81,7.66z"/>
   <path class="fil21" d="M250.9 296.6c36.83,-2.93 63.87,11.1 93.68,14.36 -1.94,-13.43 -1.12,-10.95 -13.94,-17.8 -7.86,-4.2 -12.4,-5.69 -21.77,-7.81l-7.24 3.07c15.75,4.71 20.72,8.52 32.48,14.06 -29.31,-7.67 -35.9,-7.08 -62.03,-10.41 -29.17,-3.72 -19.2,0.45 -21.18,4.53z"/>
   <path class="fil5" d="M315.77 113.96c0.14,6.57 -1.68,5.19 4.39,5.19l16.62 -30.36 5.62 22.89c-10.1,2.62 -13.96,4.78 -18.95,11.62 5.06,-3.54 9.96,-6.09 20.45,-5.64l0.33 12.79c-5.53,4.4 6.97,2.41 -6.98,3.73l0 2.43 7 2.97 -2.78 13.59 1.22 6.77 6.67 -15.88c2.88,-19.3 -0.72,-44.1 -10.19,-60 -3.63,-6.11 -1.85,-2.63 -5.93,-6.32 -4.79,16.13 -11.45,23.25 -17.47,36.22z"/>
   <path class="fil30" d="M152.91 299.08l7.99 4.83c1.03,10.97 1.58,9.11 -3.04,16.62 -9.19,-3.44 -1.55,0.01 -8.38,-7.43 -7.13,-7.76 -2.84,-3.64 -8.62,-6.79l-2.32 19.06 -10.76 -4.62c4.26,12.52 0.84,7.62 9.79,13.49 7.7,-4.97 6.55,-7 9.85,-16.9 4.67,8.59 1.29,5.76 11.08,8.12 7.98,-4.13 1.47,1.44 3.01,-3.82l1.43 -11.38c8.6,2.67 6.08,-0.87 7.79,2.63l3.1 -18.21 2.62 -6.74c0.39,0.39 6.46,6.05 6.57,6.19 4.43,5.53 2.14,1.56 3.63,7.78l10.83 7.71 -0.73 -3.06c-3.83,-13.35 -10.16,-20.34 -20.31,-25.46 -9.9,7.76 -8.35,7.5 -9.63,19.81l-13.9 -1.83z"/>
   <path class="fil31" d="M282.73 384.34l0.06 -6.37c-15.27,-6.01 -12.83,-3.6 -18.49,-12.44 15.52,4.61 14.13,8.98 28.75,12.88 -7.22,-1.54 -0.6,-0.81 -3.61,4 16.24,-0.52 11.16,4.81 29.66,1.25l-7.06 -9.41c-20.98,0.88 -42.13,-16.7 -57.84,-19.5 1.02,15.94 13.6,26.25 28.54,29.59z"/>
   <path class="fil32" d="M349.35 144.06l-6.67 15.88 -1.22 -6.77 -2.73 3.89 -1.89 13 1.8 10.69c19.78,-2.23 2.16,0.67 9.77,-5.72 -13.27,-6.17 5.89,-2.33 12,-30.73 2.69,-12.52 1.92,-36.92 -6.06,-45.45 -0.35,14.01 3.3,33.08 -4.99,45.21z"/>
   <path class="fil33" d="M232.15 215.49c-0.77,-3.87 -1.55,-3.44 -1.2,-7.54l2.98 -9.31c1.8,-12.32 2.13,-4.68 9.53,-15.27l10.97 3.51c-0.85,-6.12 -2.57,-5.07 2.78,-5.07l4.16 2.96c-6.03,-13.9 -2.73,-3.33 1.81,-7.66 20.71,-0.22 20.85,-1.25 36.29,10.15 -3.54,-6.28 -3.91,-13.38 -24.21,-15.14 -20.34,-1.77 -40.37,4.05 -50.38,21.83 -12.5,22.19 7.19,21.52 7.28,21.54z"/>
   <path class="fil8" d="M-0 280.79c13.2,0.08 16.86,3 24.19,8.35 10.81,7.12 9.04,1.48 23.4,2.83l3.8 -5.37c-14.62,-4.84 -3.03,-0.03 -6.93,-7.49 -14.77,-2.92 -6.43,0.83 -13.58,-6.66 -30.67,-12.08 -6.83,6.37 -27.96,-0.78l-0.03 -4.49 -2.88 0 0 13.6z"/>
   <path class="fil34" d="M379.54 257.96c-4.73,4.86 6.43,4.04 -5.62,4.07l3.94 3.34c17.75,-2.56 20.51,-8.66 34.39,-15.4 14.36,-6.97 25.58,-5.84 42.92,-9.14l-8.5 -20.3c-14.65,4.54 -11.18,13.15 -28.38,23.59 -10.33,6.27 -25.34,9.18 -38.74,13.84z"/>
   <path class="fil35" d="M290.48 94.64c-15.39,-0.29 -5.82,-0.4 -9.59,2.87l25.87 7.17 -0.9 10.23 2.73 5.09c9.51,-23.15 17.38,-28.75 21.02,-55.21 0.41,-3 0.62,-8.39 1.19,-10.82 4.51,-19.2 3.63,-5.55 4.58,-5.07l1.36 -4.83 1.41 -6.27 -6.41 -1.47c-6.67,9.62 -5.61,19.25 -7.93,32.31 -1.99,11.16 -8.64,21.7 -12.51,31.68l-20.81 -5.67z"/>
   <path class="fil21" d="M307.25 239.5c-23.06,6.66 -49.69,17.8 -74.01,0.91 -17.11,-0.85 -17.19,3.53 -25.55,10.26 8.07,2.27 7.04,-7.59 18.82,-5.82 6.77,1.02 12.39,7.59 27.38,9.73 27.27,2.07 51.86,-2.08 65.01,-19.14l-11.65 4.06z"/>
   <path class="fil36" d="M98.7 387.65c5.84,3.75 25.61,5.21 35.86,5.62 -8.05,-9.3 -5.64,-4.07 -20.91,-11.23 -7.03,-3.29 -14.39,-7.82 -19.33,-10.82 -28.18,-17.08 -23.22,-20.4 -32.23,-29.75 4.81,23.09 19.3,37.13 42.63,43.86 -3.19,3.17 4.68,3.63 -6.02,2.32z"/>
   <path class="fil37" d="M119.63 259.27c-1.89,3.73 -7.28,9.85 -12.06,14.75l-0.5 14.19c5.39,-4.53 1.22,-0.1 5.5,-6.24l7.04 -8.42c6.77,15.85 -5.27,1.45 -1.99,20.18 12.42,-2.36 6.74,-2.12 13.02,-11.81 2.69,-4.15 2.14,-3.17 4.89,-5.83l-2.31 -18.94 -13.6 2.12z"/>
   <path class="fil38" d="M177.02 146.58l4.88 -0.67c2.42,-2.73 -6.05,-6.38 12.43,-4.89 23.61,1.91 24.26,50.18 -32.97,42.26 9.89,11.98 64.71,5.67 54.2,-31.31 -3.51,-5.7 -7.79,-11.35 -18.14,-13.34 -4.77,-0.92 -10.4,-0.91 -15.2,-0.07l-11.59 5.11c11.35,-0.76 3.32,-1.58 6.39,2.9z"/>
   <path class="fil39" d="M131.87 304.95l-18.58 7.34c1.85,7.12 -4.43,4.48 4.03,6.57l8.83 -6.35c2.04,9.75 3.41,4.1 -1.45,10.87l3.07 -2.63 10.76 4.62 2.32 -19.06c5.77,3.15 1.49,-0.98 8.62,6.79 6.84,7.44 -0.81,4 8.38,7.43 4.63,-7.51 4.08,-5.65 3.04,-16.62l-7.99 -4.83c-0.85,0.52 -3.75,2.16 -4.41,2.39 -6.72,2.43 -7.38,-2.02 -16.64,3.48z"/>
   <path class="fil40" d="M151.29 174.27c6.92,-1.91 1.65,-0.92 8.39,-0.96 3.38,-0.02 8.02,0.31 10.8,0.77l0 -10.89 -10.53 5.1c2.51,-9.96 7.11,-7.78 15.68,-13.78l1.39 -7.94c-3.07,-4.48 4.96,-3.66 -6.39,-2.9 -15.17,1.01 -29.67,18.45 -19.34,30.59z"/>
   <path class="fil41" d="M98.02 144.17l20.77 3.18c-5.47,-7.3 0.45,-1.44 -7.63,-5.72 -0.03,-0.01 -5.28,-1.79 -6.26,-2.24l-4.65 -5.71 8.15 -10.2 4.37 -5.2c1.86,15.21 -3.8,5 6.52,11.91l-4.33 -16.83 -0.25 -8.96c11.28,-1.71 17.41,1.45 23.93,4.99l2.26 0.12c-3.08,-5.12 -2.17,-9.3 -13.05,-11.61 -22,-4.65 -18.87,12.7 -21.46,19.63 -6.06,16.21 -12.7,-2.02 -8.38,26.64z"/>
   <path class="fil42" d="M395.09 343.06c-2.99,10.96 -15.89,17.26 -27.81,19.31l4.93 -5.91c5.06,-8.28 6.45,6.21 -0.22,-3.03 -7.56,0.54 -9.28,2.7 -13.23,5.46l2.1 7.74c38,-0.79 31.97,-7.86 52.4,-25.03l0.92 -13.75c-14.97,13.94 -5.17,12.1 -19.08,15.21z"/>
   <path class="fil43" d="M468.92 288.95c-8.32,8.1 -21.92,5.25 -36.93,6.69l19.57 3.19c9.48,3.51 22.03,7.68 29.92,7.28 9.03,-17.13 -2.24,-7.57 15.76,-17.17 -15.61,-8.5 -11.96,-0.05 -28.32,0.01z"/>
   <path class="fil44" d="M252.57 197.4l-9.04 7.39c-6.01,4.17 7.62,4.17 -7.77,3.46l-1.83 -9.62 -2.98 9.31c-0.34,4.1 0.44,3.68 1.2,7.54 12.81,6.28 22.5,2.06 32.38,-2.39l1.49 -4.58c-0.91,-7.99 0.25,0.25 -1.42,-5.35l-0.58 -6.33 -11.45 0.57z"/>
   <path class="fil45" d="M236.87 73.62c0.31,0.59 0.71,0.92 0.9,1.78 0.18,0.87 0.81,1.43 1.07,1.68 3.12,3.06 1.41,1.62 5.04,3.89 -1.63,-9.77 -3.63,-7.92 5.99,-5.56 -3.6,-8.53 -4.96,-9.72 -9.66,-17.25 -0.18,-0.29 -5.63,-10.3 -5.67,-10.42 -4.31,-16.52 -1.02,-6.54 3.01,-9.96l1.14 -0.06 -4.21 -13.78c-0.7,0.68 -1.68,0.81 -1.92,2.21 -0.22,1.31 -1.45,1.57 -1.71,2.13 -4.22,9.09 -1.19,3.33 -0.53,16.79l-13.09 -1.21c-4.95,11.58 -6.24,10.12 -5.25,24.29l5.18 -8.64c2.11,-4.74 0.48,-3.68 4.13,-9.52 12.3,3.2 13.9,12.14 19.07,20.64l-3.5 2.98z"/>
   <path class="fil36" d="M375.13 233.48l-4.14 -4.14c-0.46,-0.49 -1.37,-0.73 -1.71,-1.97 -0.32,-1.15 -1.02,-1.25 -1.53,-1.88 -11.18,3.87 -12.59,5.33 -11.86,18.31l9.22 -0.97 2.95 -1.03 -8.25 -0.97c2.44,-4.16 2.14,-3.33 5.04,-8.33 9.62,4.78 -0.39,-5.88 3.94,3.69 10.32,7.1 8.61,7.18 19.57,6.11l3.91 -3.9c-5.49,-5.75 -13.64,17.14 4.54,-21.77 14.11,-30.21 3.68,-20.42 2.89,-21.05 -4.45,22.56 -13.51,23.84 -18.05,42.19l-6.51 -4.28z"/>
   <path class="fil19" d="M367.75 225.49c0.51,0.63 1.21,0.73 1.53,1.88 0.34,1.24 1.25,1.48 1.71,1.97l4.14 4.14c2.26,-8.83 -0.79,-1.21 4.56,-10.57 2.24,-3.92 2.83,-5.01 5.62,-9.03 5.15,-7.43 9.36,-10.42 14.38,-18.32 0.79,0.63 11.23,-9.16 -2.89,21.05 -18.18,38.91 -10.03,16.02 -4.54,21.77 8.32,-14.93 18.39,-28.32 13.26,-46.9 -19.06,0.4 -20.39,27.46 -37.77,34z"/>
   <path class="fil46" d="M348.4 175.03c-7.61,6.4 10.01,3.5 -9.77,5.72l-1.8 -10.69c-3.63,5.95 -6.08,8.74 -11.23,14.26 6.62,4.53 4,-7.26 6.33,8.92l0 4.62c10.48,4.54 12.52,1.18 19.55,-4.6l3.67 -22.25 -6.76 4.01z"/>
   <path class="fil47" d="M267.91 158.32l-1.75 3.6c-10.31,0.84 -10.86,2.85 -17.01,3.87 -11.18,1.84 -6.91,3.26 -12.88,-3.44l-6 10.31 -8.95 -0.32 1.69 6.18 -0.93 10.99c6.43,-9.25 9.38,-12.71 22.88,-17.53 10.29,-3.67 24.34,-4.95 35.37,-3.5 4.48,-4.38 2.34,1.92 3.77,-6.57l-9.57 -2.41c-3.69,-4.82 -5.22,7.22 -2.21,-8.08l-4.4 6.9z"/>
   <path class="fil7" d="M165.33 123.68c2.44,7.43 4.84,6.46 -1.57,6.46 -5.23,4.16 -3.08,-0.31 -2.48,8.77 16.44,-5.89 30.55,-8.03 48.34,-2.82l1.78 0.6 -4.86 -9.08c-4.59,-0.4 -11.52,-1.1 -15.77,-1.91 -10.83,-2.07 -12.54,4.09 -12.54,-5.63l0.88 -1.34 -10.7 1.54 -3.1 3.42z"/>
   <path class="fil28" d="M161.5 321.64c13.48,-5.06 7.65,-0.09 24.86,0.17 3.15,-2.53 3.06,-1.65 6.01,-4.74 6.17,-6.46 1.62,-0.61 5.1,-7.44l-10.83 -7.71c-0.83,7.41 8.4,5.3 -11.26,6.87l-1.57 -14.1 -3.1 18.21c-1.71,-3.5 0.82,0.03 -7.79,-2.63l-1.43 11.38z"/>
   <path class="fil48" d="M249.86 75.41c0.13,1.05 0.64,7.44 0.65,7.51 1.39,6.07 -0.59,-0.55 1.32,4.97l13.57 4.13 -27.85 -54.24c-4.03,3.42 -7.32,-6.56 -3.01,9.96 0.03,0.12 5.48,10.13 5.67,10.42 4.7,7.53 6.07,8.72 9.66,17.25z"/>
   <path class="fil22" d="M149.54 373.93l12.64 -1.35 10.37 -13.05 -2.14 -5.85c-0.08,-0.15 -0.48,-0.71 -0.56,-0.85 -4.12,-7.25 -0.28,6.59 -2.4,-4.21l-15.01 -3.39 -1.45 5.51 10.17 4.41c-7.71,5.49 -8.23,4.34 -7.12,11.56 -8.79,0.03 -1.45,-1.57 -4.5,7.23z"/>
   <path class="fil49" d="M124.03 224.26l5.66 -7.16c-11.4,-19.32 -9.34,-5.81 -13.97,-42.34 -13.08,17.61 -3.71,35.9 8.31,49.51z"/>
   <path class="fil50" d="M21.66 210.55c4.84,7.63 5.72,3.52 18.48,2.03 7.63,-0.89 4.57,0.02 9.48,-0 7.34,-0.04 1.8,1.83 6.34,-1.27 -3.14,-3.5 -5.22,-5.41 -8.24,-9.1 -5.9,-7.22 -2.12,-6.84 -13.23,-8.34 -6.43,11.38 2.2,10.54 -12.83,16.68z"/>
   <path class="fil35" d="M247.71 195.71l4.85 1.69 11.45 -0.57 0.58 6.33 9.44 9.06 -0.33 -10.16 -2.86 -5.7 12.19 -5.04c-7.89,-4.95 -3.49,-1.84 -11.01,-2.77 -10.86,-1.35 -4.55,4.53 -10.67,-3.78l-4.16 -2.96c-5.35,0 -3.62,-1.05 -2.78,5.07 6.23,-0.41 0.77,-0.79 2.97,3.39l-9.68 5.44z"/>
   <path class="fil51" d="M255.49 128.25c3.75,5.33 0.63,3.15 8.08,7.29 5.65,3.14 7.83,3.95 12.45,6.88l-3.71 9c-3.01,15.3 -1.48,3.26 2.21,8.08l9.57 2.41 0.29 -0.51c-0.61,-0.49 -1.39,-2.23 -1.62,-1.7l2.1 -23.76c-11.69,-0.17 -13.97,0.11 -22.12,-5.57l-3.69 -3.72 -3.57 1.61z"/>
   <path class="fil52" d="M311.36 134.51l0.1 0.36c7.78,1.31 4.66,2.16 10.78,-1.24l1.07 8.36 13.92 -5.38 0 -2.43c-0.95,-0.54 -2.11,-1.1 -2.86,-1.58l-10.93 -9.3c-7.33,5.41 -3.01,-6.74 -5.61,4.54l2.32 -8.7c-6.07,0 -4.24,1.38 -4.39,-5.19 -7.14,8.24 -6.36,7.73 -4.4,20.56z"/>
   <path class="fil53" d="M320.15 119.15l-2.32 8.7c2.61,-11.28 -1.72,0.86 5.61,-4.54 5,-6.85 8.85,-9.01 18.95,-11.62l-5.62 -22.89 -16.62 30.36z"/>
   <path class="fil54" d="M114.91 237.79c1.45,-3.2 5.41,-3.47 0.09,-3.79l-7.86 -5.32c-14.75,0.06 -22.64,-5.72 -35.87,-8.3 -1.65,3.15 -8.38,-1.38 6.32,5.78 3.7,1.81 6.04,2.8 10.21,5.18 9.38,5.36 15.05,9.9 27.1,6.45z"/>
   <path class="fil55" d="M146.55 130.32l5.29 5.85c0.59,0.7 1.53,2.41 2.65,3.24 -1.58,0.05 -5.62,-0.19 -6.87,0.44 -10.09,5.12 -3.01,0.65 -6.3,6.96l6.09 2.28 4.83 -1.28c0.57,-0.25 3.28,-1.16 3.94,-1.63 5.9,-4.18 2.19,-0.49 5.13,-7.27 -0.6,-9.08 -2.76,-4.61 2.48,-8.77 6.41,0 4.01,0.97 1.57,-6.46l-18.78 6.63z"/>
   <path class="fil56" d="M216.78 12.89c-9.74,3.78 -5.23,-10.56 -7.15,5.55l-0.59 7.23 1.74 3.12c8.98,-7.3 -0.01,-10.65 10.52,-0.93 0.35,-0.91 1.86,-5.13 3.34,-6.24l2.47 -0.91c0.18,-0.06 1.13,-0.06 1.29,-0.09 0.15,-0.03 0.84,0.12 1.23,0l-6.45 -20.62 -6.39 12.89z"/>
   <path class="fil10" d="M2.88 267.19l0.03 4.49c8.93,-5.83 4.49,-6.77 7.91,-11 4.52,-5.58 4.09,-3.83 13.93,-4.11l6.12 15.89c7.15,7.49 -1.18,3.73 13.58,6.66 -1.44,-2.77 0.23,-1.05 -3.19,-4.55 -16.84,-17.26 -3.28,-8.15 -14.35,-21.73l-15.99 -0.21 -8.05 14.57z"/>
   <path class="fil57" d="M114.96 113.35l10.54 0.49c9.82,10.32 2.69,15.97 11.23,7.28l1.91 -11.74c-6.52,-3.54 -12.65,-6.71 -23.93,-4.99l0.25 8.96z"/>
   <path class="fil58" d="M197.24 247.68c0.26,0.38 0.61,0.65 0.65,1.23l9.81 1.77c8.36,-6.73 8.44,-11.11 25.55,-10.26l-2.59 -3.63 -12.35 -3.85c-10.49,4.78 -15.17,4.97 -21.06,14.73z"/>
   <path class="fil41" d="M98.35 316.97c6.16,6.42 0.45,3.21 8.58,5.29l17.77 1.12c4.86,-6.77 3.49,-1.12 1.45,-10.87l-8.83 6.35c-8.46,-2.09 -2.18,0.55 -4.03,-6.57 -4.92,-5.58 -6.15,-6.96 -12.66,-11.02 0.65,2.78 2.63,9.25 2.47,10.62 -1.09,9.34 0.51,-0.26 -2.07,2.8 -0.24,0.28 -2.01,1.53 -2.67,2.28z"/>
   <path class="fil59" d="M233.92 198.63l1.83 9.62c15.39,0.7 1.77,0.7 7.77,-3.46 -4.19,-2.49 -5.19,2.78 -2.24,-4.08 2.87,-6.66 -0.02,-1.62 6.43,-5l9.68 -5.44c-2.2,-4.19 3.26,-3.8 -2.97,-3.39l-10.97 -3.51c-7.4,10.59 -7.73,2.95 -9.53,15.27z"/>
   <path class="fil43" d="M149.12 370.64l0.42 3.29c3.05,-8.8 -4.29,-7.19 4.5,-7.23 -1.11,-7.22 -0.59,-6.07 7.12,-11.56l-10.17 -4.41 -10.53 -0.45c-0.85,6.37 -9.89,3.85 5.47,17.16 0.44,0.38 1.25,1.22 1.61,1.54 0.36,0.32 1.1,1.05 1.58,1.64z"/>
   <path class="fil19" d="M145.98 271.02l-1.96 18.03c5.89,-11.95 2.05,-12.61 12.32,-18.66 5.88,-2.46 11.34,-4.07 17.98,-7.06 8.48,-3.83 15.87,-3.52 11.03,-6.85 -14.34,-0.04 -29.16,5.64 -39.36,14.54z"/>
   <path class="fil14" d="M170.47 163.2c7.98,6.09 2.8,-7.29 7.99,12.86 3.16,-4.28 3.37,0.58 4.06,-15.46l5.07 0.06 5.26 -5.98 -10.15 -0.6 -7.08 0.45c-8.57,6 -13.16,3.83 -15.68,13.78l10.53 -5.1z"/>
   <path class="fil60" d="M331.93 197.87l-3.03 16.4c12.92,-0.9 9.32,0.74 18.9,-5.35l3.68 -15.65c-7.03,5.78 -9.07,9.15 -19.55,4.6z"/>
   <path class="fil61" d="M215.98 365.17c5.65,13.31 1.57,6.61 16.43,8.32l0.92 -6.77 -8.77 2.2c10.14,-5.41 2.82,-0.36 9.26,-6.78 -12.58,-1.5 -10.6,-2.53 -19.39,-6.66 -6.41,-9.06 -4.63,-4.12 -8.06,-6.17 5.49,18.11 -3.07,6.72 13.52,13.82l-3.9 2.04z"/>
   <path class="fil62" d="M259.05 126.64l3.69 3.72c8.15,5.68 10.43,5.41 22.12,5.57 -0.83,-7.73 4.6,-7.78 10.58,-10.89l-31.51 -1.1c0,5.38 1.07,3.76 -4.89,2.7z"/>
   <path class="fil23" d="M375.13 233.48l6.51 4.28c4.54,-18.35 13.6,-19.63 18.05,-42.19 -5.02,7.89 -9.23,10.89 -14.38,18.32 -2.79,4.02 -3.38,5.11 -5.62,9.03 -5.34,9.35 -2.29,1.74 -4.56,10.57z"/>
   <path class="fil49" d="M2.91 271.68c21.13,7.16 -2.72,-11.29 27.96,0.78l-6.12 -15.89c-9.84,0.28 -9.42,-1.47 -13.93,4.11 -3.42,4.23 1.02,5.17 -7.91,11z"/>
   <path class="fil28" d="M201.59 301.3l14.18 3.14 8.41 -6.39c0.58,-0.38 1.47,-0.88 2,-1.24l3.75 -2.95 -2.08 -2.78 -11.71 -3.55 1.38 8.52c-0.89,-0.61 -1.83,-1.55 -2.57,-2l-6.95 -3.69 -6.41 10.94z"/>
   <path class="fil53" d="M323.32 141.99c3.31,6.17 -0.18,2.93 6.24,8.05 8.34,4.43 2.73,-0.72 9.17,7.02l2.73 -3.89 2.78 -13.59 -7 -2.97 -13.92 5.38z"/>
   <path class="fil53" d="M323.44 123.31l10.93 9.3c0.75,0.48 1.91,1.04 2.86,1.58 13.95,-1.33 1.45,0.67 6.98,-3.73l-0.33 -12.79c-10.48,-0.44 -15.39,2.11 -20.45,5.64z"/>
   <path class="fil63" d="M295.45 125.04c-5.99,3.11 -11.41,3.16 -10.58,10.89 7.12,-2.31 8.79,-3.04 14.19,-7.79 0.58,0.42 1.38,0.55 1.59,1.46 0.14,0.62 3.21,5.23 8.04,4.91l-0.09 -14.51 -2.73 -5.09 -10.41 10.12z"/>
   <path class="fil19" d="M138.74 369.1l10.38 1.53c-0.48,-0.59 -1.21,-1.32 -1.58,-1.64 -0.36,-0.32 -1.17,-1.16 -1.61,-1.54 -15.36,-13.31 -6.32,-10.79 -5.47,-17.16l10.53 0.45 1.45 -5.51c-25.1,-2.49 -24.68,12.9 -13.7,23.88z"/>
   <path class="fil64" d="M78.51 320.23l14.02 3.05 3.06 -7.04 -5.36 -3.1c-10.58,-2.92 -11.84,-6.02 -18.1,-11.66 0.61,12.06 2.07,7.33 6.37,18.75z"/>
   <path class="fil31" d="M78.51 320.23c-4.3,-11.42 -5.76,-6.69 -6.37,-18.75 6.26,5.65 7.52,8.75 18.1,11.66 -5.43,-8.34 -11.64,-15.71 -21.46,-18.9 -3.2,8.69 0.26,23.05 9.73,25.99z"/>
   <path class="fil65" d="M472.49 318.62c2.55,4.96 11.25,5.33 17.41,3.18 9.92,-3.46 6.71,-7.38 6.99,-17.9l8.67 -14.97c-8.9,2.64 -2.3,-0.17 -7.89,4.78l-6.54 22.64 -18.64 2.26z"/>
   <path class="fil61" d="M382.72 346.13c-10.65,3.8 -5.57,0.05 -10.74,7.29 6.67,9.24 5.28,-5.25 0.22,3.03l-4.93 5.91c11.93,-2.05 24.82,-8.35 27.81,-19.31 -9.61,4.37 0.7,1.18 -8.12,4.13 -4.72,1.58 -4.13,5.13 -4.25,-1.05z"/>
   <path class="fil26" d="M173.82 294.69l1.57 14.1c19.66,-1.57 10.42,0.53 11.26,-6.87 -1.5,-6.23 0.8,-2.25 -3.63,-7.78 -0.11,-0.14 -6.18,-5.79 -6.57,-6.19l-2.62 6.74z"/>
   <path class="fil66" d="M333.04 245.77c15.13,0.92 2.78,2.79 13.61,7.71 8.91,4.05 -0.04,1.63 3.8,-0.4l-1.65 8.06 9.13 0.56 -1.07 -10.27c-11.61,-9.58 -7.23,5.91 -18.52,-13.82l-5.3 8.16z"/>
   <path class="fil67" d="M142.25 207.39c8.16,-6.14 6.56,-7.91 2.46,-18.91l-3.79 12.76c-2.6,-11.92 0.46,-8.67 -6.33,-16.61l0.17 20.59 7.5 2.17z"/>
   <path class="fil65" d="M233.32 366.72l9 -2.09c-6.31,-9.54 -15.61,-11.06 -24.72,-11.43l-3.19 2.28c8.79,4.13 6.81,5.16 19.39,6.66 -6.45,6.42 0.87,1.37 -9.26,6.78l8.77 -2.2z"/>
   <path class="fil68" d="M201.59 301.3l6.41 -10.94 6.95 3.69c0.73,0.45 1.68,1.39 2.57,2l-1.38 -8.52 -12.78 -5.32c-1.48,2.74 -8,17.33 -1.77,19.09z"/>
   <path class="fil24" d="M172.55 359.53l14.75 -1.01 -3.83 -10.18 -16.01 0.28c2.12,10.8 -1.72,-3.04 2.4,4.21 0.08,0.14 0.49,0.7 0.56,0.85l2.14 5.85z"/>
   <path class="fil52" d="M335.38 48.9l3.7 20.4 7.49 -4.6 0.99 -8.96c-4.43,2.29 -3.63,-0.76 -5.41,2.63 -0.32,-3.26 0.11,-5.22 -1.24,-8.4 -2.46,-5.8 -0.93,-2.48 -4.18,-5.9l-1.36 4.83z"/>
   <path class="fil69" d="M305.46 175.76c-3.52,-4.44 -4.83,-5.15 -6.71,-11.85l-6.06 0.01c-5.43,5.09 -7.67,-8.64 -3.54,7.98 9.27,5.83 6.93,6.79 16.31,3.86z"/>
   <path class="fil70" d="M246.38 114.84l-0.04 -4.45c-1.1,1.72 0.41,2.47 0.9,4.74 0.42,1.94 1.93,2.2 2.84,3.34 -0.75,-8.26 -1.72,-7.28 5.01,-10.99l-0.24 -9.23 -4.39 0.26c-4.48,3.97 -4.06,1.54 -5.91,7.82 -3.13,10.65 -0.03,6.71 1.83,8.51z"/>
   <path class="fil71" d="M376.82 271.47l1.04 -6.1 -3.94 -3.34c12.05,-0.03 0.89,0.79 5.62,-4.07l-0.24 -5.16 -11.47 5.5c1.26,14.95 -2.28,5.6 8.98,13.17z"/>
   <path class="fil61" d="M282.73 384.34l6.7 -1.92c3.01,-4.81 -3.61,-5.55 3.61,-4 -14.62,-3.9 -13.23,-8.27 -28.75,-12.88 5.66,8.84 3.23,6.43 18.49,12.44l-0.06 6.37z"/>
   <path class="fil20" d="M382.72 346.13c0.12,6.18 -0.48,2.63 4.25,1.05 8.82,-2.95 -1.49,0.24 8.12,-4.13 0.24,-0.71 0.59,-2.58 0.78,-2.1l5.61 -6.49c6.03,-6.36 5.71,0.09 2.72,-6.06 -7.48,4.49 -14.83,9.97 -21.47,17.72z"/>
   <path class="fil72" d="M236.27 162.34c5.97,6.7 1.7,5.29 12.88,3.44 6.15,-1.01 6.7,-3.02 17.01,-3.87l1.75 -3.6 -31.64 4.02z"/>
   <path class="fil63" d="M200.37 368.95l2.33 -4.18 -14.31 -5.01c-6.04,4.63 -7.15,-4.08 -5.12,5.57 1.78,1.12 0.92,2 6.01,3.09 3.97,0.85 7.17,0.5 11.09,0.53z"/>
   <path class="fil61" d="M395.09 343.06c13.91,-3.11 4.11,-1.28 19.08,-15.21l-0.41 -2.99c-15.2,0.17 -6.32,0.89 -9.57,3.56 2.99,6.15 3.32,-0.31 -2.72,6.06l-5.61 6.49c-0.19,-0.48 -0.54,1.39 -0.78,2.1z"/>
   <path class="fil73" d="M206.55 127.61c-5.44,-8.42 -15.99,-5.57 -28.3,-7.54 0,9.72 1.7,3.57 12.54,5.63 4.25,0.81 11.18,1.51 15.77,1.91z"/>
   <path class="fil70" d="M260.9 95.9l19.99 1.61c3.77,-3.27 -5.8,-3.16 9.59,-2.87 -4.92,-2.77 -0.87,-1.96 -9.27,-3.36 -3.27,-0.55 -7.69,-0.49 -11.11,-0.68 -0.75,0.32 -1.79,0.04 -2.19,1.08l-7.01 4.22z"/>
   <path class="fil74" d="M-0 286.99l24.19 2.16c-7.33,-5.35 -10.99,-8.27 -24.19,-8.35l0 6.2z"/>
   <path class="fil55" d="M47.58 291.98l13.44 -1.57c-5.19,-9.41 -5.14,-8.36 -16.57,-11.3 3.9,7.46 -7.69,2.64 6.93,7.49l-3.8 5.37z"/>
   <path class="fil73" d="M255.49 128.25l3.57 -1.61c5.96,1.06 4.89,2.68 4.89,-2.7l-13.85 -5.46c-0.91,-1.14 -2.42,-1.4 -2.84,-3.34 -0.5,-2.27 -2,-3.02 -0.9,-4.74l0.04 4.45c0.73,9.05 -0.33,10.21 9.1,13.4z"/>
   <path class="fil75" d="M365.1 242.83c5.59,9.16 10.86,5.2 17.7,0.96l5.55 -1.49c-10.96,1.07 -9.25,0.98 -19.57,-6.11l-0.74 5.61 -2.95 1.03z"/>
   <path class="fil76" d="M215.98 365.17l3.9 -2.04c-16.58,-7.1 -8.02,4.29 -13.52,-13.82 3.43,2.05 1.66,-2.89 8.06,6.17l3.19 -2.28 0 -5.36 -11.43 -0.14c0.38,5.62 -0.97,6.29 1.62,11.71 6.67,13.95 0.47,3.27 8.18,5.75z"/>
   <path class="fil77" d="M109.88 225.84l-2.74 2.84 7.86 5.32c6.02,-18.52 3.08,-9.22 -1.42,-12.88 1.03,6.12 2.39,4.65 -3.7,4.73z"/>
   <path class="fil78" d="M104.9 139.38c4.1,-11.1 3.28,-2.32 3.49,-15.9l-8.15 10.2 4.65 5.71z"/>
   <path class="fil79" d="M243.53 204.79l9.04 -7.39 -4.85 -1.69c-6.45,3.38 -3.56,-1.67 -6.43,5 -2.95,6.86 -1.95,1.6 2.24,4.08z"/>
   <path class="fil80" d="M236.87 73.62c-3.36,-4.16 9.21,-3 -6.6,-3.54l-2.45 4.08c-0.86,5.35 -0.75,1.35 -0.02,7.72 5.96,-9.86 -0.5,-4.11 9.07,-8.26z"/>
   <path class="fil81" d="M311.46 134.88c4.39,5.25 -1.05,1.57 5.22,4.97 5.01,2.72 3.16,1.08 6.64,2.15l-1.07 -8.36c-6.12,3.4 -3,2.55 -10.78,1.24z"/>
   <path class="fil82" d="M368.05 241.8l0.74 -5.61c-4.33,-9.57 5.68,1.09 -3.94,-3.69 -2.9,5.01 -2.6,4.17 -5.04,8.33l8.25 0.97z"/>
   <polygon class="fil79" points="175.63,154.52 182.7,154.06 181.89,145.91 177.02,146.58 "/>
   <path class="fil83" d="M255.1 107.48c7.83,-7.91 4.07,0.88 5.8,-11.58l-6.04 2.36 0.24 9.23z"/>
   <path class="fil84" d="M187.6 160.65l9.64 -0.53c-0.08,-11.15 0.84,-1.21 -4.38,-5.46l-5.26 5.98z"/>
   <path class="fil85" d="M338.14 37.8c-0.07,-13.64 0.74,-3.18 -3.21,-6.46l-3.2 4.99 6.41 1.47z"/>
   <path class="fil86" d="M209.63 18.44c1.91,-16.12 -2.59,-1.77 7.15,-5.55 0,-5.1 1.02,-3.67 -4.45,-2.4l-2.7 7.95z"/>
   <path class="fil51" d="M211.41 136.68l-1.78 -0.6 5.26 4.17c1.97,-6.92 0.89,-0.21 -3.48,-3.57z"/>
  </g>
 </g>
</svg>
