<?xml version="1.0" encoding="UTF-8"?>
<!DOCTYPE svg PUBLIC "-//W3C//DTD SVG 1.1//EN" "http://www.w3.org/Graphics/SVG/1.1/DTD/svg11.dtd">
<!-- Creator: CorelDRAW 2021 (64-Bit) -->
<svg xmlns="http://www.w3.org/2000/svg" xml:space="preserve" width="22.2814mm" height="18.9821mm" version="1.1" style="shape-rendering:geometricPrecision; text-rendering:geometricPrecision; image-rendering:optimizeQuality; fill-rule:evenodd; clip-rule:evenodd"
viewBox="0 0 715.12 609.23"
 xmlns:xlink="http://www.w3.org/1999/xlink"
 xmlns:xodm="http://www.corel.com/coreldraw/odm/2003">
 <defs>
  <style type="text/css">
   <![CDATA[
    .fil82 {fill:#1B0C0C}
    .fil1 {fill:#241314}
    .fil78 {fill:#250C0B}
    .fil48 {fill:#2B1314}
    .fil16 {fill:#2C1A1C}
    .fil6 {fill:#341B1B}
    .fil22 {fill:#341C23}
    .fil47 {fill:#38261A}
    .fil63 {fill:#441C1B}
    .fil53 {fill:#442324}
    .fil81 {fill:#46261A}
    .fil39 {fill:#482629}
    .fil31 {fill:#483529}
    .fil28 {fill:#502F1C}
    .fil58 {fill:#534F51}
    .fil43 {fill:#54472E}
    .fil35 {fill:#582C45}
    .fil72 {fill:#583728}
    .fil54 {fill:#5B2C33}
    .fil36 {fill:#5C2C44}
    .fil33 {fill:#632C44}
    .fil26 {fill:#662E47}
    .fil85 {fill:#66352B}
    .fil40 {fill:#663548}
    .fil91 {fill:#6A6666}
    .fil49 {fill:#6C333B}
    .fil59 {fill:#6C3344}
    .fil79 {fill:#6F514A}
    .fil89 {fill:#736D6D}
    .fil21 {fill:#74333D}
    .fil74 {fill:#743442}
    .fil55 {fill:#753A44}
    .fil90 {fill:#764838}
    .fil71 {fill:#784448}
    .fil24 {fill:#793C52}
    .fil88 {fill:#7A7878}
    .fil62 {fill:#7B333D}
    .fil11 {fill:#7C3543}
    .fil64 {fill:#7C3A43}
    .fil83 {fill:#7C4455}
    .fil69 {fill:#823642}
    .fil67 {fill:#833A44}
    .fil17 {fill:#834255}
    .fil29 {fill:#85373C}
    .fil73 {fill:#884447}
    .fil87 {fill:#898686}
    .fil32 {fill:#8C4A5D}
    .fil66 {fill:#8E574B}
    .fil0 {fill:#914C62}
    .fil23 {fill:#933E46}
    .fil41 {fill:#934244}
    .fil15 {fill:#93444B}
    .fil38 {fill:#944C5E}
    .fil70 {fill:#948FAC}
    .fil56 {fill:#9A4747}
    .fil9 {fill:#9A4E5D}
    .fil13 {fill:#9D515E}
    .fil60 {fill:#9F9AC8}
    .fil18 {fill:#A4525D}
    .fil46 {fill:#A54D57}
    .fil42 {fill:#A74949}
    .fil86 {fill:#AA6E50}
    .fil92 {fill:#AAA6A8}
    .fil10 {fill:#AB5460}
    .fil7 {fill:#AC545C}
    .fil45 {fill:#B35555}
    .fil25 {fill:#B3565C}
    .fil75 {fill:#B5595C}
    .fil80 {fill:#B6B4CA}
    .fil4 {fill:#BB565A}
    .fil5 {fill:#BB5A5B}
    .fil37 {fill:#BC5A55}
    .fil34 {fill:#C45B56}
    .fil20 {fill:#C45C5A}
    .fil65 {fill:#C4645B}
    .fil68 {fill:#C8885A}
    .fil51 {fill:#C97764}
    .fil3 {fill:#CA5E59}
    .fil84 {fill:#CA8B65}
    .fil12 {fill:#CB5C55}
    .fil19 {fill:#CD615A}
    .fil2 {fill:#CE6156}
    .fil76 {fill:#D07650}
    .fil61 {fill:#D68E56}
    .fil30 {fill:#DA9668}
    .fil77 {fill:#E3DBDB}
    .fil14 {fill:#E47A45}
    .fil44 {fill:#E68B54}
    .fil27 {fill:#EBA85B}
    .fil50 {fill:#EFAE66}
    .fil57 {fill:#F4F3F2}
    .fil52 {fill:#F6F6F6}
    .fil8 {fill:#F9F7F7}
   ]]>
  </style>
 </defs>
 <g id="Capa_x0020_1">
  <metadata id="CorelCorpID_0Corel-Layer"/>
  <g id="_2034709851776">
   <path class="fil0" d="M87.6 465.42l15.22 36.2c8.7,-12.35 5.09,0.45 13.04,12.24 11.17,16.56 1.08,7.42 13.27,1.87 1.66,28.83 -3.83,22.28 15.16,41.66 60.83,62.06 90.41,34.86 146.31,42.57l-4.76 -9.37c-0,0 -77.58,26.71 -111.65,-27.1 -5.41,-8.54 -8.4,-18.98 3.74,-22.97l9.38 -0.33c-8.24,-23.85 -18.9,-18.72 -23.84,-54.13 -0.53,-0.94 -1.71,0.37 -3.57,-9.65 -1.22,-6.58 -1.28,-11.98 -1.57,-18.98l10.98 -26.18c1.59,5.27 0.78,4.86 1.51,9.95l26.84 0.21c-0.68,-0.91 -1.91,-1.84 -2.42,-2.38 -11.66,-12.52 -7.4,-3.53 -8.72,-25.13l-14.65 -1.8c-15.17,-2.41 -11,2.5 -22.01,5.14 -38.18,9.16 -45.31,-37.8 -54.95,-53.82 -17.16,-28.52 -4.3,-6.33 -22.37,-24.23 -9.97,4.66 -0.35,-1.76 -9.28,4.66 -6.5,4.68 -1.93,1.4 -5.88,7.12 17.09,12.19 22.05,-5.24 28.97,77.02 -6.27,6.13 -13.09,9.59 -20.52,16.37 5.16,3.46 7.01,5.05 15.35,9.33 14.21,7.3 7.69,9.53 7.76,8.93 0.09,-0.7 -0.62,2.09 -1.36,2.81z"/>
   <path class="fil1" d="M156.03 75.17l-82.45 71.09c-6.92,4.61 0.16,1.21 -6.95,3.9 -11.53,28.63 -35.42,23.89 -57.56,102.94 -8.8,31.42 -19.68,114.81 12.94,131.13 23.37,-11.87 20.06,-59.06 54.35,-74.02l-0.59 15.76 9.08 -21.4c5.13,-7.67 9.41,-8.43 19.33,-8.23l10.86 31.96c13.06,-5.56 17.65,-12.32 27.05,-19.78 4.23,-18.72 5.29,-14.04 22.03,-26.03 2.01,-5.69 -0.88,-1.95 5.96,-6.98 0.22,-0.16 10.6,-5.43 10.77,-5.49 11.26,-3.71 14.47,-7.64 18.24,2.61 10.57,-4.53 7.29,-3.16 14.83,-6.94 7.05,-11.18 8.21,-15.51 23.13,-20.54 4.42,-5.02 13.52,-10.97 -5.99,-9.43 -34.51,33.96 -26.58,21.44 -44.36,24.06 -3.5,0.51 -12.97,4.4 -18.68,5.29l28.95 -44.04 77.89 -124.47 -11.91 96.06c-1.2,-27.78 17.55,-78.55 18.69,-118.63 -2.09,2.68 -6,3.07 -8.7,5.47 -9.41,24.69 -24.19,37.77 -29.74,55.49 -7.29,15.73 -15.54,26.6 -24.06,39.62l-28.41 34.62 0.33 -0.3c-4.15,17.54 -2.54,8.91 -7.03,11.79 -3.5,14.25 -18.84,40.61 -31.32,47.23l-30.57 43.21c-4.09,6.07 5.24,5.85 -4.3,4.71l-7.39 -26.71c-20.15,-1.21 -30.85,5.67 -42.36,14.62 -14.3,11.11 -10.11,14.08 -21.38,26.97l-16.15 30.14c-5.37,-44.82 2.22,-117.44 26.76,-145.58l6.07 -15.31 -14.94 10.21 0.51 -1.28c-11.01,24.72 -20.67,44.78 -25.01,78.96 -2.73,21.49 1.21,82.36 -0.99,90.65 -18.13,-34.07 -20.19,-126.96 9.07,-156.79 5.35,-36.74 64.55,-87.39 94.26,-111.57 8.59,-7 27.32,-21.96 38.3,-27.05 26.25,-22.46 110.85,-77.46 140.44,-75.93l-1.38 24.14c-7.65,31.08 -36.1,166.84 -34.41,190.71l3.42 10.13 4.96 -22.69 8.34 13.11 -1.18 -12.23c-4.55,-8.37 -7.16,-12.3 -5.41,-24.02 2.49,-16.7 2.58,-14.21 10.62,-21.85l46.8 -0.73 -0.13 -4.76 -48.77 -0.21c-3.02,-42.54 30.14,-121.65 20.77,-151.46 -0.28,-0.88 -1.43,-1.38 -1.66,-3.19 -3.08,-24.31 -143.53,67.3 -150.98,71.07z"/>
   <path class="fil2" d="M336.79 163.72l-46.8 0.73 -2.1 12.29c21.73,-8.47 7.19,-0.24 12.07,2.28 15.9,8.2 36.36,7.74 41.02,39.75 5.89,-21.98 1.06,-8.1 32.34,16.27 8.98,7 10.42,5.81 19.22,17.36 4.35,5.71 14.66,19.64 15.23,20.94 0,-30.95 -1.64,-4.53 8.78,-15.75 10.83,-9.43 -1.34,-5.87 12.31,-5.65l4.8 -14.36c30.22,-31.74 87.02,-11.69 102.99,18.5 0.31,-0.53 0.2,-2.26 0.27,-1.84 0.07,0.44 0.3,-1.61 0.41,-1.91 8.18,-20.77 -12.08,4.99 6.92,-12.14 8.49,6.48 3.61,1.68 7.91,10.51l-0.28 5.75c20.77,-1.27 9.22,2.9 14.38,-7.19 -6.62,-16.29 -18.81,-20.53 -34.99,-29.67 -7.47,-4.22 -15.99,-9.01 -20.57,-12.28 -7.05,-5.02 -7.88,-6.21 -15.63,-10.76l0.84 19.4c-13.19,3.13 -58.34,1.48 -66.83,-4.77 -14.94,-1.77 -7.6,0.57 -16.18,-7.21 6.59,-3.29 11.82,-1.94 19.65,-6.59l0.54 -17.02 -10.44 4.29 -1.33 3.58c-1.79,-14.96 -0.26,-18.49 -14.5,-19.42 -2.43,2.31 -2.68,4.3 -11.04,8.81 -0.09,0.05 -7.89,2.82 -8.54,3.05l-18.2 8.06c2.43,-20.29 -0.81,-10.12 12.62,-21.98l-23.49 1.62 -9.72 -3.25c0.94,-5.85 -3.5,-0.55 5.54,-5.64l-3.14 -13.35 -3.84 -6.27c-0.64,0.81 -1.38,1.98 -1.62,2.62 -6.9,19.2 7.69,22.05 -8.6,21.21z"/>
   <path class="fil3" d="M284.77 210.32c7.04,7.91 1.52,1.87 5.05,10.99l4.1 12.59 6.89 -14.2 11.33 5.14c41.01,17.25 -4.9,6 33.51,16.59 1.94,0.54 20.88,2.53 24.56,15.86 3.91,14.15 13.66,-4.9 -1.2,7.31 -3.89,14.81 -7.67,37.19 6.91,51.87 14.42,-0.43 28.3,18.05 29.31,44.61 3.21,-16.21 -2.1,-6.51 11.05,-11.15l-2.59 -42.39 -0.99 -11.99 16.1 14.88c14.06,5.85 8.87,-0.99 16.93,13.2l11.88 4.61c9.95,4.64 3.95,2.99 11.08,2.03 -12.73,-6.54 -6.41,-1.2 -5.44,-20.72 -3.03,-4.97 -3.33,-6.02 -8.84,-9.95l16.95 0.46c-16.83,-10.67 -24.76,-8.48 -33.49,-23.6 -6.83,-4.2 -5.7,8.84 -5.75,-5.81 -0.73,0.66 -1.48,1.89 -1.85,2.31 -4.16,4.73 0.43,8.7 -12.62,6.78l-1.09 -22.16c-10.42,11.21 -8.78,-15.21 -8.78,15.75 -0.57,-1.3 -10.88,-15.23 -15.23,-20.94 -8.8,-11.55 -10.23,-10.36 -19.22,-17.36 -31.28,-24.37 -26.45,-38.25 -32.34,-16.27 -4.67,-32.01 -25.12,-31.55 -41.02,-39.75 -4.88,-2.52 9.66,-10.75 -12.07,-2.28l2.1 -12.29c-8.04,7.64 -8.13,5.15 -10.62,21.85 -1.75,11.72 0.86,15.64 5.41,24.02z"/>
   <path class="fil4" d="M235.5 114.29c-12.94,7.47 -9.98,8.53 -16.02,20.95 -7.71,15.85 5.12,-0.3 -4.35,7.13 -11.29,4.13 -18.56,-20.08 -36.95,-24.84l1.74 -16.8c-16.07,11.78 -49.52,35.97 -57.82,52.18 0.01,8.84 -0.42,4.31 5.58,9.66 54.04,48.2 8.65,33.7 40.87,50.37 6.8,-2.33 1.51,0.44 8.07,-7.17 5.24,-6.1 8.99,-9.87 12.29,-13.18l-39.84 64.7c-2.47,16.04 -2.54,9.5 -10.91,22.89l-13.71 19.57c3.38,10.02 6.09,6.81 -2.32,11.36l30.57 -43.21c4.03,-12.82 19.54,-40.61 31.32,-47.23l7.03 -11.79 -0.33 0.3 44.68 -67.28c4.5,-5.34 2.51,-2.71 7.78,-6.96 5.56,-17.72 20.33,-30.8 29.74,-55.49 5.95,-12.23 11.11,-17.2 12.9,-29.06l-4.28 3.44c-7.99,7.85 6.93,-8.72 -3.92,4.11l-39.18 54.95c-0.38,-0.79 -1.96,0.93 -2.94,1.39z"/>
   <path class="fil5" d="M257.52 306.61c-0.49,0.83 -1.17,1.27 -1.36,2.55 -0.18,1.18 -1.08,1.96 -1.31,2.33 -0.35,0.56 -1.6,2.65 -2.44,3.72 -3.53,9.21 -8.05,10.98 -9.24,19.93 -0.63,4.71 3.81,20.26 4.85,25.23 7.56,36.03 2.56,16.27 21.68,38.52l11.86 -3.22c6.08,-1.79 3.3,-0.43 7.3,-3.13l-0.17 31.52c1.07,0.35 2.27,-0.07 2.43,0.75 1.67,9 5.04,-6.01 5.04,9.41 -0,11.34 -1.7,14.72 0.26,29.15l9.34 38.2c6.23,0 4.28,1.4 4.63,-5.44 -5.75,-60.91 -2,-64.79 6.59,-113.44l5.57 -27.23c4.31,-9.97 -0.61,-2.31 5.07,-7.84 -4.81,-19.77 -11.29,-28.49 -24.36,-36.67l-14.09 7.51c12,2.03 7.64,0.09 14.15,8.62 -3.24,8.29 1.77,2.89 -5.32,8.1l-21.85 -6.06 -0.12 -21.02 10.66 -2.39 -0.74 -1.33 -28.44 2.24z"/>
   <path class="fil6" d="M460.54 383.45c-10.68,-0.85 -5.94,-5.74 -11.2,0.02l-0.56 7.13 -0.32 34.79c0.43,11.31 1.08,2.7 -4.16,5.57 -8.78,-8.16 -7.35,-10.07 -19.68,-18.01l0.49 -13.94 2.77 -8.47c-3.13,-8.1 -4.37,-2.76 -4.79,-11.75l8.32 -51.89 16.69 12.39c11.38,8.81 8.4,3.54 10.91,20.49l14.99 -6.5c-5.56,12.93 -10.36,15.62 -13.46,30.17zm-129.97 -68.07c8.58,4.68 7.95,6.44 15.94,11.95 7.77,5.35 8.56,2.75 14.61,8.7 24.9,-2.92 8.8,-2.64 11.6,6.54l3.6 36.85c7.02,6.73 4.3,-1.01 6.34,11.74 1.94,12.12 0.2,8.43 -2.02,17.25 -1.01,13.92 1.17,23.49 5.64,36.5 5.84,17 5.88,18.95 22.05,23.8 30.6,9.18 46.16,-1.3 54.85,-24.49l0.22 -15.12 -0.01 -1c-1.32,0.31 -4.65,1.5 -5.09,1.49 -0.35,-0.01 -1.77,-0.1 -2.13,-0.14l-4.5 -1.34c-0.7,-8.26 -1.94,-16.3 -0.47,-24.61l9.32 -20.06 16.99 -0.91 -13.07 17.15c7.77,8.79 3.43,-0.72 3.32,14.07 9.89,-4.66 6.15,1.8 9.98,-13.44 0.07,-0.28 0.1,-1.34 0.17,-1.62 0.08,-0.29 0.3,-1.34 0.39,-1.64 4.09,-12.97 6.27,1.23 3.15,-15.08 -4.33,-22.69 3.1,16.29 -1.89,-5.28l1.83 -20.44c0.56,-1.46 0.99,-5.06 1.34,-4.5 4.99,7.81 2.28,-6.89 2.89,-8.1l-21.73 0.26c-2.33,-7.91 -2.78,-9.11 -6.33,-15.67l-11.88 -4.61c-9.72,-9.53 -4.43,-5.78 -16.93,-13.2l-16.1 -14.88 0.99 11.99c2.51,1.69 5.06,2.4 9.07,6.87 1.63,16.46 1.35,29.67 -6.44,42.11 1.1,17.35 0.01,8 -1.24,18.42 -0.54,4.51 -1.5,0.5 -0.25,7.01 0.18,0.96 1.39,3.93 1.72,4.77l-3.92 7.48c-5.5,11.9 -4.3,18.56 -2.58,35.78l8.89 0.55 9.93 -5.04c-3.41,19.24 -5.3,9.98 1.8,24.33l26.11 -8.65c-5.23,17.88 -9.11,17.32 -20.6,27.08l-20.67 -4.83c-17.67,-3.99 -11.92,1.09 -17.54,-12.69 -5.72,-7.8 -9.06,-23.46 -8.74,-40.47 -5.61,-8.34 -6.64,-52.27 -10.98,-69.48 -4.59,-18.15 -8.71,-16.09 -14.24,-26.25 -4.53,-8.32 -6.71,-30.5 -7.15,-31.34 -4.04,16.16 -8.95,29.78 0.59,41.45 -20.24,-10.47 -14.33,-35.5 -19.98,-31.29l-10.88 -19.52c-0.08,23.15 -2.71,19.74 3.99,41.53z"/>
   <path class="fil7" d="M198.1 368.97l-3.44 14.82c15.86,2.62 10.73,10.45 14.5,25.65 1.51,6.1 6.74,21.39 10.38,27.44l17.92 1.26c5.74,-0.35 11.83,-2.02 15.67,-1.86 10.79,0.44 -3.84,2.78 14.81,2.53 4.28,-22.93 8.32,-26.18 13.63,-43.14l-11.86 3.22c-19.12,-22.25 -14.12,-2.49 -21.68,-38.52 -1.04,-4.97 -5.48,-20.52 -4.85,-25.23 1.19,-8.95 5.72,-10.71 9.24,-19.93 -23.81,7.88 -39.79,36.39 -54.32,53.77z"/>
   <path class="fil8" d="M485.47 281.5c-2.92,-3.78 -9.2,3.28 -0.57,-13.23l0.57 13.23zm-51.8 -43.9l-4.8 14.36c5.14,9.26 9.3,15.24 14.56,23.06l60.97 30.56c25.04,-2.09 25.19,-14.29 23.49,-39.47 -2.83,-16.97 -15.6,-26.73 -33.66,-33.68 -25.77,-9.92 -39.01,-1.24 -60.54,5.18z"/>
   <path class="fil9" d="M75.78 325.95c-1.47,5.4 -2.29,9.66 -3.21,13.23 18.07,17.9 5.2,-4.28 22.37,24.23 9.64,16.03 16.77,62.98 54.95,53.82 11.02,-2.64 6.84,-7.55 22.01,-5.14l14.65 1.8c1.31,21.6 -2.94,12.61 8.72,25.13 0.51,0.55 1.74,1.48 2.42,2.38 4.88,0.87 14.82,3.28 19.44,3.32 7.41,0.06 4.14,0.85 11.02,-1.24 12.99,-3.96 0.76,4.79 9.31,-5.35l-17.92 -1.26c-3.65,-6.04 -8.87,-21.33 -10.38,-27.44 -3.77,-15.19 1.36,-23.03 -14.5,-25.65l-9.15 8.27c-3.91,2.49 -0.03,1.25 -7.23,1.82 0.64,-12.16 5.05,-19.18 10.24,-25.55 -2.36,11.56 -5.75,6.84 -26.99,26.22 -0.89,0.73 -1.96,1.75 -2.65,2.2 -19,12.21 -36.98,7.19 -41.48,-10.06 -3.61,-13.84 -6.24,-51.63 -2.36,-58.41l-10.86 -31.96c-9.92,-0.21 -14.2,0.56 -19.33,8.23l-9.08 21.4z"/>
   <path class="fil10" d="M290.61 599.97l40.18 -9.29c11.86,-9.22 19.85,-9.77 31.68,-21.94 -24.4,6.24 -55.29,8.43 -80.6,5.32 -30.18,-3.71 -44.84,-14.54 -64.38,-18.17l-30.16 -15.7 -9.38 0.33c-12.14,3.99 -9.15,14.43 -3.74,22.97 34.07,53.81 111.65,27.1 111.65,27.1l4.76 9.37z"/>
   <path class="fil11" d="M285.82 50.39c-1.79,11.86 -6.95,16.83 -12.9,29.06 2.7,-2.4 6.61,-2.79 8.7,-5.47 -1.14,40.08 -19.88,90.85 -18.69,118.63 -1.46,13.45 7.56,3.2 -4.58,11.59 -10.57,7.3 -0.53,-18.95 -28.09,-7.97 -8.27,3.3 -4.21,1.5 -9.81,8.37 -13.75,16.84 -0.04,8.68 -23.49,16.42l-28.95 44.04c5.71,-0.9 15.17,-4.78 18.68,-5.29 17.78,-2.61 9.85,9.91 44.36,-24.06l14.13 -4.98 7.11 13c5.91,-12.23 0.66,-4.44 3.23,-12.9l6.78 -17.14 6.93 8.3c-1.69,-23.87 26.76,-159.63 34.41,-190.71 -7.99,7.33 -3.74,5.26 -8.92,11.47 -6.41,7.68 -2.3,3.91 -8.89,7.63z"/>
   <path class="fil12" d="M457.6 328.25c3.55,6.55 4,7.75 6.33,15.67l21.73 -0.26c0.73,1 1.97,1.13 2.23,2.96 0.25,1.77 1.62,2.27 1.92,3.05 1.58,4.06 2.04,5.67 2.76,10.26l5.72 9.58c12.79,-4.14 7.34,-7.67 23.14,-15.25l12.18 13.61c25.77,-11.47 22.76,10.39 28.42,17.37l8.64 -2.83 11.18 -3.27 -0.33 18.45c12.9,-8.68 12.39,-10.59 19.75,-21.35 3.79,-10.04 5.75,-10.45 11.24,-18.61l6.75 0.86c17.76,-3.32 5.73,-3.58 8.02,8.71 7.31,-8.2 9.22,12.32 4.64,-13.89l-7.98 -3.33c-21.3,3.97 -31.05,5.3 -49.35,-2.23 -0.62,-0.94 -1.08,-2.36 -1.42,-3.07 -0.34,-0.69 -1.01,-2.17 -1.44,-3 -0.51,-1.02 -2.3,-4.7 -2.89,-5.75 -5.35,-9.52 2.84,-0.84 -6.81,-9.76 -19.39,5.35 -27.82,30.21 -51.53,2.69l-26.16 -5.86c-18.98,-5.57 -3.47,-4.9 -21.12,-13.43 -0.97,19.52 -7.29,14.18 5.44,20.72 -7.13,0.96 -1.14,2.61 -11.08,-2.03z"/>
   <path class="fil13" d="M63.12 223.26l-3.03 18.32 -6.38 23.73 12.25 6.46c0.96,0.49 2.17,0.99 3.18,1.49l7.92 3.87c16.37,7.7 9.89,1.7 22.29,6.15 9.79,3.51 5.65,1.51 11.07,5.83l7.39 26.71c9.54,1.14 0.21,1.36 4.3,-4.71 8.41,-4.54 5.71,-1.34 2.32,-11.36 -1.85,-13.6 1.29,-10.62 9.3,-23.14 -12.31,-9.05 -11.22,-12.04 -13.55,-18.71 -15.34,-43.96 -19.71,-21.72 -21.01,-53.11 0.65,0.84 12.94,-1.95 -1.51,2.45 -8.95,2.73 -3.52,1 -14.73,1.59 3.47,-13.34 -5.83,-4.32 6.79,-13.03l-6.41 0c-7.04,6.57 -4.56,4.91 -9.07,12.17 -1.52,2.45 -3.23,5.62 -4.78,7.84 -6.41,9.19 -2.21,2.92 -6.35,7.44z"/>
   <path class="fil14" d="M627.43 436.74l-34.71 -0.41c-2.72,2.1 4.37,4.17 -5.45,2.02 -23.87,-5.23 2.45,6.14 -6.82,-6.14l-4.9 3.57c7.32,10.72 8.36,6.66 10.95,21.94l3.31 7.68 -9.22 5.57c-3.75,7.15 -1.23,3 -4.98,6.7 -0.49,0.48 -1.63,1.39 -2.17,1.89 -0.52,0.49 -1.68,1.34 -2.18,1.79l1.34 14.52c0.28,0.61 5.08,10.05 5.14,10.17 5.58,12.23 1.69,2.51 4.45,11.69l12.66 0.84c-3.25,-8.76 4.9,-2.63 -6.98,-9.57l3.13 -8.1c0.22,-0.57 0.61,-1.94 0.87,-2.6l11.38 -17.49 6.7 -17.86c16.77,-10.5 18.6,-10.63 41.74,-7.63 -5.43,-17.77 -2.39,-3.02 3.75,-9.62 20.99,2.14 43.21,2.39 42.72,27.42 -4.1,12.07 -5.98,20.93 -10.22,34.88 21.04,-12.01 25.73,-51.45 5.28,-69.36 -22.93,-20.08 4.65,8.46 -22.92,-8.81 -18.63,-11.68 -8.53,-10.39 -36.72,-5.31 1.27,30.67 -6.1,12.23 -6.15,12.21z"/>
   <path class="fil15" d="M272.08 30.51l-109.85 66.57 -90.1 72.86c-5.38,6.8 -0.37,-0.64 -5.37,9.62l16.82 0.07 -0.27 16.18 6.41 0 15.08 -30.17c10.84,-9.34 5.48,-6.67 17.28,-12.74 8.31,-16.21 41.75,-40.4 57.82,-52.18 21.07,-9.37 54.65,-33.08 78.97,-46.4l4.32 7.96c0.08,-0.07 7.18,-6.42 7.37,-6.6 2.9,-2.91 3.47,-3.88 6.16,-6.91 10.52,-11.82 3.97,-14.73 9.4,-4.1l7.58 -13.57c-7.87,-12.5 -12.36,-8.1 -21.64,-0.59z"/>
   <path class="fil16" d="M275.67 463.7c0.64,8.46 -2.05,3.39 1.22,8 4.05,4.95 2.38,1.22 5.23,9.29 2.7,7.67 0.56,1.03 1.41,6.16 0.08,0.5 -0.45,10.4 -0.46,10.5l-14 10.73c-0.78,0.42 -1.9,0.87 -2.68,1.28 -39.96,20.47 -23.89,9.96 -61.65,17.26l-20.04 -13.92c-0.56,-0.27 -2.44,0.18 -2.86,-1.01 -0.42,-1.21 -1.93,-0.67 -2.92,-0.92 6.23,24.49 23.47,26.34 38.57,44.84 19.53,3.62 34.2,14.46 64.38,18.17 25.31,3.11 56.2,0.92 80.6,-5.32 9.75,-2.41 20.67,-8.28 28.4,-12.05l16.82 -9.44c-4.77,-4.39 -1.38,-1.91 -8.01,-5.6 -0.92,-0.51 -6.62,-2.36 -7.88,-2.86 12.65,-5.38 23.99,-11.11 33.96,-18.24l20.42 -5.83c-1.16,18.42 0.81,18.29 -10.43,30.07l-6.54 14.82c-7.74,3.22 -1.17,1.25 -12.48,2.89l-0.33 8.73c23.6,-7.94 24.82,-25.65 33.9,-36.19l0.27 -24.2c-20.14,-5.61 -48.29,18.54 -69.13,25.13 7.98,16.44 -3.97,5.57 14.17,13.1 -61.51,24.19 -142.73,34.83 -193.73,-18.33 41.62,0.65 52.76,-0.86 80.5,-19.83 5.01,-5.96 -6.38,-4.54 6.16,-5.07l0.52 16.81 0.35 11.01c13.52,-10.69 4.96,3.74 6,-15.93 0,-0.03 -2.23,-11.04 -2.22,-16.07l2.66 -12.34c-3.68,-6.12 -0.4,5.58 -3.55,-8.78 -0.29,-1.34 -0.93,-5.74 -1.06,-7.37 -0.77,-9.76 0.17,-14.52 0.99,-23.94 -14.11,2.24 -6.39,-1.38 -9.95,7.82 -2.03,9.73 2.66,6.97 -6.58,6.63z"/>
   <path class="fil5" d="M213.91 265.68c-7.54,3.77 -4.26,2.41 -14.83,6.94 -18.85,6.27 -19.13,11.01 -16.71,35.6l14.84 3.96c0.75,0.12 1.97,0.28 2.71,0.36 14.48,1.55 14.8,-3.57 31.88,-0.59 14.49,-2.04 9.61,-5.19 25.73,-5.34 0.61,-0.77 1.44,-3.07 1.78,-2.34 0.34,0.71 1.51,-1.81 1.97,-2.13 6.2,-4.24 1.37,-1.56 8.13,-4.24 13.96,-19.07 11.1,-14.36 8.14,-41.64 -14.17,6.77 -11.45,5.17 -16.16,22.9 -12.35,-21.45 6.14,-17.58 -47.48,-13.47z"/>
   <path class="fil11" d="M536.66 256.1c3.22,9.62 10.05,62.56 2.26,54.11 -1.68,1.48 -5.79,4.44 -8.82,6.19 -0.98,0.56 -3.33,2.8 -4.1,1.73 -0.83,-1.14 -2.99,1.06 -4.48,1.59 4.14,3.31 -1.09,5 8.15,6.66 -17.89,-1.14 -7.92,-2.07 -19.15,2.47 23.71,27.52 32.14,2.66 51.53,-2.69 9.64,8.92 1.46,0.23 6.81,9.76 0.59,1.05 2.38,4.73 2.89,5.75 0.42,0.84 1.1,2.31 1.44,3 0.34,0.7 0.8,2.12 1.42,3.07 8.02,-5.49 17.25,0.53 23.26,-19.07 -16,3.31 -29.59,20.77 -21.14,-14.94 6.11,-25.85 9.84,-32.23 -0.8,-58.64l-1.67 -9.95 -7.99 4.15c-5.15,10.09 6.4,5.92 -14.38,7.19l0.85 30.41c-1.32,-3.83 -4.86,-14.82 -5.29,-19.57 -2.65,-28.94 -4.86,-8.51 4.72,-16.59 -4.29,-8.84 0.58,-4.04 -7.91,-10.51 -18.99,17.13 1.26,-8.63 -6.92,12.14 -0.12,0.3 -0.34,2.35 -0.41,1.91 -0.07,-0.42 0.04,1.3 -0.27,1.84z"/>
   <path class="fil17" d="M281.56 395.65c-5.31,16.96 -9.35,20.21 -13.63,43.14 -18.64,0.25 -4.02,-2.09 -14.81,-2.53 -3.84,-0.16 -9.94,1.51 -15.67,1.86 -8.56,10.14 3.68,1.39 -9.31,5.35 -6.88,2.1 -3.61,1.3 -11.02,1.24 -4.62,-0.04 -14.56,-2.46 -19.44,-3.32l-26.84 -0.21c-0.73,-5.08 0.08,-4.68 -1.51,-9.95l-10.98 26.18c13.46,-4.42 54.65,13.02 103.74,5.13l13.59 1.14c9.24,0.34 4.54,3.09 6.58,-6.63 -6.03,-5.21 -5.36,-3.49 -5.29,-16.78 0.04,-8.53 1.58,-11.87 4.92,-18.96l10.32 27.92c-0.82,9.42 -1.75,14.18 -0.99,23.94 0.13,1.63 0.77,6.02 1.06,7.37 3.15,14.36 -0.13,2.66 3.55,8.78l0.59 -25.96c-1.96,-14.43 -0.26,-17.81 -0.26,-29.15 0,-15.42 -3.37,-0.41 -5.04,-9.41 -0.15,-0.82 -1.36,-0.4 -2.43,-0.75l0.17 -31.52c-4,2.69 -1.22,1.33 -7.3,3.13z"/>
   <path class="fil18" d="M89.73 195.81c-12.61,8.71 -3.32,-0.31 -6.79,13.03 11.21,-0.59 5.78,1.14 14.73,-1.59 14.45,-4.4 2.16,-1.6 1.51,-2.45 1.29,31.39 5.67,9.15 21.01,53.11 2.33,6.67 1.24,9.66 13.55,18.71 4.15,-9.16 0.63,-4.15 5.7,-10.5 6.65,-8.32 7.35,-6.94 9.63,-8.83l6.7 -24.05c-14.92,2.61 -4.4,3.55 -13.02,-3.41l-9.32 -12.13c6,-5.6 1.1,-7.34 11.48,-5.5l-40.09 -46.55 -15.08 30.17z"/>
   <path class="fil19" d="M179.91 100.72l-1.74 16.8c18.39,4.76 25.67,28.97 36.95,24.84 9.47,-7.43 -3.36,8.72 4.35,-7.13 6.04,-12.42 3.08,-13.48 16.02,-20.95 7.54,-14.83 24.7,-42.6 27.7,-52l-4.32 -7.96c-24.32,13.32 -57.9,37.03 -78.97,46.4z"/>
   <path class="fil20" d="M303.43 282.13l2.36 5.65 3.62 8.6c14.58,-6.42 8.14,-8.51 17.17,-22.52l-1.23 -5.87c15.96,-9.28 3.69,16.02 19.35,-12.46 -2.53,32.5 -0.28,8.85 6.2,16.37l18.1 -7.28c14.86,-12.21 5.11,6.84 1.2,-7.31 -3.68,-13.33 -22.62,-15.33 -24.56,-15.86 -38.41,-10.59 7.5,0.66 -33.51,-16.59l-11.33 -5.14 -8.87 48.02c-0.14,0.22 -0.81,1.3 -0.99,2.03l12.48 12.37z"/>
   <path class="fil21" d="M196.96 221.02c23.44,-7.74 9.74,0.42 23.49,-16.42 5.6,-6.87 1.54,-5.07 9.81,-8.37 27.56,-10.98 17.52,15.27 28.09,7.97 12.14,-8.39 3.12,1.86 4.58,-11.59l11.91 -96.06 -77.89 124.47z"/>
   <path class="fil22" d="M294.04 608.17c16.72,-5.04 35.36,-7.6 52.98,-13.05 17.29,-5.34 32.6,-14.07 45.9,-20.11 -6.9,-5.88 12.11,-16.12 -16.7,-1.39 -5.43,2.78 -7.94,4.89 -13.72,6.95 -10.76,3.83 -20.95,6.32 -31.71,10.11l-40.18 9.29c-55.9,-7.72 -85.48,19.48 -146.31,-42.57 -18.99,-19.38 -13.51,-12.83 -15.16,-41.66 -12.19,5.55 -2.11,14.7 -13.27,-1.87 -7.95,-11.79 -4.34,-24.59 -13.04,-12.24 31.96,81.07 82.01,114.15 191.22,106.55z"/>
   <path class="fil23" d="M269.22 222l-6.93 -8.3 -6.78 17.14c-2.57,8.46 2.68,0.67 -3.23,12.9l3.79 11.77c-23.74,6.7 -17.71,0.14 -20.23,-1.18 -0.15,-0.66 -0.72,-1.67 -0.72,-1.91l1.92 -7.27c-14.92,5.03 -16.09,9.36 -23.13,20.54 53.62,-4.11 35.13,-7.98 47.48,13.47 4.71,-17.73 1.99,-16.13 16.16,-22.9 2.95,27.27 5.82,22.57 -8.14,41.64l20.71 -2.2c3.6,-15.33 0.73,-4.18 3.47,-4.87 2.02,-0.5 -3.14,12.94 9.84,-8.7l-12.48 -12.37c0.19,-0.73 0.85,-1.82 0.99,-2.03l8.87 -48.02 -6.89 14.2 -4.1 -12.59c-3.53,-9.12 1.98,-3.08 -5.05,-10.99l1.18 12.23 -8.34 -13.11 -4.96 22.69 -3.42 -10.13z"/>
   <path class="fil7" d="M142.08 308.5c1.05,11.36 1.62,5.64 -5.28,16.15 -4.36,6.63 -4.02,-0.84 -5.09,11.75 -0.03,0.29 -0.01,1.36 -0.03,1.66 -0.65,10.96 -1.33,17.69 3.94,29.47 0.35,0.79 1.01,1.74 1.38,2.51 6.89,14.18 3.5,-10.59 6.23,13.76 19.15,-24.05 17.18,-8.15 22.06,-4.39 4.46,-1.86 0.03,4.04 7.4,-7.03 4.57,-6.85 4.7,-9.18 9.53,-16.7 10.2,-6.7 3.19,-0.29 6.79,-11.09 -11.24,0.28 -10.97,0.48 -28.71,-22.68 -10.37,-13.54 -6.16,-22.46 3.79,-39.44 -16.74,11.98 -17.79,7.3 -22.03,26.03z"/>
   <path class="fil24" d="M158.34 457.42c0.29,7 0.35,12.4 1.57,18.98 1.86,10.02 3.04,8.71 3.57,9.65 19.82,5.84 97.21,-0.84 113.41,-14.36 -3.27,-4.62 -0.58,0.46 -1.22,-8l-13.59 -1.14c-49.1,7.89 -90.29,-9.55 -103.74,-5.13z"/>
   <path class="fil25" d="M164.11 282.48c-9.95,16.99 -14.17,25.9 -3.79,39.44 17.75,23.16 17.47,22.96 28.71,22.68 8.71,-6.09 20.22,-14.85 35.59,-25.21l7.17 -7.44c-17.08,-2.98 -17.4,2.13 -31.88,0.59 -0.74,-0.08 -1.95,-0.24 -2.71,-0.36l-14.84 -3.96c-2.41,-24.59 -2.13,-29.33 16.71,-35.6 -3.77,-10.25 -6.98,-6.32 -18.24,-2.61 -0.17,0.06 -10.55,5.32 -10.77,5.49 -6.84,5.03 -3.95,1.29 -5.96,6.98z"/>
   <path class="fil26" d="M163.48 486.06c4.95,35.42 15.6,30.29 23.84,54.13l30.16 15.7c-15.1,-18.5 -32.34,-20.35 -38.57,-44.84 -8.18,-5.48 -6.64,15.63 -6.64,-13.89l13.4 6.39c33.72,11.37 29.04,-8.03 70.64,-4.86 15.6,1.19 10.72,0.6 26.76,-1.06 0,-0.1 0.54,-9.99 0.46,-10.5 -0.84,-5.12 1.3,1.51 -1.41,-6.16 -2.84,-8.07 -1.18,-4.34 -5.23,-9.29 -16.2,13.52 -93.6,20.2 -113.41,14.36z"/>
   <path class="fil6" d="M523.21 179.85c8.35,5.43 12.37,14.38 17.59,21.43 9.31,12.54 12.29,10.97 17.17,25.94 -10.8,-9.82 -16.28,-11.1 -29.1,-18.23l-5.67 -29.13zm-51.58 -10.6c-10.6,5.39 -3.99,-2.68 -0.62,8.28 3.17,10.3 6.63,7.58 13.23,11.12l10.82 7.92c7.76,4.54 8.59,5.74 15.63,10.76 4.59,3.27 13.1,8.06 20.57,12.28 16.18,9.14 28.38,13.38 34.99,29.67l7.99 -4.15 1.67 9.95 -1.67 -13.32 -6.1 -22.07c-13.4,-7.14 -30.13,-38.04 -41.01,-53.16 -6.94,-9.65 -3.5,-8.63 -17.47,-9.99l1.3 41.89 -39.35 -29.18z"/>
   <path class="fil6" d="M574.61 347.74c18.3,7.53 28.06,6.2 49.35,2.23l22.49 -5.26c2.46,22.66 -11.18,32.71 -23.56,42.49 -13.85,10.93 -4.79,4.27 -22.94,9.72 -28.96,8.69 -15.88,5.59 -23.16,2.48l-3.68 -3.76 -2.58 12.56c20.24,2.27 46.84,-10.22 63.1,-16.52 8.93,-12.92 26.1,-23.75 19.65,-49.63 -16.21,-8.31 -6.11,-3.66 -13.66,-3.52 -7.47,0.13 -18.87,6.4 -39.88,7.18l5.22 -24.17 -5.16 -1.43 -9.46 2.14 -8.14 3.45c1.11,-16.73 4.08,-11.39 6.2,-25.06 1.06,-6.85 0.11,-17.4 0.64,-25.37l-6.28 -18.45 -6.81 -1.71c10.64,26.41 6.91,32.79 0.8,58.64 -8.44,35.71 5.14,18.26 21.14,14.94 -6.01,19.6 -15.25,13.58 -23.26,19.07z"/>
   <path class="fil27" d="M679.79 496.18l-13.68 3.61 -4.92 19.64 -30.68 -2.45c-11.67,-2 -6.61,8.42 -10.51,-1.63 -0.46,-1.17 -2.16,-0.43 -4.11,-0.65l-2.38 -12.64c-7.99,-8.42 -9.4,-6.63 -10.26,-21.26l-11.38 17.49c-0.27,0.66 -0.65,2.03 -0.87,2.6l-3.13 8.1c11.88,6.94 3.73,0.81 6.98,9.57 5.32,3.27 1.63,1.02 4,7.07 16.66,0.16 30.48,8.05 52.4,6.24 9.46,-0.78 16.9,-3.87 22.97,-8.32 5.75,-4.21 11.56,-11.07 13.72,-15.57 4.24,-13.95 6.12,-22.82 10.22,-34.88 -1.25,-0.53 5.85,-3.7 -3.92,0.61 -14.78,6.52 -2.49,19.94 -7.87,5.63 -0.22,-0.58 -1,1.15 -1.66,1.51 2.3,-19.48 0.88,-1.65 -4.2,-9.65l-0.73 24.95z"/>
   <path class="fil18" d="M115.04 328.28c-3.88,6.78 -1.25,44.57 2.36,58.41 4.5,17.25 22.48,22.27 41.48,10.06 0.69,-0.45 1.76,-1.47 2.65,-2.2l3.78 -15.14c-4.88,-3.76 -2.91,-19.66 -22.06,4.39 -2.74,-24.35 0.66,0.43 -6.23,-13.76 -0.38,-0.77 -1.03,-1.72 -1.38,-2.51 -5.27,-11.78 -4.59,-18.51 -3.94,-29.47 0.02,-0.3 0,-1.37 0.03,-1.66 1.07,-12.59 0.73,-5.13 5.09,-11.75 6.91,-10.51 6.34,-4.79 5.28,-16.15 -9.4,7.45 -13.98,14.21 -27.05,19.78z"/>
   <path class="fil28" d="M627.43 436.74c0.05,0.02 7.43,18.46 6.15,-12.21 28.19,-5.08 18.09,-6.37 36.72,5.31 27.57,17.27 -0.01,-11.27 22.92,8.81 20.45,17.91 15.76,57.35 -5.28,69.36 -2.16,4.5 -7.98,11.35 -13.72,15.57 -6.07,4.45 -13.52,7.54 -22.97,8.32 -21.91,1.81 -35.73,-6.09 -52.4,-6.24l4.09 3.65c37.92,22.15 89.73,10.25 106.29,-35.58 22.86,-63.27 -25.76,-61.94 -61.94,-83.41 -1.48,0.7 -3.36,0.2 -4.41,2.15 -3.48,6.53 2.47,4.64 -25.37,3.69 8.08,16.4 6.11,2.11 9.9,20.58z"/>
   <path class="fil29" d="M456.48 192.49c-1.08,-3.12 -22.07,1.57 7.68,-18.85 -2.89,14.88 6.84,4.72 -7.68,18.85zm-3.94 -28.71c2.53,6.26 2.76,-0.03 -0.12,4.51l-18.47 0.61 -0.87 11.48 -0.54 17.02 24.92 -2.02c-6.8,10.5 -0.52,5.82 -11.8,11.46 -5.06,2.54 -10.5,3.11 -16.59,4.35 8.5,6.25 53.64,7.9 66.83,4.77l-0.84 -19.4 -10.82 -7.92c-6.59,-3.54 -10.06,-0.82 -13.23,-11.12 -3.37,-10.96 -9.98,-2.89 0.62,-8.28l-10.86 -12.74c1.58,10.55 3.39,7.28 -8.23,7.28z"/>
   <path class="fil30" d="M310.39 496.13l13.32 -33.6c-0.92,-22.89 7,-27.53 8.25,-50.4 0.92,-16.98 -0.46,-37.03 -3,-53.06l-1.33 -11.45c-5.68,5.54 -0.76,-2.12 -5.07,7.84l-5.57 27.23c-8.59,48.65 -12.35,52.53 -6.59,113.44z"/>
   <path class="fil31" d="M352.41 359.03c-0.44,4.64 -0.34,13.68 -0.74,16.52 -2.3,16.37 -0.83,6.79 -4.82,12.31 -11.61,-4.36 -5.88,12.84 -7.44,-14.54l-3.23 -21.42c0.75,9.79 2.89,7.16 -7.22,7.16 2.55,16.03 3.93,36.08 3,53.06 -1.25,22.87 -9.16,27.51 -8.25,50.4l1.4 6.31c2.03,-14.62 0.92,-8.8 7.38,-15.01 0.44,-12.98 -2.69,-5.33 8.62,-10.39 4.48,-2.01 6.15,-1.13 9.48,-2.39 7.89,-3 4.1,-0.97 9.13,-4.82 -5.94,-4.16 -4.83,6.3 -4.82,-7.27l16.21 -0.3c7.23,0.03 5.01,1.62 5.01,-6.35 -4.36,-5.46 -0.99,-0.66 -8.8,-1.25l-13.16 0.56c-5.2,6.68 -4.8,9.31 -4.99,9.55 -6.49,8.32 5.54,0.35 -7.8,5.4 -8.68,-11.52 -5.9,-6.25 -1.56,-45.38 13.48,4.08 25.37,5.37 32.2,16.9l8.63 0.32c2.22,-8.81 3.95,-5.13 2.02,-17.25 -2.04,-12.75 0.67,-5.01 -6.34,-11.74l1.1 17.42 -20.52 -9.4 3.63 -43.8 12.19 -1.08c-2.8,-9.18 13.3,-9.46 -11.6,-6.54 -10.6,11.77 -7.42,7.03 -8.71,23z"/>
   <path class="fil7" d="M32.01 221.7c6.05,10.33 -1.52,0.18 7.43,-7.46 3.52,-3 -0.21,-2.59 9.5,-5.36l-0.51 1.28c6.46,-19.4 11.85,-16.05 18.33,-30.6 5,-10.25 -0.01,-2.81 5.37,-9.62l90.1 -72.86 7.45 -8.83c-7.62,0.15 -6.18,2.11 -5.11,-5.18 -10.98,5.09 -29.7,20.05 -38.3,27.05 -29.71,24.19 -88.91,74.84 -94.26,111.57z"/>
   <path class="fil32" d="M32.01 221.7c-29.25,29.84 -27.2,122.72 -9.07,156.79 2.2,-8.29 -1.75,-69.16 0.99,-90.65 4.35,-34.19 14,-54.24 25.01,-78.96 -9.71,2.77 -5.99,2.36 -9.5,5.36 -8.94,7.64 -1.38,17.79 -7.43,7.46z"/>
   <path class="fil33" d="M46.69 330.69c-3.78,-6.26 -8.96,8.05 -0.44,-8.31 4.65,-8.94 5.66,-5.48 9.21,-7.75l-13.77 -12.4c1.44,-14.55 8.66,-48.73 18.4,-60.67l3.03 -18.32c-0.76,-9.43 2.09,-7.65 -5.82,-8.01 -24.54,28.14 -32.14,100.76 -26.76,145.58l16.15 -30.14z"/>
   <path class="fil34" d="M164.57 83.07c-1.08,7.29 -2.51,5.32 5.11,5.18 15.71,-10.36 29.72,-22.75 48.86,-32.56 13.39,-6.86 42.98,-21.47 53.54,-25.18 9.28,-7.51 13.76,-11.91 21.64,0.59l-7.58 13.57 -0.32 5.72c6.58,-3.72 2.47,0.04 8.89,-7.63 5.18,-6.2 0.94,-4.14 8.92,-11.47l1.38 -24.14c-29.58,-1.53 -114.19,53.47 -140.44,75.93z"/>
   <path class="fil7" d="M104.81 165.64l40.09 46.55c-10.38,-1.83 -5.48,-0.1 -11.48,5.5l9.32 12.13c8.62,6.96 -1.91,6.02 13.02,3.41 6.27,-3.2 -0.77,6.26 6.32,-5.3 8.06,-13.16 0.9,0.18 6.46,-15 -32.22,-16.67 13.17,-2.17 -40.87,-50.37 -6,-5.35 -5.57,-0.83 -5.58,-9.66 -11.8,6.07 -6.44,3.4 -17.28,12.74z"/>
   <path class="fil35" d="M178.92 511.05c0.99,0.25 2.5,-0.29 2.92,0.92 0.42,1.19 2.29,0.74 2.86,1.01l20.04 13.92c37.76,-7.31 21.69,3.21 61.65,-17.26 0.79,-0.4 1.9,-0.86 2.68,-1.28l14 -10.73c-16.03,1.66 -11.16,2.25 -26.76,1.06 -41.6,-3.17 -36.92,16.23 -70.64,4.86l-13.4 -6.39c0,29.52 -1.53,8.41 6.64,13.89z"/>
   <path class="fil36" d="M427.88 390.54c2.99,-11.93 1.87,-8.6 6.54,-16.36 12.22,10.22 5.04,9.9 12.51,15.55 0.19,0.14 1.28,0.5 1.85,0.88l0.56 -7.13c5.26,-5.76 0.52,-0.88 11.2,-0.02 3.1,-14.55 7.9,-17.24 13.46,-30.17l-14.99 6.5c-2.51,-16.96 0.47,-11.68 -10.91,-20.49l-16.69 -12.39 -8.32 51.89c0.42,8.99 1.66,3.65 4.79,11.75z"/>
   <path class="fil37" d="M375.91 316.49c16.05,36.07 12.66,36.16 11.73,78.44l10.08 0.6c0.74,-0.37 1.77,-1.15 2.58,-1.43 2.33,-0.82 4.18,-0.37 12.31,0.13l3.92 -7.48c-0.33,-0.84 -1.54,-3.81 -1.72,-4.77 -1.25,-6.51 -0.29,-2.5 0.25,-7.01 1.24,-10.41 2.34,-1.07 1.24,-18.42l-0.04 -6.59c-13.15,4.64 -7.84,-5.06 -11.05,11.15 -1.01,-26.56 -14.88,-45.04 -29.31,-44.61z"/>
   <path class="fil38" d="M46.69 330.69c11.27,-12.89 7.08,-15.85 21.38,-26.97 11.51,-8.95 22.21,-15.83 42.36,-14.62 -5.42,-4.32 -1.27,-2.31 -11.07,-5.83 -12.4,-4.45 -5.93,1.55 -22.29,-6.15l-7.92 -3.87c-1.01,-0.5 -2.22,-1 -3.18,-1.49l-12.25 -6.46 6.38 -23.73c-9.74,11.93 -16.97,46.12 -18.4,60.67l13.77 12.4c-3.55,2.27 -4.56,-1.19 -9.21,7.75 -8.51,16.36 -3.33,2.05 0.44,8.31z"/>
   <path class="fil39" d="M87.6 465.42c0.75,-0.72 1.45,-3.51 1.36,-2.81 -0.08,0.6 6.45,-1.63 -7.76,-8.93 -8.34,-4.28 -10.19,-5.87 -15.35,-9.33 7.44,-6.78 14.26,-10.24 20.52,-16.37 -6.92,-82.26 -11.88,-64.83 -28.97,-77.02 3.95,-5.72 -0.62,-2.45 5.88,-7.12 8.92,-6.42 -0.7,-0.01 9.28,-4.66 0.93,-3.57 1.74,-7.83 3.21,-13.23 -8.12,2.48 -5.15,-1.7 -15.84,10.11 -7.5,8.28 -8.39,9.48 -11.28,21.65l24.73 11.86 5.18 54.42c-13.91,12.39 -16.21,7.35 -23.09,20.37 6.31,11.92 15.89,16.11 32.12,21.06z"/>
   <path class="fil22" d="M347.21 133.72l-0.21 6.18 3.84 6.27c22.69,21.55 32.81,10.66 55.97,22.68 14.24,0.93 12.71,4.47 14.5,19.42l1.33 -3.58c2.33,-23.53 -8.09,-46.91 -8.21,-74.03 12.58,9.88 30.89,38.01 38.11,53.13 11.62,0 9.81,3.28 8.23,-7.28 -9.46,-11.9 -32.99,-47.18 -47.24,-50.2 -5.71,23.04 -0.74,35.35 2.39,57.96 -61.41,-17.21 -26.71,-3.33 -68.71,-30.56z"/>
   <path class="fil40" d="M310.39 496.13c-0.36,6.83 1.6,5.44 -4.63,5.44l13.23 -1.53 -0.93 21.5c21.57,-24.39 14.55,-13.17 16.62,-7.95 12.15,-5.62 14.01,-11.02 26.2,-9.75l1.6 -3.26 -2.62 -11.05 5.73 -1.81c-8.66,-3.17 4.05,-4.24 -14.67,0.58 0.57,-1.23 3.42,-7.62 3.82,-8.66l1.66 -7.53c-13.3,7.65 -1.67,5.08 -15.35,6.25 -5.13,0.44 1.62,-11.49 -6.41,6.58 -12.1,0 -10.21,3.41 -8.59,-7.56 -3.45,-3.02 -6.02,5.83 -0.93,-8.54l-1.4 -6.31 -13.32 33.6z"/>
   <path class="fil41" d="M325.35 267.98l9.3 10.55c10.35,6.93 13.42,4.06 22.2,4.68 0.43,0.84 2.62,23.02 7.15,31.34 5.53,10.15 9.66,8.1 14.24,26.25 4.34,17.21 5.37,61.13 10.98,69.48l-1.59 -15.35c0.94,-42.29 4.32,-42.37 -11.73,-78.44 -14.58,-14.68 -10.8,-37.06 -6.91,-51.87l-18.1 7.28c-6.48,-7.52 -8.73,16.13 -6.2,-16.37 -15.66,28.48 -3.4,3.18 -19.35,12.46z"/>
   <path class="fil42" d="M422.63 184.69l10.44 -4.29 0.87 -11.48 18.47 -0.61c2.88,-4.54 2.64,1.75 0.12,-4.51 -7.23,-15.12 -25.53,-43.24 -38.11,-53.13 0.11,27.12 10.54,50.5 8.21,74.03z"/>
   <path class="fil39" d="M371.21 467.12l2.83 5.73c-0.71,9.92 1.27,1.29 -2.83,8.49 -0.43,-0.69 -11.52,5.89 0,-14.22zm-45.16 10.26c-1.62,10.98 -3.5,7.56 8.59,7.56 8.03,-18.07 1.28,-6.14 6.41,-6.58 13.69,-1.17 2.05,1.4 15.35,-6.25l-1.66 7.53c-0.4,1.05 -3.25,7.44 -3.82,8.66 18.72,-4.83 6.01,-3.76 14.67,-0.58l2.01 20.09c-6.69,-7 -1.32,5.79 -5.13,-7.23l-1.6 3.26c1.28,11.48 -5.92,4.63 7.47,9.87 3.39,-6.64 6.48,-22.58 8.82,-31.06 5.14,-18.67 2.5,-24 -14.5,-24.25l-3.41 2.66 3.5 9.85c-4.11,-3.98 -3.9,-3.71 -7.69,-6.04 -0.37,-0.22 -5.37,-1.97 -6.68,-2.3l-0.03 -7.82 -10.25 1.82 -12.08 20.82z"/>
   <path class="fil43" d="M613.51 502.08l2.38 12.64c1.96,0.22 3.66,-0.52 4.11,0.65 3.9,10.05 -1.16,-0.38 10.51,1.63l30.68 2.45 4.92 -19.64 -16.41 -4.97c-8.12,-4.5 -7.09,-4.23 -16.58,-9.5l-19.62 16.75z"/>
   <path class="fil44" d="M623.96 349.97l7.98 3.33c4.59,26.21 2.68,5.69 -4.64,13.89 -5.37,0.4 -3.77,-0 -8.21,5.24 -8.94,-5.04 -5.85,6.95 -7.88,-5.21 -4.81,11.48 2.03,4.2 -9.92,9.01 -7.36,10.76 -6.85,12.67 -19.75,21.35l-4.75 1.82c7.29,3.11 -5.79,6.21 23.16,-2.48 18.15,-5.45 9.09,1.22 22.94,-9.72 12.39,-9.78 26.02,-19.83 23.56,-42.49l-22.49 5.26z"/>
   <path class="fil22" d="M433.66 237.59c21.53,-6.43 34.77,-15.1 60.54,-5.18 18.07,6.95 30.84,16.71 33.66,33.68 11.83,14.36 8.6,23.06 11.04,44.12 7.79,8.44 0.96,-44.49 -2.26,-54.11 -15.98,-30.19 -72.78,-50.24 -102.99,-18.5z"/>
   <path class="fil45" d="M389.23 410.28c-0.32,17.01 3.02,32.68 8.74,40.47 8.16,-8.98 5.43,-6.32 17.75,-9.6l3.23 -10.61 -8.89 -0.55c-1.73,-17.21 -2.92,-23.88 2.58,-35.78 -8.14,-0.49 -9.98,-0.95 -12.31,-0.13 -0.81,0.29 -1.84,1.07 -2.58,1.43l-10.08 -0.6 1.59 15.35z"/>
   <path class="fil46" d="M390.87 556.68c3.75,6.06 -6.14,5.95 7.34,4.03 12.89,-2.82 3.41,5.93 12.64,-7.16 7.85,5.08 2.33,-0.4 5.88,8.94 11.32,-1.64 4.74,0.33 12.48,-2.89l6.54 -14.82c-13.15,-17.7 1.86,7.29 -4.46,-10.56 -2.7,-7.63 -1.58,-6.7 -5.52,-13.68 -9.97,7.13 -21.31,12.86 -33.96,18.24 1.25,0.5 6.95,2.35 7.88,2.86 6.63,3.69 3.24,1.21 8.01,5.6l-16.82 9.44z"/>
   <path class="fil47" d="M614.02 484.96c1.1,-14.87 16.72,-20.05 20.21,-0.16 -10.06,6.8 -6.82,7.11 -20.21,0.16zm-10.77 -4.14c0.86,14.62 2.27,12.83 10.26,21.26l19.62 -16.75c9.48,5.27 8.45,5 16.58,9.5l1.18 -6c-3.02,-4.2 -4.38,3.7 -4.12,-13.44l16.71 -4.16c1.26,-0.06 8.54,0.78 9.21,-0.6 0.61,-1.28 1.97,1.53 3.04,2.18 -4.17,10.45 -5.23,-12.91 -2.68,11.98 0.92,8.99 -5.26,11.4 6.75,11.4l0.73 -24.95 -13.02 -6.77c-7.07,5.78 -16.75,9.93 -27.9,9.27 -5.08,-0.3 -24.85,-8.47 -29.65,-10.76l-6.7 17.86z"/>
   <path class="fil6" d="M471.35 300.07c11.68,5.46 32.34,14.41 43.04,24.25 -3.35,-0.54 -19.01,-4.36 -19.27,-4.39 -16.83,-1.6 -6.02,-2.94 -10.76,3.06l26.16 5.86c11.23,-4.54 1.26,-3.61 19.15,-2.47 -9.25,-1.67 -4.01,-3.36 -8.15,-6.66 -3.61,-4.67 -2.41,-2.6 -7.21,-6.22 -7.35,-5.53 -3.25,-1.26 -9.92,-7.94l-60.97 -30.56 -5.56 1.47c8.72,15.12 16.66,12.93 33.49,23.6z"/>
   <path class="fil48" d="M269.41 297.89c-6.76,2.68 -1.93,0.01 -8.13,4.24 -0.47,0.32 -1.64,2.84 -1.97,2.13 -0.34,-0.72 -1.17,1.57 -1.78,2.34l28.44 -2.24c13.59,1.38 3.98,-0.62 8.22,1.17 9.79,4.12 4.82,1.96 9.09,5.41 13.07,8.18 19.55,16.9 24.36,36.67l1.33 11.45c10.12,0 7.98,2.63 7.22,-7.16 -4.73,-21.62 -3.14,-20.19 -15.32,-37.08 -3.08,-2.31 -4.96,-3.5 -8.6,-6.45 -24.02,-19.4 -7.51,-18.94 -6.47,-20.61l-2.36 -5.65c-12.97,21.64 -7.82,8.19 -9.84,8.7 -2.74,0.69 0.13,-10.46 -3.47,4.87l-20.71 2.2z"/>
   <path class="fil49" d="M336.18 351.91l3.23 21.42c0.91,-1.44 3.73,-6.23 5.49,-8.08 4.38,-4.61 2.78,-2.87 7.51,-6.22 1.28,-15.97 -1.89,-11.23 8.71,-23 -6.05,-5.95 -6.84,-3.35 -14.61,-8.7 -7.99,-5.5 -7.36,-7.27 -15.94,-11.95l-9.71 -0.55c12.19,16.89 10.59,15.46 15.32,37.08z"/>
   <path class="fil9" d="M295.83 489.33l-2.66 12.34c6.61,11.54 5.66,22.33 3.36,37.76 14.19,-7.39 13.98,-7.07 21.53,-17.89l0.93 -21.5 -13.23 1.53 -9.34 -38.2 -0.59 25.96z"/>
   <path class="fil50" d="M651.69 455.34l15.81 9.12 13.02 6.77c5.09,8.01 6.51,-9.83 4.2,9.65 0.65,-0.36 1.44,-2.09 1.66,-1.51 5.38,14.31 -6.91,0.89 7.87,-5.63 9.76,-4.31 2.67,-1.14 3.92,-0.61 0.48,-25.02 -21.73,-25.27 -42.72,-27.42 -6.14,6.61 -9.18,-8.15 -3.75,9.62z"/>
   <path class="fil51" d="M367.33 421.05c-4.48,-1.92 -9.93,7.64 -10.43,-13.24 13.75,-12.34 4.23,-1.69 6.52,-0.67l8.59 0.95c-6.83,-11.53 -18.72,-12.82 -32.2,-16.9 -4.34,39.13 -7.13,33.86 1.56,45.38 13.34,-5.05 1.31,2.92 7.8,-5.4 0.19,-0.24 -0.21,-2.87 4.99,-9.55l13.16 -0.56z"/>
   <polygon class="fil52" points="376.32,379.41 372.72,342.57 360.53,343.64 356.9,387.44 377.42,396.84 "/>
   <path class="fil53" d="M492.58 359.94l-2.11 2.82c0.87,29.62 16.55,9.11 30.97,-0.64l7.9 12.53c12.93,-3.66 4.96,-3.85 20.32,-2.03 2.85,6.39 1.19,10.69 8.32,19.99l17.51 -3.38c2.04,-10.37 4.88,-9.28 -4.81,-6.82l-8.64 2.83c-5.66,-6.98 -2.65,-28.84 -28.42,-17.37l-12.18 -13.61c-15.81,7.58 -10.35,11.11 -23.14,15.25l-5.72 -9.58z"/>
   <path class="fil54" d="M165.31 379.41l-3.78 15.14c21.24,-19.39 24.63,-14.66 26.99,-26.22 -5.19,6.37 -9.6,13.39 -10.24,25.55 7.21,-0.57 3.33,0.68 7.23,-1.82l9.15 -8.27 3.44 -14.82c-3.07,-14.4 -0.05,-5.65 -6.66,-11.77l-9.2 -1.52c-4.83,7.53 -4.97,9.85 -9.53,16.7 -7.37,11.07 -2.94,5.17 -7.4,7.03z"/>
   <path class="fil55" d="M48.43 210.16l14.94 -10.21 -6.07 15.31c7.91,0.35 5.06,-1.42 5.82,8.01 4.15,-4.52 -0.06,1.74 6.35,-7.44 1.54,-2.21 3.25,-5.39 4.78,-7.84 4.5,-7.26 2.03,-5.6 9.07,-12.17l0.27 -16.18 -16.82 -0.07c-6.48,14.55 -11.87,11.2 -18.33,30.6z"/>
   <path class="fil56" d="M353.98 159.52l8.6 1.35 -4.43 7.53 23.49 -1.62c-13.43,11.86 -10.19,1.68 -12.62,21.98l18.2 -8.06c0.65,-0.23 8.45,-3 8.54,-3.05 8.36,-4.51 8.6,-6.5 11.04,-8.81 -23.16,-12.02 -33.28,-1.12 -55.97,-22.68l3.14 13.35z"/>
   <path class="fil43" d="M609.95 462.96c4.8,2.29 24.58,10.46 29.65,10.76 11.15,0.66 20.83,-3.49 27.9,-9.27l-15.81 -9.12c-23.14,-3 -24.97,-2.87 -41.74,7.63z"/>
   <path class="fil57" d="M589.02 275.24c4.98,8.12 1.25,3.99 5.29,13.32 4.97,11.47 2.05,-0.17 6.6,13.69 -11.55,20.15 -7.7,-2.36 -10.58,19.98l9.46 -2.14c8.99,-20.82 10.71,-40.41 -6.32,-62.24 -11.36,-14.55 -8.51,-5.41 -10.73,-1.06l6.28 18.45z"/>
   <path class="fil48" d="M231.79 311.95l-7.17 7.44c-6.43,13.38 -5.64,11.44 -15.7,23.95 -9.3,11.54 -3.87,6.93 -17.48,13.87 6.61,6.11 3.59,-2.64 6.66,11.77 14.53,-17.38 30.51,-45.89 54.32,-53.77 0.83,-1.07 2.09,-3.16 2.44,-3.72 0.23,-0.37 1.14,-1.15 1.31,-2.33 0.19,-1.27 0.87,-1.72 1.36,-2.55 -16.12,0.15 -11.24,3.3 -25.73,5.34z"/>
   <path class="fil58" d="M575.92 255.08l6.81 1.71c2.22,-4.35 -0.63,-13.5 10.73,1.06 17.04,21.82 15.31,41.42 6.32,62.24l5.16 1.43c14.66,-9.84 10.81,-34.38 5.53,-46.95 -8.22,-19.59 -15.06,-25.71 -36.23,-32.8l1.67 13.32z"/>
   <path class="fil59" d="M463.4 428.1c6.61,-13.96 3.72,-6.64 4.38,-14.33 0.11,-14.79 4.45,-5.28 -3.32,-14.07l13.07 -17.15 -16.99 0.91 -9.32 20.06c-1.47,8.31 -0.24,16.34 0.47,24.61l4.5 1.34c0.36,0.04 1.78,0.13 2.13,0.14 0.44,0.01 3.78,-1.18 5.09,-1.49z"/>
   <path class="fil60" d="M504.39 305.56c6.67,6.68 2.58,2.4 9.92,7.94 4.8,3.62 3.6,1.55 7.21,6.22 1.49,-0.54 3.65,-2.73 4.48,-1.59 0.78,1.07 3.12,-1.17 4.1,-1.73 3.03,-1.75 7.14,-4.71 8.82,-6.19 -2.45,-21.06 0.79,-29.76 -11.04,-44.12 1.71,25.18 1.56,37.38 -23.49,39.47z"/>
   <path class="fil61" d="M430.67 449.83l-16.28 2.18 1.12 11.43 20.67 4.83c11.49,-9.76 15.38,-9.21 20.6,-27.08l-26.11 8.65z"/>
   <path class="fil62" d="M463.24 309.56c17.65,8.53 2.14,7.87 21.12,13.43 4.74,-6 -6.07,-4.65 10.76,-3.06 0.26,0.03 15.91,3.85 19.27,4.39 -10.7,-9.85 -31.36,-18.8 -43.04,-24.25l-16.95 -0.46c5.5,3.93 5.81,4.97 8.84,9.95z"/>
   <path class="fil59" d="M362.47 568.74c-11.83,12.18 -19.82,12.72 -31.68,21.94 10.76,-3.78 20.95,-6.27 31.71,-10.11 5.78,-2.06 8.3,-4.18 13.72,-6.95 28.81,-14.73 9.8,-4.49 16.7,1.39l11.63 -8.51c-8.12,-0.41 -6.34,1.85 -6.34,-5.78 -13.47,1.92 -3.59,2.03 -7.34,-4.03 -7.74,3.77 -18.65,9.64 -28.4,12.05z"/>
   <path class="fil63" d="M169.68 88.25l-7.45 8.83 109.85 -66.57c-10.56,3.72 -40.16,18.33 -53.54,25.18 -19.14,9.81 -33.15,22.2 -48.86,32.56z"/>
   <path class="fil64" d="M356.86 283.21c-8.78,-0.62 -11.85,2.25 -22.2,-4.68l-9.3 -10.55 1.23 5.87 10.88 19.52c5.65,-4.21 -0.26,20.83 19.98,31.29 -9.54,-11.67 -4.62,-25.29 -0.59,-41.45z"/>
   <path class="fil64" d="M305.79 287.77c-1.04,1.67 -17.55,1.21 6.47,20.61 3.64,2.94 5.51,4.14 8.6,6.45l9.71 0.55c-6.7,-21.79 -4.07,-18.38 -3.99,-41.53 -9.03,14 -2.58,16.1 -17.17,22.52l-3.62 -8.6z"/>
   <path class="fil65" d="M397.97 450.75c5.61,13.78 -0.13,8.69 17.54,12.69l-1.12 -11.43 16.28 -2.18c-7.1,-14.35 -5.21,-5.09 -1.8,-24.33l-9.93 5.04 -3.23 10.61c-12.31,3.28 -9.58,0.62 -17.75,9.6z"/>
   <path class="fil63" d="M263.2 62.28c-3,9.41 -20.16,37.17 -27.7,52 0.98,-0.46 2.56,-2.18 2.94,-1.39l39.18 -54.95c10.84,-12.83 -4.08,3.74 3.92,-4.11l4.28 -3.44 0.32 -5.72c-5.43,-10.63 1.12,-7.71 -9.4,4.1 -2.7,3.03 -3.26,4 -6.16,6.91 -0.19,0.19 -7.29,6.53 -7.37,6.6z"/>
   <path class="fil53" d="M289.4 533.67c4.63,13.47 2.64,7.63 8.72,12.54 12.8,-6.35 11.71,-7.74 20.89,-15.87 9.95,-8.81 14.07,-6.96 15.67,-16.74 -2.07,-5.23 4.95,-16.44 -16.62,7.95 -7.55,10.81 -7.34,10.5 -21.53,17.89 2.29,-15.43 3.25,-26.22 -3.36,-37.76 -0.01,5.03 2.22,16.04 2.22,16.07 -1.04,19.66 7.53,5.23 -6,15.93z"/>
   <path class="fil66" d="M427.88 390.54l-2.77 8.47 15.13 -2.47c4.93,16.64 -1.35,14.01 8.22,28.85l0.32 -34.79c-0.57,-0.38 -1.66,-0.73 -1.85,-0.88 -7.48,-5.65 -0.29,-5.33 -12.51,-15.55 -4.67,7.76 -3.55,4.43 -6.54,16.36z"/>
   <path class="fil67" d="M416.56 257.6l1.09 22.16c13.05,1.92 8.46,-2.05 12.62,-6.78 0.37,-0.42 1.12,-1.65 1.85,-2.31 0.05,14.65 -1.08,1.61 5.75,5.81l5.56 -1.47c-5.26,-7.82 -9.42,-13.79 -14.56,-23.06 -13.65,-0.22 -1.47,-3.78 -12.31,5.65z"/>
   <path class="fil68" d="M448.46 425.39c-9.57,-14.84 -3.29,-12.21 -8.22,-28.85l-15.13 2.47 -0.49 13.94c12.33,7.93 10.9,9.84 19.68,18.01 5.23,-2.87 4.59,5.74 4.16,-5.57z"/>
   <path class="fil59" d="M189.03 344.6c-3.6,10.8 3.41,4.39 -6.79,11.09l9.2 1.52c13.61,-6.94 8.18,-2.32 17.48,-13.87 10.07,-12.5 9.28,-10.57 15.7,-23.95 -15.37,10.36 -26.89,19.12 -35.59,25.21z"/>
   <path class="fil69" d="M528.88 208.99c12.82,7.14 18.3,8.42 29.1,18.23 -4.89,-14.97 -7.87,-13.4 -17.17,-25.94 -5.23,-7.04 -9.24,-16 -17.59,-21.43l5.67 29.13z"/>
   <path class="fil66" d="M570.63 500.74l1.97 -4.86 -1.34 -14.52c0.5,-0.45 1.66,-1.3 2.18,-1.79 0.54,-0.5 1.68,-1.41 2.17,-1.89 3.76,-3.7 1.24,0.45 4.98,-6.7l-7.4 0.06c-8.27,2.6 -10.43,-1.11 -19.54,-5.42 1.14,14.67 6.95,27.64 16.98,35.12z"/>
   <path class="fil54" d="M429.07 211.21c6.09,-1.23 11.52,-1.8 16.59,-4.35 11.28,-5.65 5,-0.97 11.8,-11.46l-24.92 2.02c-7.82,4.65 -13.06,3.29 -19.65,6.59 8.58,7.78 1.24,5.44 16.18,7.21z"/>
   <path class="fil70" d="M590.32 322.22c2.89,-22.33 -0.97,0.17 10.58,-19.98 -4.55,-13.86 -1.62,-2.22 -6.6,-13.69 -4.04,-9.33 -0.31,-5.2 -5.29,-13.32 -0.53,7.98 0.42,18.52 -0.64,25.37 -2.12,13.67 -5.09,8.33 -6.2,25.06l8.14 -3.45z"/>
   <path class="fil51" d="M425.77 520.55c3.94,6.97 2.82,6.05 5.52,13.68 6.33,17.85 -8.68,-7.13 4.46,10.56 11.25,-11.78 9.28,-11.65 10.43,-30.07l-20.42 5.83z"/>
   <path class="fil54" d="M237.04 245.14l-1.92 7.27c0.01,0.25 0.57,1.25 0.72,1.91 2.52,1.32 -3.51,7.88 20.23,1.18l-3.79 -11.77 -7.11 -13 -14.13 4.98c19.51,-1.54 10.41,4.41 5.99,9.43z"/>
   <path class="fil71" d="M336.66 158.96l0.13 4.76c16.29,0.85 1.7,-2 8.6,-21.21 0.23,-0.65 0.98,-1.82 1.62,-2.62l0.21 -6.18 -8.48 -9.1c-11.49,14.16 -0.82,17.07 -2.07,34.34z"/>
   <path class="fil31" d="M650.88 488.83l-1.18 6 16.41 4.97 13.68 -3.61c-12.02,0 -5.83,-2.41 -6.75,-11.4 -2.55,-24.89 -1.48,-1.53 2.68,-11.98 -1.07,-0.64 -2.42,-3.45 -3.04,-2.18 -0.67,1.38 -7.94,0.54 -9.21,0.6 3.68,7.78 4.07,5.33 2.58,16.09l-15.17 1.51z"/>
   <path class="fil72" d="M586.5 457.73c-2.59,-15.28 -3.63,-11.22 -10.95,-21.94l4.9 -3.57c-4.94,-8.55 -6.95,-8.42 -27.51,-13.97 9.58,16.24 6.82,5.53 17.01,18.29 7.35,9.2 2.08,7.45 16.54,21.2z"/>
   <path class="fil73" d="M303.33 327.08c-6.51,-8.53 -2.15,-6.6 -14.15,-8.62l14.09 -7.51c-4.26,-3.45 0.71,-1.29 -9.09,-5.41 -4.24,-1.78 5.36,0.22 -8.22,-1.17l0.74 1.33c-8.65,10.21 -1.99,-1.15 -4.78,12.78l8.51 8.75c0.58,0.57 1.79,1.68 2.67,2.55l10.22 -2.71z"/>
   <path class="fil74" d="M152.69 267.9c12.48,-6.62 27.82,-32.98 31.32,-47.23 -11.79,6.62 -27.29,34.42 -31.32,47.23z"/>
   <path class="fil69" d="M416.27 349.94l0.04 6.59c7.79,-12.44 8.07,-25.64 6.44,-42.11 -4.01,-4.47 -6.56,-5.18 -9.07,-6.87l2.59 42.39z"/>
   <path class="fil54" d="M282.25 457.06c3.57,-9.2 -4.15,-5.58 9.95,-7.82l-10.32 -27.92c-3.34,7.09 -4.87,10.43 -4.92,18.96 -0.07,13.28 -0.74,11.56 5.29,16.78z"/>
   <path class="fil54" d="M303.33 327.08l-10.22 2.71c-0.88,-0.86 -2.09,-1.98 -2.67,-2.55l-8.51 -8.75c2.79,-13.94 -3.87,-2.57 4.78,-12.78l-10.66 2.39 0.12 21.02 21.85 6.06c7.09,-5.21 2.08,0.2 5.32,-8.1z"/>
   <path class="fil50" d="M650.88 488.83l15.17 -1.51c1.49,-10.76 1.1,-8.32 -2.58,-16.09l-16.71 4.16c-0.26,17.14 1.1,9.24 4.12,13.44z"/>
   <path class="fil62" d="M190.71 209.18l28.41 -34.62c8.52,-13.02 16.77,-23.89 24.06,-39.62 -5.28,4.25 -3.28,1.62 -7.78,6.96l-44.68 67.28z"/>
   <path class="fil39" d="M168.54 212.94c-5.57,15.18 1.6,1.85 -6.46,15 -7.09,11.57 -0.04,2.1 -6.32,5.3l-6.7 24.05 39.84 -64.7c-3.3,3.31 -7.04,7.08 -12.29,13.18 -6.55,7.62 -1.26,4.85 -8.07,7.17z"/>
   <path class="fil75" d="M339.41 373.33c1.56,27.37 -4.17,10.17 7.44,14.54 3.99,-5.52 2.53,4.05 4.82,-12.31 0.4,-2.84 0.3,-11.88 0.74,-16.52 -4.73,3.35 -3.13,1.62 -7.51,6.22 -1.76,1.85 -4.58,6.64 -5.49,8.08z"/>
   <path class="fil54" d="M133.74 276.61c-8.01,12.52 -11.15,9.54 -9.3,23.14l13.71 -19.57c8.37,-13.4 8.44,-6.85 10.91,-22.89 -2.27,1.9 -2.98,0.52 -9.63,8.83 -5.07,6.35 -1.55,1.34 -5.7,10.5z"/>
   <path class="fil27" d="M614.02 484.96c13.4,6.95 10.16,6.65 20.21,-0.16 -3.5,-19.9 -19.11,-14.71 -20.21,0.16z"/>
   <path class="fil31" d="M561.95 511.1c11.89,3.53 5.04,4.43 20.25,6.64 -2.76,-9.18 1.13,0.54 -4.45,-11.69 -0.05,-0.12 -4.86,-9.56 -5.14,-10.17l-1.97 4.86c-0.99,0.92 -3.86,4.02 -4.45,4.75 -0.51,0.63 -1.64,2.09 -2.15,2.72 -0.52,0.65 -1.37,1.94 -2.09,2.89z"/>
   <path class="fil76" d="M601.28 376.23c11.95,-4.81 5.11,2.47 9.92,-9.01 2.03,12.17 -1.06,0.17 7.88,5.21l0.19 -13.95 -6.75 -0.86c-5.49,8.16 -7.45,8.57 -11.24,18.61z"/>
   <path class="fil54" d="M456.48 192.49c14.51,-14.13 4.79,-3.98 7.68,-18.85 -29.75,20.43 -8.76,15.73 -7.68,18.85z"/>
   <path class="fil77" d="M463.19 444.22c10.36,0.71 10.41,0.03 12.62,-11.52l-12.4 -3.6 -0.22 15.12z"/>
   <path class="fil78" d="M551.88 256.47l0.28 -5.75c-9.57,8.07 -7.37,-12.36 -4.72,16.59 0.43,4.75 3.97,15.74 5.29,19.57l-0.85 -30.41z"/>
   <path class="fil79" d="M367.33 421.05c-2.44,-11.99 2.21,-0.32 -3.91,-13.91 -2.3,-1.02 7.22,-11.66 -6.52,0.67 0.5,20.88 5.95,11.32 10.43,13.24z"/>
   <path class="fil80" d="M325.12 468.84c-5.08,14.36 -2.52,5.52 0.93,8.54l12.08 -20.82 -7.07 4.67 1.43 -7.4c-6.45,6.21 -5.34,0.39 -7.38,15.01z"/>
   <path class="fil71" d="M575.5 389.23l-2.4 6.41 3.68 3.76 4.75 -1.82 0.33 -18.45 -11.18 3.27c9.7,-2.46 6.86,-3.54 4.81,6.82z"/>
   <path class="fil81" d="M579.78 463.51c-9.56,-0.65 -6.85,-2.64 -6.58,7.54l7.4 -0.06 9.22 -5.57 -3.31 -7.68c-3.6,9 3.3,3.73 -6.72,5.78z"/>
   <path class="fil82" d="M398.21 560.71c0,7.64 -1.77,5.38 6.34,5.78l1.71 0.08c4.67,-5.68 -7.78,-4.43 10.47,-4.08 -3.54,-9.33 1.97,-3.85 -5.88,-8.94 -9.23,13.09 0.24,4.34 -12.64,7.16z"/>
   <path class="fil79" d="M348.41 462.56l10.86 -1.51 3.41 -2.66c-6.73,-11.78 -13.97,-3.84 -14.29,-3.65l0.03 7.82z"/>
   <path class="fil83" d="M481.43 356.27l9.04 6.49 2.11 -2.82c-0.72,-4.59 -1.17,-6.2 -2.76,-10.26 -0.3,-0.77 -1.67,-1.27 -1.92,-3.05 -0.26,-1.83 -1.51,-1.96 -2.23,-2.96 -0.61,1.21 2.1,15.91 -2.89,8.1 -0.35,-0.56 -0.79,3.04 -1.34,4.5z"/>
   <path class="fil1" d="M619.08 372.43c4.44,-5.24 2.84,-4.84 8.21,-5.24 -2.29,-12.3 9.74,-12.04 -8.02,-8.71l-0.19 13.95z"/>
   <path class="fil84" d="M362.49 500.58c3.81,13.02 -1.56,0.23 5.13,7.23l-2.01 -20.09 -5.73 1.81 2.62 11.05z"/>
   <path class="fil85" d="M358.15 168.41l4.43 -7.53 -8.6 -1.35c-9.05,5.09 -4.6,-0.22 -5.54,5.64l9.72 3.25z"/>
   <path class="fil86" d="M374.04 472.85l-2.83 -5.73c-11.52,20.11 -0.43,13.53 0,14.22 4.1,-7.21 2.12,1.43 2.83,-8.49z"/>
   <path class="fil87" d="M359.73 436.22l11.39 -7.57 -16.21 0.3c-0.01,13.56 -1.12,3.11 4.82,7.27z"/>
   <path class="fil88" d="M289.05 522.66l-0.52 -16.81c-12.54,0.53 -1.15,-0.9 -6.16,5.07l6.68 11.75z"/>
   <path class="fil89" d="M416.39 571.22l0.33 -8.73c-18.25,-0.35 -5.8,-1.6 -10.47,4.08 5.83,2.28 3.66,-0.15 10.14,4.65z"/>
   <path class="fil90" d="M592.72 436.33l-1.33 -3.87 -10.93 -0.25c9.27,12.27 -17.05,0.9 6.82,6.14 9.82,2.15 2.72,0.08 5.45,-2.02z"/>
   <path class="fil81" d="M598.85 525.66c-2.37,-6.05 1.32,-3.8 -4,-7.07l-12.66 -0.84 16.66 7.91z"/>
   <path class="fil51" d="M359.27 461.05l-10.86 1.51c1.31,0.33 6.31,2.08 6.68,2.3 3.79,2.33 3.58,2.06 7.69,6.04l-3.5 -9.85z"/>
   <path class="fil91" d="M484.9 268.26c-8.63,16.51 -2.36,9.45 0.57,13.23l-0.57 -13.23z"/>
   <path class="fil62" d="M445.72 323.64c-8.06,-14.19 -2.87,-7.35 -16.93,-13.2 12.5,7.42 7.21,3.67 16.93,13.2z"/>
   <path class="fil21" d="M184.01 220.67c4.49,-2.89 2.88,5.75 7.03,-11.79l-7.03 11.79z"/>
   <path class="fil92" d="M573.19 471.04c-0.27,-10.18 -2.98,-8.19 6.58,-7.54l-8.9 -2.92 2.32 10.45z"/>
   <polygon class="fil34" points="528.88,208.99 523.21,179.85 "/>
  </g>
 </g>
</svg>
