<?xml version="1.0" encoding="UTF-8"?>
<!DOCTYPE svg PUBLIC "-//W3C//DTD SVG 1.1//EN" "http://www.w3.org/Graphics/SVG/1.1/DTD/svg11.dtd">
<!-- Creator: CorelDRAW 2021 (64-Bit) -->
<svg xmlns="http://www.w3.org/2000/svg" xml:space="preserve" width="23.0564mm" height="30.2552mm" version="1.1" style="shape-rendering:geometricPrecision; text-rendering:geometricPrecision; image-rendering:optimizeQuality; fill-rule:evenodd; clip-rule:evenodd"
viewBox="0 0 17984.9 23600.24"
 xmlns:xlink="http://www.w3.org/1999/xlink"
 xmlns:xodm="http://www.corel.com/coreldraw/odm/2003">
 <defs>
  <style type="text/css">
   <![CDATA[
    .fil38 {fill:#0E0B12}
    .fil14 {fill:#120D13}
    .fil0 {fill:#151214}
    .fil1 {fill:#1B141B}
    .fil15 {fill:#1D1A23}
    .fil58 {fill:#221C24}
    .fil70 {fill:#261D32}
    .fil55 {fill:#2A242B}
    .fil64 {fill:#332C3C}
    .fil41 {fill:#353333}
    .fil50 {fill:#3B3647}
    .fil62 {fill:#3E3152}
    .fil32 {fill:#433B4C}
    .fil42 {fill:#443B54}
    .fil60 {fill:#454343}
    .fil71 {fill:#463A5B}
    .fil49 {fill:#494548}
    .fil30 {fill:#4A4656}
    .fil65 {fill:#4B3B68}
    .fil18 {fill:#4C4263}
    .fil63 {fill:#4C435B}
    .fil19 {fill:#52446C}
    .fil46 {fill:#534B64}
    .fil6 {fill:#554474}
    .fil47 {fill:#555352}
    .fil34 {fill:#56447A}
    .fil25 {fill:#5A447C}
    .fil68 {fill:#5A5759}
    .fil37 {fill:#5B4B7C}
    .fil57 {fill:#635384}
    .fil67 {fill:#645B7C}
    .fil51 {fill:#66464B}
    .fil23 {fill:#675986}
    .fil72 {fill:#696666}
    .fil10 {fill:#6F6791}
    .fil21 {fill:#745877}
    .fil24 {fill:#745E89}
    .fil11 {fill:#746493}
    .fil33 {fill:#767295}
    .fil31 {fill:#777298}
    .fil75 {fill:#787676}
    .fil40 {fill:#7A6493}
    .fil3 {fill:#7A749A}
    .fil48 {fill:#7C68A5}
    .fil39 {fill:#7E75A3}
    .fil35 {fill:#816EAA}
    .fil66 {fill:#837A7C}
    .fil54 {fill:#8578A9}
    .fil53 {fill:#896869}
    .fil12 {fill:#8B7B9E}
    .fil74 {fill:#8D8C8B}
    .fil29 {fill:#8E93AE}
    .fil16 {fill:#947BA1}
    .fil9 {fill:#9499B5}
    .fil28 {fill:#9795B8}
    .fil22 {fill:#9B79A3}
    .fil61 {fill:#A598A8}
    .fil13 {fill:#A999BB}
    .fil69 {fill:#AA9AC4}
    .fil59 {fill:#ADABAB}
    .fil7 {fill:#B39BBE}
    .fil43 {fill:#B5A8B9}
    .fil76 {fill:#B9B6B7}
    .fil44 {fill:#BCAFC2}
    .fil26 {fill:#BE837E}
    .fil5 {fill:#C49AC1}
    .fil17 {fill:#CAC4CA}
    .fil8 {fill:#CC9AC3}
    .fil73 {fill:#CDCBCB}
    .fil4 {fill:#D1C6D5}
    .fil20 {fill:#D896C7}
    .fil56 {fill:#E5E4E3}
    .fil52 {fill:#ECEBEB}
    .fil36 {fill:#F2EEF2}
    .fil45 {fill:#F5F3F2}
    .fil27 {fill:#F7F5F5}
    .fil2 {fill:#F8F8F8}
   ]]>
  </style>
 </defs>
 <g id="Capa_x0020_1">
  <metadata id="CorelCorpID_0Corel-Layer"/>
  <g id="_2035283907456">
   <path class="fil0" d="M9677.87 16925.6c-667.48,196.65 -529.33,-21.53 -1093.93,-188.69 -590.02,-174.73 -869.82,35.88 -1418.74,-40.56 -208.89,-886.67 504.61,-1193.54 1279.42,-1033.71 301.8,62.17 1302.28,508.51 1233.24,1262.96zm-690.96 -1987.23c379.49,-17.47 844.94,50.23 1115.3,36.66 243.14,-12.09 686.28,-162.33 1123.26,-132.76 -246.1,1071.31 -1926.46,798.68 -2238.56,96.1zm-3129.75 -203.59c413.34,82.37 1550.8,211.94 1634.03,250.16 -617.09,556.79 -1312.18,291.5 -1634.03,-250.16zm2879.59 -64.9c299.38,-278.86 2443,-518.18 2745.04,-434.17 -366.7,554.84 -2074.98,462.1 -2745.04,434.17zm-272.08 377.7l40.56 16.22c563.81,93.92 344.7,-36.35 499.07,441.97l-1351.03 2.18c100.55,-1426.38 418.1,73.87 460.93,-1093.38 -654.22,497.51 -1666.79,164.04 -2529.28,88.07 151.72,-290.88 -3.04,-219.97 551.64,-164.59l2138.48 135.57 189.63 573.95zm-2879.75 -544.94l4.76 558.12c-624.11,-16.15 -958.82,-448.44 -820.37,-1160.23 539.48,185.26 556.32,282.45 815.61,602.11zm-292.2 -952.9l-685.42 62.17c-249.92,1032.07 329.72,2046.82 1250.71,1483.32l19.73 508.43c-1310.54,301.64 -1592.06,-494.62 -1813.59,-1676.77 146.57,-938.62 538.38,-961.16 1502.36,-837.06 741.43,95.48 1322.4,117.32 2118.12,65.99l327.69 -408.51c157.57,-97.04 306.09,-148.13 415.84,51.09 703.21,1276.14 -3134.59,751.33 -3135.45,751.33zm-28.32 -2240.12l2636.77 236.59c1820.77,-41.42 2567.81,-47.66 4334.83,-334.64l65.68 -24.18c445.17,1832.31 1313.51,2321.63 -2437.15,2902.68 -733.63,113.65 -2906.5,325.04 -3433.42,-19.66 -547.74,43.76 -845.41,9.44 -1345.88,-330.11 1215.07,-24.88 3799.18,787.45 3640.52,-1025.99 -743.3,-615.84 -743.38,-166.46 -1112.8,231.91 -1003.05,44.15 -2685.13,-360.46 -3354.17,-32.53l220.91 -1686.37 784.72 82.29zm7858.66 -821.15c-203.9,144.23 189.71,151.33 -393.14,83.39 -155.54,239.16 37.6,62.4 -199.61,213.18 -153.59,97.66 -188.77,69.58 -374.34,115.91 -780.98,401.02 -1970.85,391.89 -2921.01,376.6 -752.58,-12.64 -1490.11,-59.28 -2248.31,-67.24 -341.89,-3.59 -664.28,-16.93 -1003.36,-44.62l-798.68 -161.94c-18.56,-41.81 -66.07,-27.22 -96.1,-46.18 -1005.55,87.21 -605.93,-496.57 -362.17,-1240.5 665.14,-2030.36 416.85,-1515.3 871.15,-1343.85 751.18,283.47 3345.28,434.01 4068.68,443.22l1073.65 66.07c747.82,42.59 1395.72,-74.34 1853.06,352.27l709.13 370.75c263.26,329.25 199.92,110.53 145.09,634.17 -306.71,289.16 104.21,-180.74 -324.03,248.75zm1740.11 -528.01c783.32,181.52 1174.58,518.26 1253.76,1296.35 -823.72,-93.68 -1507.04,-172 -2146.12,-483.86l-246.49 -258.51 -103.28 -401.25 381.91 125.12 231.2 -19.11 116.07 -87.29 -556.4 -202.19c477.31,-163.57 707.57,-133.78 1069.36,30.73zm-1050.17 -605.23c291.58,172.31 110.61,-216.62 293.61,303.44 -297.74,-92.82 -160.84,47.43 -293.61,-303.44zm0 0c-261.16,126.68 -108.5,-86.27 -147.82,332.37 -340.18,-383.16 -567.48,-344.31 -889.87,-657.89 564.44,52.03 628.01,10.53 1037.69,325.51zm-7782.45 -2144.02c-9.28,-333 95.87,-569.35 253.28,-925.05 187.68,-424.03 197.66,-455.78 507.49,-681.52l644.62 -1161.09c105.7,-139.55 93.53,-112.01 193.29,-221.22l151.56 -147.43c72.31,-541.19 877.93,-1222.79 1290.03,-1421.62 132.92,-315.06 32.45,-198.13 378.09,-440.96 928.32,-652.42 928.17,-548.45 1726.85,-373.95l19.89 412.33 261.63 656.95c54.99,397.2 43.76,367.87 -11,729.73 161.62,209.6 77.22,-70.52 143.68,365.53 75.04,493.37 28.08,11.15 -21.76,371.84l118.96 271.38c8.58,34.63 15.29,67.4 21.92,105.38l-15.52 1520.3c293.76,538.62 217.79,1756.57 404.06,2344.56 -445.64,150 -3508.62,7.64 -3812.99,-181.05 -876.92,69.66 -1777.24,-121.76 -2647.92,-240.49 46.65,-409.21 107.65,-694.86 393.84,-983.63zm2765.16 -4857.85c-103.12,318.88 -602.27,683.55 -1097.36,1349.08 -522.24,702.27 -1602.59,2386.06 -1911.41,3212.98 -124.1,332.22 -153.2,647.59 -387.99,861.55 -414.9,378.16 -300.16,-192.44 -606.48,762.57 -525.2,1637.38 -629.65,2433.96 -739.95,4190.37 -65.45,1042.52 -493.84,901.02 34.48,2159.23 323.56,770.52 577.39,1108.75 1569.83,968.26l461.94 -514.36c612.8,283.54 309.36,277.15 1106.49,270.83l-370.05 540.65c62.09,391.97 151.56,671.93 296.57,925.91l573.87 -18.41c36.12,-329.02 670.91,-45.55 801.65,8.19 534.72,219.66 569.43,302.03 1212.26,171.14l275.04 -134.17c38.85,-679.34 -114.74,-789.24 -401.95,-1117.56 1801.97,129.41 1747.91,-764.52 2005.32,-1524.74 158.82,-469.04 -141.03,-32.76 162.87,-402.42 297.04,85.02 185.73,74.57 329.02,391.89 183.23,623.33 405.54,808.2 1165.92,742.68l459.68 -101.87c-1047.2,-167.63 -1392.14,-163.5 -1528.49,-1280.75 1548.3,-542.21 408.51,-1634.34 356.63,-2845.66 1169.9,-359.83 577.54,-436.28 1560.62,129.41 476.14,273.95 1499.08,377.7 2146.67,424.19 -193.68,-2690.67 -1788.08,-1224.74 -2001.66,-2163.98 -267.48,-108.19 -207.49,-100.47 -333.23,-244.15l-230.74 -157.18 -5.15 -186.59c-250.39,238.93 142.36,-78.55 -255.93,161.23 69.89,-667.25 410.85,-890.1 1053.21,-955.47l573.25 -270.05c264.04,-80.34 416.38,-118.1 672.39,-172.62l107.72 84.4c-218.65,945.56 -743.77,870.68 -1395.49,1399.31l127.61 41.26c616.62,-49.53 1730.52,-894.71 1455.09,-1743.93 -536.35,-67.08 -1254.23,175.82 -1734.34,369.04 -1395.41,561.47 -928.48,680.97 -1191.9,1155.63 -527.54,102.34 -278.55,154.68 -748.37,-8.5 -264.2,-557.81 -534.4,-3862.13 -446.96,-4634.29 -380.19,-492.75 -149.38,-1762.11 -885.42,-2700.18 -1196.35,-103.59 -1486.99,520.29 -2235.28,857.11z"/>
   <path class="fil1" d="M11450.12 22108.26c-490.25,-141.81 -193.76,43.29 -284.32,-255.23l705.78 -245.4 -268.26 370.36c-18.88,18.49 -58.42,50 -74.73,64.9 -16.77,15.29 -54.13,41.5 -78.47,65.37zm1917.65 -1384.26c-494.39,83.78 -122.39,51.56 -251.33,-119.74 241.5,-209.99 -53.28,-125.12 316.7,-94.07 -178.08,79.56 -14.43,0.55 -65.37,213.81zm-1926.46 -2167.18l118.49 194.93c369.35,880.9 -130.11,227.38 690.18,1727.63l-225.28 565.22c-826.3,-201.95 -634.25,-1795.26 -583.39,-2487.78zm4686.16 2800.18l47.04 9.67 -87.05 332.61c-615.53,658.2 -3128.97,1740.03 -4379.61,1685.35l-288.15 -99.22 -24.49 -264.04c45.94,-303.51 35.65,-230.5 -31.05,-668.26l454.68 338.38c156.71,65.06 290.88,29.56 418.8,30.5 204.76,-202.11 56.16,-68.25 161.47,-182.69l132.06 -139.94c15.52,-16.46 47.97,-50.47 73.09,-74.57 205.46,-764.28 295.71,-1121.54 818.11,-1396.89l-54.6 -203.9 867.25 -454.14 116.85 -22c97.27,-318.33 136.19,-262.72 415.06,-359.75 1163.82,19.73 1740.11,-40.33 2839.11,210.61 -253.2,144.15 -563.27,-17.24 -1268.89,39.39l1000.87 235.57c-556.09,735.03 -617.79,885.81 -1210.54,983.32zm-4389.36 -3728.35l228.01 368.41c277.93,704.38 85.34,787.06 700.71,1189.33l-265.99 699.93c-353.9,-352.66 -1105.86,-1603.37 -662.72,-2257.67zm1492.06 -377.07l-534.64 1811.64c-364.2,-405.23 -589.71,-1078.95 -694.86,-1750.25l1076.06 -334.95 286.74 -89.94 676.68 -66.23c-93.06,592.67 -480.66,1274.35 -625.36,1978.96 -143.68,699.23 -281.98,1665.07 -735.26,2155.56 -15.99,357.49 -115.21,645.48 -189.63,1038.15 -121.84,643.45 -17.16,541.11 -678.48,622.63l706.48 -2138.4 859.99 -3509.94 -147.74 282.76zm1505.16 -1516.79l123.56 -84.24 280.27 173.48c266.54,244.15 164.98,15.05 259.68,453.44 -715.61,359.6 -2205.79,88.38 -3307.6,678.09 -387.76,207.57 -379.8,310.85 -695.33,487.84 -162.48,-1040.73 1573.26,-1253.99 2341.83,-1343.93 1331.37,-155.93 813.66,99.46 997.59,-364.67zm-601.1 148.36c-241.97,-249.92 -245.71,288.61 -108.11,-467.79l365.06 -1190.81 297.12 3.28c344.08,76.37 142.12,-95.32 254.37,125.12l-448.6 1487.77 -359.83 42.43zm-398.76 -788l-459.68 101.87c223.25,146.8 8.42,-12.17 219.27,117.47 204.76,125.98 100.24,47.04 231.13,169.89 -468.88,689.09 -980.82,-208.97 -1610.86,149.77 150,33.31 281.44,46.41 473.95,116.85l358.58 192.75c15.6,-26.52 55.3,45.55 78.71,50.7l-1106.1 291.11 60.61 -635.34 -2.11 -367.24c-234.32,334.56 -179.1,795.17 -192.98,1260.31 -291.11,-72.23 -186.12,-61.62 -302.97,-119.35 -15.29,-7.57 -38.14,-43.06 -56.16,-65.45 -125.59,613.19 -312.09,527.23 -216.54,1248.14 252.97,606.09 -543.53,3840.99 697.51,3669.07 -404.53,133.31 -125.2,87.29 -573.72,211.86 -357.96,-1533.79 -559.21,-1747.29 -479.72,-3601.44 6.94,-177.69 47.04,-502.5 39.16,-654.06 -8.66,-168.88 -7.41,-194.23 -51.17,-356.09 -93.14,-344.15 31.75,-80.42 -158.43,-306.24 141.89,1722.4 -419.97,3399.72 429.49,5013.7 -1197.83,-526.06 -500.79,-3065.24 -669.12,-4232.96 -226.52,432.77 -254.84,1738.63 -296.65,2380.91 -61.39,943.38 518.02,1833.4 451.02,1982.94 -1061.32,597.74 -795.56,-2560.56 -841.35,-3266.65 -383.47,891.58 -297.74,2432.01 64.28,3392.47 216.77,236.35 322.47,237.05 749.7,261.08l386.04 -261.47c-202.65,549.54 -100.94,284.95 -361.16,419.51l-861.87 96.57c-325.2,-342.98 -464.2,-374.65 -446.18,-943.69 -310.46,-335.03 62.72,-2434.81 83.78,-3086.3l-42.9 -474.65 -65.68 362.25 -200.78 1517.33 -64.51 2246.59c-301.72,389.79 -388.54,554.37 -977.86,631.52l38.53 127.54 556.87 -10.84c191.58,-239.08 454.68,-376.68 625.05,-476.29 515.22,311.94 923.88,498.84 1516.79,90.8 39.16,-14.59 97.43,-69.66 120.67,-33.62l507.88 -152.03c14.98,-6.71 44.54,-28.63 64.12,-46.18l-239.39 377.3c-40.41,735.81 -234.01,685.81 197.82,1101.88 1228.41,112.01 2791.6,-539.16 3826.95,-980.04 974.97,-415.21 2028.34,-1500.09 2516.48,-2296.75l82.06 -359.6c-792.52,-432.53 -1493.62,-334.71 -2441.37,-347.9l-333.62 100.7 -59.75 -510.15c-493.76,-284.95 -498.99,-41.5 -792.44,288.46l-605.7 247.35c322.23,-44.7 404.22,62.01 692.05,-66.3 307.96,-137.29 81.59,-237.52 537.68,-372.31 -41.73,292.12 -970.76,1070.92 -1500.02,869.2 395.17,-902.04 -178.55,-761.94 303.2,-1155.71l723.64 -2146.36c562.02,-252.26 784.72,-2.65 1305.71,-442.52 49.53,-700.71 -387.68,-686.59 -783.47,-1056.02 314.51,-1044.08 961.63,-1651.11 -486.67,-1577.32 -345.01,560.3 -466.15,1179.03 -657.81,1312.96z"/>
   <path class="fil2" d="M5088.51 10957.6c585.34,14.12 1568.5,-94.62 2230.68,-168.64 523.48,-58.58 1230.59,-581.21 1445.49,-958.75l-996.81 -332.22c406.56,-476.45 833.16,-332.45 1389.72,-472.16 43.21,-10.84 166.23,-47.27 206.32,-61.94 208.89,-76.21 188.93,-69.97 302.27,-147.43 -723.41,-9.2 -3317.51,-159.75 -4068.68,-443.22 -454.29,-171.45 -206.01,-686.51 -871.15,1343.85 -243.76,743.92 -643.38,1327.7 362.17,1240.5z"/>
   <path class="fil3" d="M7901.17 11546.22l-2580.37 -57.18 350.71 162.64c41.58,15.83 68.49,27.07 110.84,41.34 126.44,42.51 286.12,73.87 419.9,94.23 774.97,117.63 1902.67,27.3 2786.53,197.12 21.3,476.14 45.4,450.39 -263.03,729.96 158.66,1813.44 -2425.45,1001.1 -3640.52,1025.99 500.47,339.55 798.14,373.87 1345.88,330.11 845.87,45.48 1152.66,451.72 2122.33,-24.42 32.45,-15.99 59.36,-35.49 90.17,-51.4 29.17,-15.05 58.19,-33.15 86.04,-47.74 26.52,-13.88 57.64,-29.41 83.23,-42.75l1074.43 -533.94c38.14,-13.26 145.71,-52.26 185.03,-64.43 490.18,-150.94 474.19,-47.82 834.72,-295.87 26.37,-18.1 56.71,-45.87 80.34,-63.65 24.81,-18.56 62.48,-52.73 82.68,-68.72 20.67,-16.38 53.2,-51.56 84.32,-71.22 -146.41,-472.39 22.08,-81.98 -181.75,-292.28 -91.81,-94.77 -110.38,37.75 -151.09,-112.33 -11.31,-41.58 -54.6,-34.56 -79.56,-55.07 448.68,-47.43 270.91,-124.34 631.99,74.65l232.84 -58.03 34.4 -168.25c-501.64,287.68 -514.67,-198.6 -526.84,-209.99 190.25,-231.2 542.67,-233.15 875.67,-201.64 275.59,-461.47 66.07,44.7 245.95,-571.77 -1767.02,286.98 -2514.07,293.22 -4334.83,334.64z"/>
   <path class="fil4" d="M5088.51 10957.6c30.03,18.95 77.54,4.37 96.1,46.18l798.68 161.94c339.08,27.69 661.47,41.03 1003.36,44.62 758.2,7.96 1495.73,54.6 2248.31,67.24 27.77,-19.34 72.62,-78.71 86.35,-53.51 13.73,24.96 66.07,-42.12 84.87,-53.74 861.16,-532.14 961.94,-333.47 1672.95,-1093.93 445.95,-476.99 273.48,-427.31 620.52,-506.01 -233.15,-259.75 312.41,-288.69 -711.4,-329.1 417.09,439.79 320.52,80.73 499.54,-126.13 -464.51,0 -454.06,-10.22 -747.98,-232.61l-1073.65 -66.07c-113.34,77.46 -93.37,71.22 -302.27,147.43 -40.09,14.66 -163.11,51.09 -206.32,61.94 -556.56,139.71 -983.16,-4.29 -1389.72,472.16l996.81 332.22c-214.9,377.54 -922.01,900.17 -1445.49,958.75 -662.18,74.03 -1645.34,182.76 -2230.68,168.64z"/>
   <path class="fil5" d="M7780.81 4074.93l-151.56 147.43c-99.77,109.21 -87.6,81.67 -193.29,221.22l-644.62 1161.09 -48.91 368.33 463.34 -103.28 268.26 -261.16 -146.18 613.81c7.02,333.7 -89.16,270.52 205.31,270.52l69.66 -592.21c-7.02,-360.61 -155.15,-201.8 15.13,-405.62 973.88,693.45 1335.82,265.29 2417.03,6.63 298.29,-349.93 799.77,-1056.49 1474.66,-636.98l58.58 -489.94c49.84,-360.69 96.8,121.53 21.76,-371.84 -66.46,-436.04 17.94,-155.93 -143.68,-365.53l-38.3 828.87c-168.41,-309.05 -56.24,-244.46 -355.78,-280.03 -504.37,-59.83 -2516.95,245.01 -2625.38,9.2 -18.1,-39.31 -66.46,-21.3 -96.8,-38.07 -464.9,453.9 4.6,250.31 -620.76,396.57 131.83,-449.54 60.92,-31.98 71.53,-479.02z"/>
   <path class="fil6" d="M10014.61 17107.2l-275.04 134.17c-153.51,115.45 -174.96,231.83 -367.01,241.03l-0.62 843.46c-21.06,651.49 -394.23,2751.28 -83.78,3086.3l26.21 -558.82c54.21,172.31 87.36,356.87 151.72,527.85 145.48,385.81 83.93,251.8 355.54,458.98 -362.02,-960.46 -447.74,-2500.88 -64.28,-3392.47 45.79,706.09 -219.97,3864.39 841.35,3266.65 67.01,-149.53 -512.41,-1039.56 -451.02,-1982.94 41.81,-642.28 70.13,-1948.15 296.65,-2380.91 168.33,1167.72 -528.71,3706.9 669.12,4232.96 -849.46,-1613.98 -287.6,-3291.3 -429.49,-5013.7 -261.63,-115.21 83.62,-483.31 -269.66,662.33l-54.29 -257.1c-233.15,-700.01 24.73,-353.98 -192.12,-197.97 225.98,600.24 -3.28,164.67 -153.28,330.19z"/>
   <path class="fil7" d="M7602.81 5900.68c42.43,65.13 241.81,214.2 87.36,523.25 -173.32,346.73 -150.39,212.64 -593.45,163.89l109.05 -718.1 -463.34 103.28 48.91 -368.33c-309.83,225.74 -319.82,257.49 -507.49,681.52 -157.41,355.7 -262.56,592.05 -253.28,925.05 166.69,347.82 1085.5,114.2 1582,93.68 671.38,-27.61 1274.12,-178.39 1647.13,16.46l487.37 -1203.13 287.91 -616.54c-1081.21,258.66 -1443.15,686.82 -2417.03,-6.63 -170.28,203.82 -22.15,45.01 -15.13,405.62z"/>
   <path class="fil8" d="M9070.84 2653.3c-412.09,198.83 -1217.72,880.43 -1290.03,1421.62 -10.61,447.04 60.3,29.49 -71.53,479.02 625.36,-146.26 155.85,57.33 620.76,-396.57 30.34,16.77 78.71,-1.25 96.8,38.07 108.43,235.81 2121,-69.03 2625.38,-9.2 299.54,35.57 187.37,-29.02 355.78,280.03l38.3 -828.87c54.76,-361.86 65.99,-332.53 11,-729.73l-261.63 -656.95 122.08 706.09c-171.22,-63.26 -768.57,-59.05 -329.49,-459.99 -116.07,393.84 -6.63,285.26 -362.8,423.25 -156.87,60.77 -1231.76,269.5 -1554.62,-266.77z"/>
   <path class="fil9" d="M8725.75 12714.33c308.43,-279.57 284.32,-253.82 263.03,-729.96 -883.86,-169.81 -2011.57,-79.49 -2786.53,-197.12 -133.78,-20.36 -293.45,-51.72 -419.9,-94.23 -42.36,-14.27 -69.27,-25.51 -110.84,-41.34l-350.71 -162.64 -92.12 861.79c8.03,1.95 -39.55,255.62 294.23,-235.18 -17.71,604.22 98.91,435.96 -403.12,498.21 -295.09,-455.46 55.85,-679.57 144.62,-1304.23l-784.72 -82.29 -220.91 1686.37c669.04,-327.93 2351.12,76.68 3354.17,32.53 369.43,-398.37 369.5,-847.75 1112.8,-231.91z"/>
   <path class="fil10" d="M12236.01 11211.58c-179.88,616.47 29.64,110.3 -245.95,571.77 -345.09,209.44 -343.45,260.61 -875.67,201.64 12.17,11.39 25.2,497.67 526.84,209.99 387.52,107.88 176.52,-91.89 340.57,167.55 -456.63,257.96 -171.53,473.95 -374.96,0.7l-232.84 58.03 16.54 459.83 -236.12 -74.81c-31.12,19.66 -63.65,54.84 -84.32,71.22 -20.2,15.99 -57.88,50.16 -82.68,68.72 -23.64,17.78 -53.98,45.55 -80.34,63.65 -360.53,248.05 -344.54,144.93 -834.72,295.87 -39.31,12.17 -146.88,51.17 -185.03,64.43l-1074.43 533.94c-25.59,13.34 -56.71,28.86 -83.23,42.75 -27.85,14.59 -56.86,32.68 -86.04,47.74 -30.81,15.91 -57.72,35.41 -90.17,51.4 -969.67,476.14 -1276.46,69.89 -2122.33,24.42 526.92,344.7 2699.79,133.31 3433.42,19.66 3750.66,-581.05 2882.32,-1070.37 2437.15,-2902.68l-65.68 24.18z"/>
   <path class="fil11" d="M13367.77 20724l54.6 203.9c382.61,-40.33 873.1,351.33 1064.68,692.05 13.42,23.87 30.34,60.92 41.5,84.24 10.3,21.53 25.59,59.75 33.62,79.72 245.01,605.78 276.91,-71.14 48.05,219.5 -260.92,331.2 -589.94,101.48 -590.1,101.41 -268.33,-65.91 -321.3,-322.08 -678.01,-119.03 421.61,208.82 304.29,164.9 455.46,439.86 304.76,-141.27 523.02,-187.29 795.09,-109.28 -439.24,220.99 -986.05,338.46 -1547.21,244.78l679.57 -157.18 -933.24 144.39c-209.52,762.1 -522.94,510.93 -1149.54,483.78l169.74 0.08 -104.14 352.42c1250.64,54.68 3764.08,-1027.16 4379.61,-1685.35l87.05 -332.61c-522.55,62.48 -830.04,-126.13 -1209.37,-367.94 -194.85,-124.18 -247.9,-174.88 -448.44,-300.16 -593.92,-370.99 -423.56,6.01 -281.67,-428.71l-867.25 454.14z"/>
   <path class="fil12" d="M10504.09 8062.41c433.94,52.03 101.17,177.77 307.65,-294.07l-17.39 573.87c-388.77,-105.31 -447.43,-51.01 -492.75,-483.16 -3.12,-29.8 28.86,-367.32 35.26,-385.5 202.65,-570.91 79.8,-156.09 178.55,18.25 216.15,-308.19 223.17,463.81 223.17,-623.1l-681.29 615.92c-12.4,-21.84 -41.34,62.17 -67.4,88.61 -494.93,-13.88 -682.46,156.09 -730.19,-251.87l-297.58 1042.29 -677.46 71.69c304.37,188.69 3367.35,331.05 3812.99,181.05 -186.27,-587.99 -110.3,-1805.95 -404.06,-2344.56l-30.66 899.85 -697.12 280.74c-52.57,30.03 -264.43,193.22 -308.51,249.53l-128.24 266.07c-6.86,-18.41 -19.5,62.25 -24.96,94.38z"/>
   <path class="fil13" d="M6030.56 7211.23c-286.2,288.77 -347.2,574.42 -393.84,983.63 870.68,118.72 1771,310.14 2647.92,240.49l677.46 -71.69 297.58 -1042.29c-373.01,-194.85 -975.75,-44.07 -1647.13,-16.46 -496.49,20.52 -1415.3,254.14 -1582,-93.68z"/>
   <path class="fil11" d="M6602.8 16437.53c86.51,670.6 163.18,1461.01 244.39,2175.22l81.51 1613.82c75.35,394.39 -4.84,193.53 189.08,398.68 461.24,-610.15 -58.5,-1901.58 142.44,-2872.18 43.68,-211.08 72.15,-199.3 107.33,-253.04 99.92,1038.23 235.65,2148.7 116.69,3151.2 -218.88,456.01 -93.99,95.94 133.07,228.16 260.53,-144 205.15,-97.74 409.21,-310.3l-75.51 -2213.21 -121.61 -244.23c-247.97,-753.28 105.62,-871.3 -103.75,-1049.62l-573.87 18.41c-145.01,-253.98 -234.48,-533.94 -296.57,-925.91 -156.01,-201.56 137.91,-174.26 -180.42,-167.63l-72 450.63z"/>
   <path class="fil14" d="M6037.35 21822.07c439.86,-370.99 539.71,-413.81 1061.17,-114.2 -320.05,143.14 -635.11,272.78 -1061.17,114.2zm-1150.79 -1248.06l860.77 -9.28 241.27 539.79c-360.38,-48.91 -503.67,-14.66 -865.77,-26.13 -387.06,-12.25 -462.64,15.29 -634.09,-261.31l16.69 -334.32 381.13 91.26zm3064.46 -2218.12l75.51 2213.21 -125.59 575.98c-1019.51,502.58 -1756.34,-102.89 -2161.1,-907.03 -167.55,-332.92 -104.53,-515.68 -291.89,-850.79l-728.56 318.26 137.91 -506.4 -23.48 -149.92 -7.41 -160.38 -205.85 133.23 -31.2 708.12c662.96,318.49 196.65,-82.29 832.15,-52.42l113.18 851.72 -1009.21 -243.76c-214.35,268.18 -208.04,197.43 -230.35,662.57 525.82,379.26 1008.59,198.83 1258.28,552.89 192.12,-392.75 -112.4,42.04 192.75,-248.05 32.06,-30.42 208.11,-125.2 242.44,-148.6l398.99 99.53c-21.76,24.18 -53.67,55.15 -69.35,68.49l-412.02 331.05c-46.18,429.02 -140.17,431.44 328.4,544.62 328.24,79.17 435.73,16.69 730.97,-55.3l148.68 -108.5c32.53,-137.99 -17,-243.06 176.83,-354.14 737.06,-422.47 330.58,-10.3 386.28,28.32 230.58,-424.03 488.69,-336.2 584.02,-1048.92 72.08,-538.85 16.38,-1089.64 -22.93,-1623.03l-132.22 -1442.84c-140.8,-381.28 61.94,-220.44 -162.48,-61.39l7.25 873.49z"/>
   <path class="fil15" d="M6334.39 16124.43l316.7 2724.6 -140.72 1149.62c-393.53,-235.57 -281.75,-1107.03 -264.2,-1536.68l4.52 -514.05 -99.06 189.55 -85.41 684.41c-359.36,-484.17 -769.74,-332.3 -1239.79,66.93l7.41 160.38c399.07,-209.13 373.4,-260.38 883.08,-257.1l124.73 350.94c370.75,635.19 269.11,2177.71 1642.61,1508.21 118.96,-1002.51 -16.77,-2112.97 -116.69,-3151.2 -35.18,53.74 -63.65,41.97 -107.33,253.04 -200.94,970.6 318.8,2262.04 -142.44,2872.18 -193.92,-205.15 -113.73,-4.29 -189.08,-398.68l-81.51 -1613.82c-81.2,-714.2 -157.88,-1504.62 -244.39,-2175.22l-71.69 -702.74c-240.17,258.82 -217.47,-356.79 -196.73,389.63z"/>
   <path class="fil16" d="M11509.64 4864.71c-17.32,274.5 14.66,650.94 -6.24,872.24 -38.53,408.9 -42.2,331.44 -268.96,424.73 -406.48,167.24 -1209.76,105.7 -1487.38,-43.45l-487.37 1203.13c47.74,407.96 235.26,237.99 730.19,251.87 26.05,-26.44 54.99,-110.45 67.4,-88.61l681.29 -615.92c0,1086.91 -7.02,314.9 -223.17,623.1l-11.31 570.6c5.46,-32.14 18.1,-112.79 24.96,-94.38l128.24 -266.07c44.07,-56.32 255.93,-219.5 308.51,-249.53l697.12 -280.74 30.66 -899.85 15.52 -1520.3c-6.63,-37.99 -13.34,-70.75 -21.92,-105.38l-118.96 -271.38 -58.58 489.94z"/>
   <path class="fil17" d="M9234.96 11277.57c950.17,15.29 2140.04,24.42 2921.01,-376.6l-95.24 -163.34 -1159.61 -82.76 837.61 -48.91 0 -73.17 -352.19 -128.94 1103.29 -220.99 77.69 -179.18 -194.15 -118.57 -341.81 -240.95c214.98,-146.02 -21.53,-104.21 -45.32,-247.35 -10.69,-63.89 -69.74,-67.08 -95.94,-129.49 1065.85,298.68 834.02,243.06 702.58,-32.53 -457.34,-426.6 -1105.24,-309.68 -1853.06,-352.27 293.92,222.39 283.47,232.61 747.98,232.61 -179.02,206.87 -82.45,565.92 -499.54,126.13 1023.8,40.41 478.24,69.35 711.4,329.1 -347.04,78.71 -174.57,29.02 -620.52,506.01 -711.01,760.46 -811.79,561.78 -1672.95,1093.93 -18.8,11.62 -71.14,78.71 -84.87,53.74 -13.73,-25.2 -58.58,34.17 -86.35,53.51z"/>
   <path class="fil18" d="M10014.61 17107.2c150,-165.52 379.26,270.05 153.28,-330.19 216.85,-156.01 -41.03,-502.03 192.12,197.97l54.29 257.1c353.28,-1145.64 8.03,-777.54 269.66,-662.33 190.17,225.82 65.29,-37.91 158.43,306.24 43.76,161.86 42.51,187.21 51.17,356.09 7.88,151.56 -32.22,476.37 -39.16,654.06l155.93 -720.76 200 441.27c-95.55,-720.91 90.95,-634.95 216.54,-1248.14 18.02,22.39 40.87,57.88 56.16,65.45 116.85,57.72 11.86,47.11 302.97,119.35 13.88,-465.14 -41.34,-925.75 192.98,-1260.31 -30.58,-98.21 -121.06,-337.99 -122,-340.72 -72.54,-232.37 -40.95,-45.4 -77.77,-331.98 219.35,-217.08 -213.65,-231.44 330.66,-155.93 -143.29,-317.32 -31.98,-306.87 -329.02,-391.89 -303.9,369.66 -4.06,-66.62 -162.87,402.42 -257.41,760.23 -203.36,1654.15 -2005.32,1524.74 287.21,328.32 440.8,438.23 401.95,1117.56z"/>
   <path class="fil19" d="M7951.02 18355.88l-7.25 -873.49c224.42,-159.05 21.69,-319.89 162.48,61.39l295.32 -307.02 50.7 1877.71c-141.97,-294.7 15.21,29.49 -213.81,-127.85 39.31,533.39 95.01,1084.18 22.93,1623.03 -95.32,712.72 -353.44,624.89 -584.02,1048.92l-309.21 443.61 368.18 -26.44c1021.62,-648.29 684.95,-501.64 807.89,-1973.81 70.83,-847.9 31.67,-1626.3 103.2,-2503.15 220.75,412.48 59.99,1034.57 99.85,1619.44 44.46,-233.86 66.69,-582.46 87.99,-859.99 79.95,-1042.91 53.59,-708.74 218.96,-924.66l209.13 779.88 65.68 -362.25 42.9 474.65 0.62 -843.46c192.05,-9.2 213.5,-125.59 367.01,-241.03 -642.83,130.89 -677.54,48.52 -1212.26,-171.14 -130.73,-53.74 -765.53,-337.21 -801.65,-8.19 209.36,178.32 -144.23,296.34 103.75,1049.62l121.61 244.23z"/>
   <path class="fil20" d="M9070.84 2653.3c322.86,536.28 1397.75,327.54 1554.62,266.77 356.17,-137.99 246.73,-29.41 362.8,-423.25 -439.08,400.94 158.27,396.73 329.49,459.99l-122.08 -706.09 -19.89 -412.33c-798.68,-174.49 -798.53,-278.47 -1726.85,373.95 -345.64,242.83 -245.17,125.9 -378.09,440.96z"/>
   <path class="fil13" d="M12604.26 22324.8c-19.11,376.91 -65.91,173.09 187.52,223.56l933.24 -144.39 72.54 21.69c-151.17,-274.96 -33.85,-231.05 -455.46,-439.86 356.71,-203.04 409.68,53.12 678.01,119.03 0.16,0.08 329.18,229.8 590.1,-101.41 228.86,-290.64 196.96,386.28 -48.05,-219.5 -8.03,-19.97 -23.32,-58.19 -33.62,-79.72 -11.15,-23.32 -28.08,-60.38 -41.5,-84.24 -191.58,-340.72 -682.07,-732.38 -1064.68,-692.05 -522.39,275.35 -612.64,632.61 -818.11,1396.89z"/>
   <path class="fil21" d="M13363.48 16888.08l14.43 80.73 -859.99 3509.94 188.46 0.39 -26.83 477.23c453.28,-490.49 591.58,-1456.33 735.26,-2155.56 144.7,-704.61 532.3,-1386.29 625.36,-1978.96l-676.68 66.23z"/>
   <path class="fil22" d="M10034.97 5501.69l-287.91 616.54c277.62,149.14 1080.9,210.69 1487.38,43.45 226.76,-93.29 230.42,-15.83 268.96,-424.73 20.91,-221.3 -11.08,-597.74 6.24,-872.24 -674.89,-419.51 -1176.38,287.05 -1474.66,636.98z"/>
   <path class="fil23" d="M15139.16 15824.03c-157.57,203.04 197.51,243.84 -154.29,158.5 -1.56,-509.37 51.01,-37.13 -249.53,-247.74 -183.93,464.12 333.78,208.74 -997.59,364.67 -768.57,89.94 -2504.32,303.2 -2341.83,1343.93 315.53,-176.99 307.57,-280.27 695.33,-487.84 1101.81,-589.71 2591.99,-318.49 3307.6,-678.09 -94.7,-438.38 6.86,-209.28 -259.68,-453.44z"/>
   <path class="fil24" d="M15009.52 20205.04c240.02,142.75 306.4,95.94 532.61,225.51 317.32,181.83 299.85,188.54 232.45,440.25l174.57 12.32 312.56 40.95 -134.24 432.92c592.75,-97.5 654.45,-248.29 1210.54,-983.32l-1000.87 -235.57c705.62,-56.63 1015.69,104.76 1268.89,-39.39 -1099,-250.94 -1675.29,-190.88 -2839.11,-210.61 40.64,8.74 198.99,42.51 224.89,53.35 222.23,92.67 116.54,54.76 251.17,181.59l-233.47 81.98z"/>
   <path class="fil25" d="M4857.3 19199.11l-137.91 506.4 728.56 -318.26c187.37,335.1 124.34,517.87 291.89,850.79 404.76,804.14 1141.59,1409.61 2161.1,907.03l125.59 -575.98c-204.06,212.56 -148.68,166.3 -409.21,310.3 -227.07,-132.22 -351.95,227.85 -133.07,-228.16 -1373.49,669.51 -1271.85,-873.02 -1642.61,-1508.21 -390.88,171.37 -425.59,-65.76 -817.87,376.06 -213.96,-170.44 -188.22,271.61 -166.46,-319.97z"/>
   <path class="fil26" d="M7296.25 16448.14c73.64,-482.3 23.48,303.67 321.06,-471.85 623.25,-69.97 1432.7,92.67 1752.98,507.1 -202.19,128.24 226.37,189.39 -424.65,74.1 -1431.92,-253.36 -887.61,-25.04 -1649.39,-109.36zm2381.62 477.46c69.03,-754.45 -931.44,-1200.79 -1233.24,-1262.96 -774.81,-159.83 -1488.31,147.04 -1279.42,1033.71 548.91,76.44 828.71,-134.17 1418.74,40.56 564.59,167.16 426.45,385.34 1093.93,188.69z"/>
   <path class="fil27" d="M13230.17 17251.58c77.38,-428.55 95.32,-150.24 -153.43,-273.56l-1076.06 334.95c105.15,671.3 330.66,1345.02 694.86,1750.25l534.64 -1811.64z"/>
   <path class="fil28" d="M16174.5 21366.68l-47.04 -9.67 134.24 -432.92 -312.56 -40.95 -294.93 206.09c-68.88,-434.4 -52.34,-66.54 120.36,-218.41 67.4,-251.72 84.87,-258.43 -232.45,-440.25 -226.21,-129.56 -292.59,-82.76 -532.61,-225.51l-657.65 42.82 -116.85 22c-141.89,434.72 -312.25,57.72 281.67,428.71 200.55,125.27 253.59,175.98 448.44,300.16 379.33,241.81 686.82,430.43 1209.37,367.94z"/>
   <path class="fil6" d="M10854.4 17886.14c-79.49,1854.15 121.76,2067.65 479.72,3601.44 448.52,-124.57 169.19,-78.55 573.72,-211.86 -1241.04,171.92 -444.54,-3062.98 -697.51,-3669.07l-200 -441.27 -155.93 720.76z"/>
   <path class="fil29" d="M4064.16 13926.9l543.14 -314.98 685.42 -62.17c154.29,-261.31 857.58,-162.72 1200.64,-159.52 172.86,1.64 490.88,22.31 637.99,15.13 854.53,-41.26 447.98,-29.8 553.28,-249.53 -795.72,51.33 -1376.69,29.49 -2118.12,-65.99 -963.97,-124.1 -1355.79,-101.56 -1502.36,837.06z"/>
   <path class="fil30" d="M5584.92 14502.65c862.49,75.98 1875.06,409.44 2529.28,-88.07 -42.82,1167.25 -360.38,-333 -460.93,1093.38l1351.03 -2.18c-154.37,-478.32 64.74,-348.05 -499.07,-441.97 104.29,358.27 73.01,171.53 -254.99,234.64l-398.29 -63.73c396.03,-371.06 32.45,-186.59 612.72,-187.13l-189.63 -573.95 -2138.48 -135.57c-554.69,-55.38 -399.93,-126.29 -551.64,164.59z"/>
   <path class="fil31" d="M4064.16 13926.9c221.53,1182.15 503.05,1978.41 1813.59,1676.77l-19.73 -508.43c-920.99,563.5 -1500.64,-451.25 -1250.71,-1483.32l-543.14 314.98z"/>
   <path class="fil32" d="M5656.84 15857.42c354.92,186.12 170.91,566 297.66,1627.32 14.2,118.88 20.75,252.97 53.59,367.63 141.19,493.92 -4.37,57.25 143.53,285.1l99.06 -189.55 -168.96 -1993.39c50,23.48 109.44,10.84 118.33,55.3 61.7,310.07 19.89,6.32 134.32,114.59 -20.75,-746.42 -43.45,-130.81 196.73,-389.63l71.69 702.74 72 -450.63c318.33,-6.63 24.42,-33.93 180.42,167.63l370.05 -540.65c-797.12,6.32 -493.69,12.71 -1106.49,-270.83l-461.94 514.36z"/>
   <path class="fil33" d="M7684.63 13155.83c-105.31,219.74 301.25,208.27 -553.28,249.53 -147.12,7.18 -465.14,-13.49 -637.99,-15.13 -343.06,-3.2 -1046.34,-101.8 -1200.64,159.52 0.86,0 3838.65,524.81 3135.45,-751.33 -109.75,-199.22 -258.27,-148.13 -415.84,-51.09l-327.69 408.51z"/>
   <path class="fil34" d="M11441.3 18556.82c-50.86,692.52 -242.9,2285.83 583.39,2487.78l225.28 -565.22c-820.29,-1500.25 -320.83,-846.73 -690.18,-1727.63l-118.49 -194.93z"/>
   <path class="fil23" d="M11978.98 15283l2.11 367.24 134.24 -16.07c630.04,-358.74 1141.98,539.32 1610.86,-149.77 -130.89,-122.86 -26.37,-43.92 -231.13,-169.89 -210.84,-129.64 3.98,29.33 -219.27,-117.47 -760.38,65.52 -982.69,-119.35 -1165.92,-742.68 -544.31,-75.51 -111.31,-61.16 -330.66,155.93 36.82,286.59 5.23,99.61 77.77,331.98 0.94,2.73 91.42,242.51 122,340.72z"/>
   <path class="fil27" d="M8986.91 14938.38c312.09,702.58 1992.45,975.21 2238.56,-96.1 -436.98,-29.56 -880.12,120.67 -1123.26,132.76 -270.36,13.57 -735.81,-54.13 -1115.3,-36.66z"/>
   <path class="fil35" d="M8747.28 19218.22l-56.63 2106.34c309.36,-620.29 -8.66,-911.94 371.92,-1593.78l200.78 -1517.33 -209.13 -779.88c-165.37,215.91 -139,-118.25 -218.96,924.66 -21.3,277.54 -43.53,626.14 -87.99,859.99z"/>
   <path class="fil36" d="M15525.51 10444.18c284.09,173.01 149.14,-414.2 246.88,295.01 -238.3,145.56 399.38,234.79 -483.47,74.18 -6.71,-1.17 -346.03,-109.13 -398.52,-123.4 -1094.79,-296.8 -880.43,23.71 -919.59,83 639.09,311.86 1322.4,390.18 2146.12,483.86 -79.17,-778.09 -470.44,-1114.83 -1253.76,-1296.35l-25.66 148.44 687.99 335.26z"/>
   <path class="fil37" d="M12666.82 19186.39c-615.37,-402.27 -422.78,-484.95 -700.71,-1189.33l-228.01 -368.41c-443.14,654.3 308.82,1905.01 662.72,2257.67l265.99 -699.93z"/>
   <path class="fil38" d="M7736.35 22075.73l409.05 167.24c334.25,-250.24 443.06,-396.81 545.25,-918.42l56.63 -2106.34c-39.86,-584.87 120.91,-1206.95 -99.85,-1619.44 -71.53,876.84 -32.37,1655.24 -103.2,2503.15 -122.93,1472.17 213.73,1325.52 -807.89,1973.81z"/>
   <path class="fil25" d="M8690.65 21324.56c-102.19,521.61 -211,668.18 -545.25,918.42l-125.2 365.92c589.32,-77.15 676.14,-241.73 977.86,-631.52l64.51 -2246.59c-380.58,681.83 -62.56,973.49 -371.92,1593.78z"/>
   <path class="fil39" d="M6250.69 17947.92l-4.52 514.05 91.97 671.38 312.95 -284.32 -316.7 -2724.6c-114.43,-108.27 -72.62,195.48 -134.32,-114.59 -8.89,-44.46 -68.33,-31.83 -118.33,-55.3l168.96 1993.39z"/>
   <path class="fil40" d="M12679.54 20956.38l26.83 -477.23 -188.46 -0.39 -706.48 2138.4c661.32,-81.51 556.64,20.83 678.48,-622.63 74.42,-392.67 173.64,-680.66 189.63,-1038.15z"/>
   <path class="fil41" d="M8291.27 16251.49zm-995.02 196.65l995.02 -196.65zm-995.02 196.65c761.79,84.32 217.47,-144 1649.39,109.36 651.02,115.29 222.47,54.13 424.65,-74.1 -320.28,-414.43 -1129.73,-577.07 -1752.98,-507.1 -297.58,775.52 -247.43,-10.45 -321.06,471.85z"/>
   <path class="fil42" d="M8736.75 14669.89c670.05,27.93 2378.34,120.67 2745.04,-434.17 -302.03,-84.01 -2445.66,155.31 -2745.04,434.17z"/>
   <path class="fil43" d="M13724.32 10514.46l246.49 258.51c39.16,-59.28 -175.2,-379.8 919.59,-83 52.5,14.27 391.81,122.23 398.52,123.4 882.85,160.61 245.17,71.37 483.47,-74.18 -97.74,-709.21 37.21,-122 -246.88,-295.01 -384.4,12.71 -1002.27,-29.64 -1291.35,-224.96l-231.2 19.11 -282.92 -60.06 4.29 336.2z"/>
   <path class="fil44" d="M14377.68 8598.37l-108.97 3.67c-376.68,176.68 -226.76,76.99 -563.42,355l230.74 157.18 519.27 -96.96c651.72,-528.63 1176.85,-453.75 1395.49,-1399.31 -339.71,379.57 -957.5,935.27 -1473.1,980.43z"/>
   <path class="fil45" d="M5584.92 14502.65c-259.29,-319.66 -276.13,-416.85 -815.61,-602.11 -138.46,711.79 196.26,1144.08 820.37,1160.23l-4.76 -558.12z"/>
   <path class="fil36" d="M14497.42 7976.21l241.5 90.25 -361.24 531.91c515.61,-45.16 1133.4,-600.86 1473.1,-980.43l-107.72 -84.4c-256.01,54.52 -408.35,92.28 -672.39,172.62l-573.25 270.05z"/>
   <path class="fil6" d="M14206.85 19482.18l-627.46 16.69 54.68 -494.47c-481.75,393.76 91.97,253.67 -303.2,1155.71 529.26,201.72 1458.28,-577.07 1500.02,-869.2 -456.09,134.79 -229.72,235.03 -537.68,372.31 -287.83,128.32 -369.82,21.61 -692.05,66.3l605.7 -247.35z"/>
   <path class="fil46" d="M11395.2 23021.38l247.04 10.76c626.61,27.15 940.03,278.32 1149.54,-483.78 -253.43,-50.47 -206.63,153.36 -187.52,-223.56 -25.12,24.1 -57.57,58.11 -73.09,74.57l-132.06 139.94c-105.31,114.43 43.29,-19.42 -161.47,182.69 -127.93,-0.94 -262.09,34.56 -418.8,-30.5l-454.68 -338.38c66.69,437.76 76.99,364.75 31.05,668.26z"/>
   <path class="fil47" d="M12373.37 9885.13c101.17,-37.13 53.04,-53.35 236.74,-23.01 283.62,46.88 175.74,37.05 329.96,110.77 331.28,-53.67 239.86,-67.16 361.94,-367.32l-709.13 -370.75c131.44,275.59 363.26,331.2 -702.58,32.53 26.21,62.4 85.26,65.6 95.94,129.49 23.79,143.14 260.3,101.33 45.32,247.35l341.81 240.95z"/>
   <path class="fil48" d="M9288.16 21412.16c-18.02,569.04 120.98,600.71 446.18,943.69l861.87 -96.57 -24.88 -158.04c-427.23,-24.03 -532.92,-24.73 -749.7,-261.08 -271.61,-207.18 -210.06,-73.17 -355.54,-458.98 -64.35,-170.98 -97.5,-355.54 -151.72,-527.85l-26.21 558.82z"/>
   <path class="fil6" d="M4488.74 20817.06c171.45,276.6 247.04,249.07 634.09,261.31 362.09,11.47 505.39,-22.78 865.77,26.13l-241.27 -539.79 -860.77 9.28c123.56,142.9 -183.39,95.16 367.24,288.46l-765.06 -45.4z"/>
   <path class="fil49" d="M7114.27 21984.39l149.85 233 794.63 519.04 -38.53 -127.54 125.2 -365.92 -409.05 -167.24 -368.18 26.44 309.21 -443.61c-55.69,-38.61 350.78,-450.78 -386.28,-28.32 -193.84,111.08 -144.31,216.15 -176.83,354.14z"/>
   <path class="fil50" d="M5320.8 11489.04l2580.37 57.18 -2636.77 -236.59c-88.77,624.66 -439.71,848.76 -144.62,1304.23 502.03,-62.25 385.42,106.01 403.12,-498.21 -333.78,490.8 -286.2,237.13 -294.23,235.18l92.12 -861.79z"/>
   <path class="fil51" d="M14134.23 15883.16l359.83 -42.43 448.6 -1487.77c-112.25,-220.44 89.7,-48.75 -254.37,-125.12l-554.06 1655.32z"/>
   <path class="fil52" d="M5857.16 14734.79c321.84,541.66 1016.94,806.95 1634.03,250.16 -83.23,-38.22 -1220.68,-167.79 -1634.03,-250.16z"/>
   <path class="fil53" d="M14134.23 15883.16l554.06 -1655.32 -297.12 -3.28 -365.06 1190.81c-137.6,756.4 -133.85,217.86 108.11,467.79z"/>
   <path class="fil54" d="M4833.83 19049.18l23.48 149.92c-21.76,591.58 -47.5,149.53 166.46,319.97 392.28,-441.81 426.99,-204.68 817.87,-376.06l-124.73 -350.94c-509.68,-3.28 -484.01,47.97 -883.08,257.1z"/>
   <path class="fil39" d="M8106.25 17543.78l132.22 1442.84c229.02,157.33 71.84,-166.85 213.81,127.85l-50.7 -1877.71 -295.32 307.02z"/>
   <path class="fil27" d="M12115.34 15634.17l-134.24 16.07 -60.61 635.34 1106.1 -291.11c-23.4,-5.15 -63.11,-77.22 -78.71,-50.7l-358.58 -192.75c-192.51,-70.44 -323.95,-83.54 -473.95,-116.85z"/>
   <path class="fil49" d="M11738.73 10532.79l874.74 -162.25c152.42,111.47 49.61,-63.96 116.46,201.33 582.85,67.94 189.24,60.84 393.14,-83.39 -174.65,-166.38 -192.75,263.58 -112.95,-359.29 -25.66,21.45 -218.41,151.25 -201.48,142.75l-241.11 -268.26 -77.69 179.18 -1103.29 220.99 352.19 128.94z"/>
   <path class="fil37" d="M6651.08 18849.02l-312.95 284.32 -91.97 -671.38c-17.55,429.65 -129.33,1301.11 264.2,1536.68l140.72 -1149.62z"/>
   <path class="fil55" d="M7205.77 5869.72l-109.05 718.1c443.06,48.75 420.13,182.84 593.45,-163.89 154.45,-309.05 -44.93,-458.12 -87.36,-523.25l-69.66 592.21 -261.31 -58.97 56.01 -211.55 146.18 -613.81 -268.26 261.16z"/>
   <path class="fil43" d="M11738.73 10532.79l0 73.17c468.57,31.75 262.02,-22.7 322,131.67l95.24 163.34c185.57,-46.33 220.75,-18.25 374.34,-115.91 237.21,-150.78 44.07,25.98 199.61,-213.18 -66.85,-265.29 35.96,-89.86 -116.46,-201.33l-874.74 162.25z"/>
   <path class="fil56" d="M13700.14 8770.45c182.06,-458.82 144.39,-318.65 614.75,-597.2 23.32,-21.14 48.13,-58.81 60.22,-72.78 11.62,-13.18 51.56,-25.35 60.84,-65.68 8.81,-38.22 37.91,-42.82 61.47,-58.58 -642.36,65.37 -983.32,288.22 -1053.21,955.47 398.29,-239.78 5.54,77.69 255.93,-161.23z"/>
   <path class="fil43" d="M12940.07 9972.88l70.05 156.32c-79.8,622.86 -61.7,192.9 112.95,359.29 428.24,-429.49 17.32,40.41 324.03,-248.75 54.84,-523.64 118.18,-304.92 -145.09,-634.17 -122.08,300.16 -30.66,313.65 -361.94,367.32z"/>
   <path class="fil57" d="M6037.35 21822.07c426.06,158.58 741.12,28.94 1061.17,-114.2 -521.46,-299.61 -621.3,-256.79 -1061.17,114.2z"/>
   <path class="fil58" d="M10504.09 8062.41l11.31 -570.6c-98.75,-174.34 24.1,-589.16 -178.55,-18.25 -6.4,18.17 -38.38,355.7 -35.26,385.5 45.32,432.14 103.98,377.85 492.75,483.16l17.39 -573.87c-206.48,471.85 126.29,346.1 -307.65,294.07z"/>
   <path class="fil59" d="M13813.01 9355.24c-409.68,-314.98 -473.25,-273.48 -1037.69,-325.51 322.39,313.58 549.69,274.73 889.87,657.89 39.31,-418.65 -113.34,-205.7 147.82,-332.37z"/>
   <path class="fil60" d="M14234.16 10219.22c289.08,195.32 906.95,237.68 1291.35,224.96l-687.99 -335.26 -487.29 23.01 -116.07 87.29z"/>
   <path class="fil61" d="M14350.23 10131.93l487.29 -23.01 25.66 -148.44c-361.78,-164.51 -592.05,-194.31 -1069.36,-30.73l556.4 202.19z"/>
   <path class="fil62" d="M5553.41 21501.16l352.81 102.42 412.02 -331.05c15.68,-13.34 47.58,-44.31 69.35,-68.49l-398.99 -99.53c-34.32,23.4 -210.38,118.18 -242.44,148.6 -305.15,290.1 -0.62,-144.7 -192.75,248.05z"/>
   <path class="fil60" d="M13700.14 8770.45l5.15 186.59c336.66,-278.01 186.74,-178.32 563.42,-355 6.55,-41.03 16.85,-134.24 20.2,-166.23 3.35,-32.06 21.14,-221.22 25.98,-262.56 -470.36,278.55 -432.69,138.38 -614.75,597.2z"/>
   <path class="fil63" d="M14351.86 20247.87l657.65 -42.82 233.47 -81.98c-134.63,-126.83 -28.94,-88.92 -251.17,-181.59 -25.9,-10.84 -184.25,-44.62 -224.89,-53.35 -278.86,97.04 -317.79,41.42 -415.06,359.75z"/>
   <path class="fil64" d="M13797.57 22425.66l-72.54 -21.69 -679.57 157.18c561.16,93.68 1107.97,-23.79 1547.21,-244.78 -272.08,-78 -490.33,-31.98 -795.09,109.28z"/>
   <path class="fil64" d="M11154.41 12806.29l236.12 74.81 -16.54 -459.83c-361.08,-198.99 -183.31,-122.08 -631.99,-74.65 24.96,20.52 68.25,13.49 79.56,55.07 40.72,150.08 59.28,17.55 151.09,112.33 203.82,210.3 35.34,-180.11 181.75,292.28z"/>
   <path class="fil65" d="M11450.12 22108.26c24.34,-23.87 61.7,-50.08 78.47,-65.37 16.3,-14.9 55.85,-46.41 74.73,-64.9l268.26 -370.36 -705.78 245.4c90.56,298.52 -205.93,113.42 284.32,255.23z"/>
   <path class="fil66" d="M14314.89 8173.25c-4.84,41.34 -22.62,230.5 -25.98,262.56 -3.35,31.98 -13.65,125.2 -20.2,166.23l108.97 -3.67 361.24 -531.91 -241.5 -90.25c-23.56,15.76 -52.65,20.36 -61.47,58.58 -9.28,40.33 -49.22,52.5 -60.84,65.68 -12.09,13.96 -36.9,51.64 -60.22,72.78z"/>
   <path class="fil67" d="M8505.24 15063.81l-40.56 -16.22c-580.27,0.55 -216.69,-183.93 -612.72,187.13l398.29 63.73c328.01,-63.11 359.29,123.64 254.99,-234.64z"/>
   <path class="fil48" d="M4488.74 20817.06l765.06 45.4c-550.63,-193.29 -243.68,-145.56 -367.24,-288.46l-381.13 -91.26 -16.69 334.32z"/>
   <path class="fil15" d="M11114.39 11984.99c532.22,58.97 530.58,7.8 875.67,-201.64 -333,-31.51 -685.42,-29.56 -875.67,201.64z"/>
   <path class="fil0" d="M12567.52 10003.69l241.11 268.26c-16.93,8.5 175.82,-121.3 201.48,-142.75l-70.05 -156.32c-154.21,-73.71 -46.33,-63.89 -329.96,-110.77 -183.7,-30.34 -135.57,-14.12 -236.74,23.01l194.15 118.57z"/>
   <path class="fil68" d="M13936.03 9114.21c125.74,143.68 65.76,135.96 333.23,244.15l313.65 -299.85 -127.61 -41.26 -519.27 96.96z"/>
   <polygon class="fil69" points="11707.84,23384.64 11811.98,23032.22 11642.24,23032.14 11395.2,23021.38 11419.7,23285.42 "/>
   <path class="fil70" d="M11606.83 12363.23c203.43,473.25 -81.67,257.26 374.96,-0.7 -164.04,-259.44 46.96,-59.67 -340.57,-167.55l-34.4 168.25z"/>
   <path class="fil1" d="M12060.73 10737.63c-59.99,-154.37 146.57,-99.92 -322,-131.67l-837.61 48.91 1159.61 82.76z"/>
   <path class="fil71" d="M10571.33 22101.24l24.88 158.04c260.22,-134.56 158.5,130.03 361.16,-419.51l-386.04 261.47z"/>
   <path class="fil72" d="M10757.44 22340.09c216.85,16.07 429.8,-56.32 453.28,145.48l239.39 -377.3c-19.58,17.55 -49.14,39.47 -64.12,46.18l-507.88 152.03c-23.25,-36.04 -81.51,19.03 -120.67,33.62z"/>
   <path class="fil73" d="M13367.77 20724c50.94,-213.26 -112.72,-134.24 65.37,-213.81 -369.97,-31.05 -75.2,-115.91 -316.7,94.07 128.94,171.3 -243.06,203.51 251.33,119.74z"/>
   <path class="fil39" d="M14735.33 15734.8c300.55,210.61 247.97,-261.63 249.53,247.74 351.8,85.34 -3.28,44.54 154.29,-158.5l-280.27 -173.48 -123.56 84.24z"/>
   <path class="fil74" d="M13813.01 9355.24c132.76,350.86 -4.13,210.61 293.61,303.44 -183,-520.05 -2.03,-131.12 -293.61,-303.44z"/>
   <path class="fil72" d="M17751.98 20310.66c435.34,-112.87 103.67,5.23 222.39,-205.85l-140.33 -153.75 -82.06 359.6z"/>
   <path class="fil68" d="M15392.67 19603.17l-282.3 0.16c-1.48,-41.58 -29.33,-215.45 -34.4,-236.27 -3.82,-15.99 -31.12,-42.67 -34.56,-85.65 -3.67,-45.32 -28.39,-58.27 -42.12,-87.68l59.75 510.15 333.62 -100.7z"/>
   <path class="fil64" d="M15949.15 20883.13l-174.57 -12.32c-172.7,151.87 -189.24,-215.99 -120.36,218.41l294.93 -206.09z"/>
   <path class="fil59" d="M13230.17 17251.58l147.74 -282.76 -14.43 -80.73 -286.74 89.94c248.75,123.32 230.81,-154.99 153.43,273.56z"/>
   <polygon class="fil59" points="7264.12,22217.39 7114.27,21984.39 6965.59,22092.9 "/>
   <polygon class="fil75" points="13724.32,10514.46 13720.03,10178.26 14002.95,10238.33 13621.05,10113.21 "/>
   <path class="fil75" d="M7533.15 6492.89c-294.46,0 -198.29,63.18 -205.31,-270.52l-56.01 211.55 261.31 58.97z"/>
   <polygon class="fil76" points="8291.27,16251.49 -0,0 "/>
  </g>
 </g>
</svg>
