<?xml version="1.0" encoding="UTF-8"?>
<!DOCTYPE svg PUBLIC "-//W3C//DTD SVG 1.1//EN" "http://www.w3.org/Graphics/SVG/1.1/DTD/svg11.dtd">
<!-- Creator: CorelDRAW 2021 (64-Bit) -->
<svg xmlns="http://www.w3.org/2000/svg" xml:space="preserve" width="26.356mm" height="22.7048mm" version="1.1" style="shape-rendering:geometricPrecision; text-rendering:geometricPrecision; image-rendering:optimizeQuality; fill-rule:evenodd; clip-rule:evenodd"
viewBox="0 0 482.51 415.66"
 xmlns:xlink="http://www.w3.org/1999/xlink"
 xmlns:xodm="http://www.corel.com/coreldraw/odm/2003">
 <defs>
  <style type="text/css">
   <![CDATA[
    .fil61 {fill:#0B0402}
    .fil19 {fill:#130C0B}
    .fil0 {fill:#1B120C}
    .fil82 {fill:#1C1B1C}
    .fil12 {fill:#23140B}
    .fil23 {fill:#28221A}
    .fil29 {fill:#371B15}
    .fil81 {fill:#382509}
    .fil48 {fill:#382617}
    .fil16 {fill:#3A3736}
    .fil54 {fill:#482817}
    .fil60 {fill:#4A3617}
    .fil78 {fill:#4F320A}
    .fil47 {fill:#555150}
    .fil56 {fill:#573925}
    .fil86 {fill:#65635A}
    .fil40 {fill:#674819}
    .fil59 {fill:#684626}
    .fil66 {fill:#695015}
    .fil67 {fill:#69542D}
    .fil90 {fill:#695C63}
    .fil52 {fill:#6A4A37}
    .fil85 {fill:#73504B}
    .fil36 {fill:#742F18}
    .fil45 {fill:#744B37}
    .fil91 {fill:#76471A}
    .fil93 {fill:#774925}
    .fil73 {fill:#78361B}
    .fil84 {fill:#785626}
    .fil74 {fill:#7A7776}
    .fil30 {fill:#847B7A}
    .fil18 {fill:#85331C}
    .fil65 {fill:#873531}
    .fil77 {fill:#886338}
    .fil62 {fill:#895627}
    .fil83 {fill:#898786}
    .fil14 {fill:#8D3A1D}
    .fil88 {fill:#8D5C65}
    .fil53 {fill:#8E5636}
    .fil80 {fill:#8F5149}
    .fil41 {fill:#926B6B}
    .fil63 {fill:#946D48}
    .fil9 {fill:#96571D}
    .fil34 {fill:#965824}
    .fil50 {fill:#974446}
    .fil92 {fill:#987727}
    .fil28 {fill:#996737}
    .fil70 {fill:#999796}
    .fil22 {fill:#9A6527}
    .fil87 {fill:#A4A09E}
    .fil20 {fill:#A54A1D}
    .fil64 {fill:#A64A22}
    .fil21 {fill:#A66726}
    .fil68 {fill:#A67727}
    .fil31 {fill:#A76936}
    .fil25 {fill:#AA541C}
    .fil89 {fill:#AA9694}
    .fil49 {fill:#AF5554}
    .fil79 {fill:#AF8C2F}
    .fil72 {fill:#B0851F}
    .fil15 {fill:#B3551D}
    .fil32 {fill:#B67737}
    .fil39 {fill:#B8591C}
    .fil71 {fill:#B88437}
    .fil58 {fill:#B98627}
    .fil35 {fill:#BB8488}
    .fil75 {fill:#C3C1BE}
    .fil33 {fill:#C55A2C}
    .fil55 {fill:#C77632}
    .fil94 {fill:#CA9628}
    .fil38 {fill:#CC7153}
    .fil6 {fill:#D28B29}
    .fil24 {fill:#D66D29}
    .fil26 {fill:#D69529}
    .fil69 {fill:#D79837}
    .fil13 {fill:#D89845}
    .fil43 {fill:#D8A39C}
    .fil44 {fill:#DC732B}
    .fil11 {fill:#DC9C2B}
    .fil17 {fill:#DDA347}
    .fil57 {fill:#E2DDDB}
    .fil7 {fill:#E3752A}
    .fil46 {fill:#E5A834}
    .fil27 {fill:#E8AAA5}
    .fil2 {fill:#E97D2A}
    .fil1 {fill:#EA7B29}
    .fil10 {fill:#EBB72B}
    .fil8 {fill:#EC802D}
    .fil37 {fill:#EEBB30}
    .fil51 {fill:#F2EDED}
    .fil42 {fill:#F4F4F2}
    .fil4 {fill:#F5C52A}
    .fil3 {fill:#F8F8F8}
    .fil76 {fill:#F9F5F5}
    .fil5 {fill:#FCC624}
   ]]>
  </style>
 </defs>
 <g id="Capa_x0020_1">
  <metadata id="CorelCorpID_0Corel-Layer"/>
  <g id="_2035279635952">
   <path class="fil0" d="M315.36 377.91c-12.21,-4.01 -10.29,-0.81 -11.57,-11.06 -1.19,-9.54 1.28,-12.49 3.95,-15.52 8.04,4.74 6.61,16.77 7.62,26.58zm-102.31 2.85l5.79 -28.37c2.9,-7.35 24.62,-1.02 22.31,19.45 -8.09,4.4 -19.38,8.88 -28.1,8.92zm-48.91 -11.97l-22 5.68 -11.07 -0.44c14.8,-12.64 4.68,-23.94 9.03,-44.27 2.98,-13.96 12.6,-25.85 22.49,-30.66l0.59 5.99c6.27,5.44 6.58,7.91 9.25,14.31 5.27,3.55 3.11,-0.51 3.37,11.15l-1.37 36.99 -10.3 1.25zm244.09 -13.45l2.09 -0.57 4.42 -17.6c7.13,9.05 23.39,43.81 24.04,58.32l-4.49 0.27c-14.67,-5.4 -41.29,-20.36 -45.56,-30.95 13,-1.2 13.94,7.91 24.55,12.04 11.98,4.67 4.24,1.92 7.64,-0.34 -7.47,-1.72 -8.81,-3.67 -17.94,-11.43l-0.19 -9.38 5.44 -0.36zm-118.93 13.61c-8.21,-3.95 -12.77,-5.41 -17.19,-11.59l16.96 -0.72 0.23 12.31zm63.82 -30.53l0.4 27.28c-7.99,-2.63 -22.66,-11.48 -28.15,-17.85l27.76 -9.43zm7.1 -6.03c4.29,13.06 -0.91,28.19 1.86,41.32 4.86,23.12 10.96,18.37 -10.74,28.23l-5.55 -10.01c-0.13,-0.26 -0.53,-0.99 -0.66,-1.25 -0.16,-0.32 -0.66,-1.29 -0.81,-1.58 -0.17,-0.33 -0.68,-1.21 -0.89,-1.86 29.15,-8.71 5.41,-42.08 16.79,-54.85zm-173.23 -1.3c9.21,1.25 15.82,7.08 23.03,12.55 -8.36,8.55 -13.75,14.32 -21.29,17.11l-1.73 -29.66zm-2.21 36.61l2.55 10.75c7.13,7.32 3.73,6.79 12.55,8.99 -1.1,9.48 -1.01,3.33 -2.38,5.76 -0.15,0.26 -0.63,0.64 -1.68,7.9l-8.25 0.01c-17.44,-5.25 -7.04,-18.19 -6.67,-33.41l-0.25 -43.43 6.34 6.82c-4.43,8.3 -3.62,23.97 -2.21,36.61zm211.5 -69.8c0.98,-8.47 1.13,-5.37 5.56,-14.13 2.19,-4.33 3.64,-8.23 5.91,-12.29 7.16,2.55 4.81,2.47 13.48,12.49 5.34,6.16 6.24,7.52 7.88,14.96 7.09,5.47 10.48,21.63 20.82,30.56 -12.31,2.48 -50.47,-10.63 -66.19,-14.27 2.18,-8.13 5.79,-13.22 12.53,-17.33zm-26.82 14.52c2.54,7.21 -0.83,1.26 10.18,13.14 6.95,7.5 7.51,4.77 10.73,12.44 7.78,4.13 7.37,4.24 10.97,12.49 -4.2,2.17 -5.15,3.57 -6.78,-1.45l-19.69 -18.53c-18.14,-21.92 -12.26,-8.92 -12.88,-20.37 2.95,0.97 5.4,1.35 7.47,2.29zm-221.26 -77.23c-2.06,27.81 3.48,31.87 5.59,53.59 -11.32,-0.06 -20.17,1.63 -26.94,-5.55 -11.42,-1.3 -12.96,-4.45 -26.12,-12.94 -7.41,-6.6 -15.39,-11.14 -24.44,-15.74 0.63,-0.36 1.47,-0.71 1.98,-0.9 0.51,-0.19 1.39,-0.63 2.02,-0.84 13.72,-4.66 -12.36,3.06 4.35,-1.33 0.98,-0.26 5.24,-0.99 6.71,-1.29 21.87,-4.43 19.93,-8.42 35.64,-14.59 7.86,-11.03 13,-11.18 23.01,-16.1l-1.8 15.68zm324.51 -15.39l4.38 3.91 -3.15 1.76 -11.41 7.31c-6.66,9.73 -22.77,20.54 -33.83,20.3 -6.55,3.36 -8.1,3.67 -17.42,2.25l-0.76 -17.69 -5.46 -24.73 -3.07 -11.22c28.25,-0.49 47.59,12.12 70.72,18.11zm-372.4 -78.44c18.46,2.62 33.86,2.65 51.31,4.54 18.28,1.98 28.15,6.93 43.44,10.61 -3.66,9.72 -3.42,4.79 -12.97,12.74l-20.45 20.14 -8.58 17.1c-12.02,-7.17 -27.57,-20.9 -32.67,-33.65 -4.11,-3.73 -19.93,-23.95 -22.6,-28.81 -3.62,-4.17 -2.22,5.28 -3.15,-5.26l5.68 2.58zm335.31 2.26c-3.86,11.89 -6.38,13.97 -12.1,23.55 -4.06,6.82 -7.06,11.56 -15.11,13.95 -3.56,6.76 2.04,0.07 -4.47,7.33 -6.7,7.49 -0.99,1.25 -6.93,4.86l-8.9 -15.61c-4.88,-1.99 -3.84,-1.3 -8.85,-5.41 -0.86,-0.71 -3.58,-3.15 -4.25,-3.82 -2.64,-2.61 -2.03,-2.12 -4.18,-4.81 -5.47,-2.26 -17.71,-8.68 -22.7,-12.36 1.61,-1.82 1.44,-1.87 4.11,-4.08 21.2,-17.49 77.34,-17.28 95.51,-13.33 -5.84,5.94 -4.22,8.43 -12.13,9.72zm-232.34 -33.8c-1.78,-12.28 9.22,-47.06 14.7,-58.68 7.93,4.17 21.35,18.6 25.22,27.47l11.48 12.89c2.89,4.57 4.97,9 6.93,13.44 4.75,10.75 7.68,19.54 6.95,31.88l-43.09 8.04 -8 3.38c-3.92,-5.28 -9.1,-10.31 -13.51,-16.34 -5.29,-7.22 -5.4,-9.14 -2.77,-18.07l2.08 -4.02zm151.6 -7.46c-2.75,17.03 -5.64,31.77 -13.94,45.91l-36.63 -8.78 -29.82 -1.93c1.59,-28.12 62.07,-57.33 94.31,-63.67 -3.61,9.56 -9.84,17.16 -13.93,28.47zm-168.96 0.11l-1.26 -4.23c-3.43,5.35 -0.86,2.26 -5.19,5.81l-22.23 -18.8c1.99,4.45 1.54,2.34 2.73,5.91 0.19,0.59 0.71,3.63 0.88,4.19 1.13,3.75 2.93,5.7 5.28,11.61l1.72 6.69c6.76,-5.19 2.51,0.11 -2.52,-14.83 7.23,2.78 7.03,1.15 12.28,8.25l22.18 27.14 18.02 21.61c-12.08,1.01 -9.86,-2.68 -22.8,-16.75l-19.68 -19.55c-2.6,-1.73 -3.08,-1.67 -5.31,-3l-3.38 -2.26c-15.94,1.55 -21.8,-9.15 -26.97,-18.29l9.88 1.43c0.99,-3.09 1.49,-1.4 -1.95,-6.87 -11.57,-0.62 -12.52,-1.9 -17.7,-11.56l17.29 4.38c-5.77,-2.41 -20.29,-9.56 -23.31,-15.27l9.81 4.93 -0.31 -4.11c-2.77,-4.97 -8.98,-6.28 -16.01,-7.27 3.55,17.27 8.68,17.79 14.57,29.53 17.79,35.45 33.64,24.06 46.55,35.58 9.38,8.37 8.56,13.7 18.63,21.86l3.53 6.15 -5.59 1.77 0.73 -3.67c-37.96,-13.47 -66.3,-14.65 -105.84,-19.31 0.05,15.01 30.9,50.75 42.97,64.36 6.74,7.59 11.65,8.33 17.65,14.95l-42.96 24.6c-9.2,9.33 -21.96,7.4 -35.08,11.3 -0.09,9.21 0.64,7 7.62,12 2.37,1.7 4.16,2.73 6.14,4.57 3.85,3.59 0.96,0.22 4.07,4.85 25.35,7.06 13.13,23.67 65.44,23.4 -1.46,7.39 -1.08,3.69 -6.48,9.52 -14,15.11 -8.14,14.75 -15.28,27.72 -1.02,23.47 3.52,26.35 -4.78,36.87 -6.91,8.75 -2.98,-3.02 -6.59,9.28 16.72,7.02 36.07,-3.3 54.34,-3.23l-4.71 24.53c10.24,8.6 15.34,8.33 28.84,7.05l1.43 -6.84c0.34,-2.09 0.73,-4.4 0.3,-5.82 -2.14,-7.11 2.16,-2.55 -2.99,-5.24l1.27 -4.2c-8.43,-4.17 -7.66,-4.45 -11.68,-13.95l4.17 -3.8c0.42,-0.32 1.09,-0.74 1.53,-1.06l15.26 -11.46 5.3 -5.61c-1.11,12.79 0.35,3.87 -3.39,7.18 0.43,13.58 -1.57,15.97 -5.82,25.53 -2.96,9.53 -1.3,2.01 1.2,5.24l14.96 -1.06 5.55 -0.2 16.03 -4.57 1.07 14.98c6.48,-7.37 4.42,-25.96 -1.1,-38.52 -4.88,-11.1 -23.76,-12.96 -25.08,-17.03 -0.29,-0.88 -1.14,-0.8 -1.64,-1.29 -11.64,-1.02 -23.19,-11.58 -32.31,-17.66 -10.68,-7.12 -13.12,-14.03 -21.55,-25.95 -0.46,-0.53 -1.08,-1.22 -1.34,-1.64l-5.45 -14.11c-4.46,-22.58 -6.78,-40.51 0.09,-65.12 1.73,-6.21 7.93,-19.66 11.21,-24.41 4,-5.81 13.4,-14.32 19.69,-17.1 12.64,-16.05 15.5,-6.84 29.08,-12.23 10.62,-4.66 1.26,-14.29 45.19,-17.06 19,-1.2 36.49,0.68 54.74,3.52l12.72 4.58c28.67,8.45 69.79,36.52 70.24,64.26 15.74,26.86 0.78,60.2 -13.44,84.65 -2.01,3.45 -4.23,8.13 -7.79,9.52 -4.78,1.86 -1.58,0.21 -3.76,-0.09 -1.68,-0.23 0.6,-6.11 -5.37,3.63l-2.74 -4.97c-9.66,0.84 -4.57,0.43 -7.08,3.47 -0.79,11.28 -1.02,4.19 1.16,10.61 6.34,6.22 -32.54,20.43 -41.33,20.84 -5.98,6.04 -9.42,3.61 -18.83,6.83l-5.4 43.3 -2.05 -38.57c-3.71,-2.51 -0.2,-1.21 -6.25,-2.29l-33.1 2.09c-7.28,10.93 -1.86,34.28 -5.62,47.41 0.98,10.79 -0.9,7.15 5.67,12.23 4.05,-8.11 1.35,-20.23 1.25,-31.4 -0.13,-15.36 2.22,-15.2 9.01,-24.53 4.49,3.61 6,5.64 12.2,9.85 1.94,1.32 7.78,4.9 7.93,5.01 5.47,4.02 2.23,-0.17 5.02,4.84 5.57,10 -2.11,27.63 5.62,38.52 6.26,-7 5.72,-19.68 7.91,-35.98l15.38 3.9 0.44 -27.44 -2.79 -6.98c11.63,-1.13 2.13,-0.89 6.03,2.45 6.38,5.43 21.54,16.07 29.73,19.37 -6.1,20.06 -18.78,9.22 -6.96,32.92 15.64,2.33 25.46,-0.81 27.22,-15.64 0.68,-4.56 -2.6,-7.88 -2.69,-8.06 -6.47,-13.11 -3.45,-29.05 -3.93,-51.62 0.66,0.61 1.61,0.57 1.93,1.87 1.84,7.43 7.26,-5.59 8.84,36.42 0.49,13.13 -0.3,11.16 3.39,14.08l0.59 1.13 0.78 -37.51c7.26,5.22 6.26,8.11 14.72,13.34 -5.15,4.38 6.5,2.57 -10.44,4.06l-0.24 9.85c3.21,0.86 46.52,37.93 56.51,28.1 7.36,-12.94 -16.89,-56.47 -22.4,-67.17 -5.04,-1.4 -2.77,-1.47 -8.12,-0.13l-3.22 15.87c-8.01,-7.21 -16.08,-17.15 -24.97,-25.48 -3.23,-2.73 -1.22,2.31 -4.53,-5.32l7.16 2.77 25.14 5.67 9.97 5.33c13.08,2.03 23.68,8.43 38.99,1.91 -3.03,-9.37 -7.15,-7.73 -13.5,-17.37 -5.12,-7.78 -6.05,-12.79 -10.21,-20.59 -7.6,-14.27 -23.97,-24.11 -25.75,-34.32 22.24,0.1 29.65,-1 44.03,-12.28 5.53,-4.33 24.22,-18.41 28.57,-25.72 -8.51,-15.07 -61.97,-25.12 -82.38,-25.09 13.93,-19.1 14.17,-4.13 38.4,-46.77 1.92,-3.38 2.48,-4.97 5.2,-7.65 5.79,-5.7 1.88,-2.82 7.14,-3.99 -0.07,-15.78 -4.31,-12.01 -22.51,-11.93 -12.13,0.06 -23.85,0.38 -35.98,0.69 -17.74,2.12 -21.8,4.29 -35.78,9.72l-6.08 4.19 3.63 -6.98c1.68,-12.71 4.36,-36.68 12.97,-43.67 3.05,-10.24 6.66,-11.51 6.13,-21.47 -10.58,-3.08 -19.59,1.91 -29.6,4.55 -2,2.37 -29.2,14.64 -35.42,18.07 -17.51,9.66 -17.08,11.89 -31,24.82 -0.92,2.01 -1.09,4.35 -3.66,6.31l-2.12 -6.2c-4,-23.37 -37.04,-70.19 -56.04,-71.86 -7.85,12.62 -17.74,57.59 -20.3,74.64 -10.16,-6.65 -11.74,-8.57 -9.2,-18z"/>
   <path class="fil1" d="M304.31 139.5c0.63,-0.47 1.63,-1.81 2.01,-1.2 0.38,0.6 1.5,-0.89 2.04,-1.12 55.07,-23.79 25.66,-18.98 46.52,-34.81 4.09,-11.31 10.32,-18.91 13.93,-28.47 -32.24,6.34 -92.72,35.55 -94.31,63.67l29.82 1.93z"/>
   <path class="fil2" d="M120.38 172.85c8.35,5.74 7.96,7.41 19.22,11.02 6.54,2.1 15.57,4.39 22.04,5.53l20.45 -20.14c9.56,-7.95 9.31,-3.02 12.97,-12.74 -15.29,-3.69 -25.17,-8.63 -43.44,-10.61 -17.45,-1.89 -32.85,-1.92 -51.31,-4.54l-2.52 2.68c2.67,4.86 18.49,25.08 22.6,28.81z"/>
   <path class="fil3" d="M222.89 212.44c1.72,2.6 4.56,-2.45 1.65,9.6 -11,4.01 -1.88,1.33 -5.66,-1.42 0.38,-11.08 -0.78,-4.81 4.01,-8.18zm34.11 31.17l4.08 -16.82c-2.21,-4.35 -25.17,-17.67 -32.02,-22.47 -12.32,-8.65 -17.24,-17.32 -37.6,-16.1 -16.41,9.2 -22.33,12.5 -22.1,37.33 17.77,-3.93 32.28,-8.06 50.13,1.03 10.61,5.41 27.6,21.47 37.51,17.04z"/>
   <path class="fil1" d="M370.83 163.66c17.94,0.62 23.94,11.17 38.58,4.93 10.78,-4.59 16.96,-16.22 26.2,-24.97 7.91,-1.29 6.29,-3.78 12.13,-9.72 -18.17,-3.95 -74.31,-4.16 -95.51,13.33 -2.67,2.21 -2.5,2.26 -4.11,4.08 5,3.67 17.23,10.09 22.7,12.36z"/>
   <path class="fil4" d="M259.21 187.6c2.89,4.35 5.46,10.71 8.78,16.54 -6.64,-2.58 -4.46,1.98 -8.35,-5.03 -2.04,-3.68 -0.88,-7.59 -0.42,-11.52zm-37.98 -17.1l1.53 2.93c5,2.82 7.99,4.84 11.82,7.51 0.13,0.09 6,4.15 6.13,4.27 9.12,8.5 2.18,1.46 2.91,4.86 0.74,0.38 1.86,0.16 2.21,1.13 0.36,1 3.11,1.38 3.87,1.68 5.51,2.15 0.58,-1.17 5.01,1.88 1.83,1.26 3.18,2.7 4.71,4.96 3.09,4.55 1.67,2.1 3.33,7.28l0.41 0.96c10.49,-1.26 1.7,1.36 11.91,-3.43l1.75 -8.33 -4.89 -8.62 -2.94 -8c4.22,-3.23 -3.99,-2.94 10.34,-3.23l1.58 -4.46 3.2 2.65 -1.79 10.63 -2.82 11.03 -3.42 19.76 6.88 -0.22c1.96,-10.02 -1.18,-5.4 6.71,-10.32l4.71 -10.54 3.45 -16.36c5.35,3.1 2.75,3.65 9.9,0 -2.22,9.2 -1.78,6.57 -6.39,13.62l10.01 -14.29 8.77 -2.39c-3.1,12.85 -0.84,1.91 1.44,6.72l5.62 0.64c3.9,-7.3 -9.9,-5.71 8.12,-6.07l-5.81 -6.33c-7.47,-0.87 -23.54,-5.01 -33.32,-7.91 4.74,0.67 0.2,0.68 2.25,-4.31l-15.1 1.79c-4.87,-0.59 -2.18,-2.39 -17.86,-1.51 15.16,-4.49 8.19,0.62 9.81,5.62l-15.12 4.65c-3.24,0.52 -8.11,1.43 -14.27,1.73l-18.18 -0.22c-0.37,0.01 -6.36,0.22 -6.46,0.22z"/>
   <path class="fil3" d="M351.44 220.08c-15.58,9.42 -9.1,-4.97 -21.68,11.24l-3.66 -7.27 -22.25 0.29 -16.06 0.44c-2.56,10.78 -1.63,8.75 -0.41,20l7.26 6.24c19.69,-3.74 29.63,-7.47 54.13,-8.05 18.93,-0.44 44.27,1.35 36.76,-20.46 -1.92,-1.14 2.39,-1.22 -7.17,-3.2 -3.39,-0.7 -5.31,-0.54 -8.64,-0.4 -6.68,0.29 -10.76,1.32 -18.27,1.15z"/>
   <path class="fil5" d="M187.85 171.63l2.83 2 0.78 1.26c4.02,-5.52 -5.92,-1.46 6.92,-5.08 2.46,-0.69 7.21,-0.37 9.85,-0.43 8.36,-0.11 4.81,0.03 8.03,2.64l4.97 -1.51c0.1,-0 6.09,-0.21 6.46,-0.22l18.18 0.22c6.15,-0.3 11.02,-1.21 14.27,-1.73l15.12 -4.65c-1.62,-4.99 5.35,-10.11 -9.81,-5.62 15.68,-0.88 12.99,0.92 17.86,1.51l15.1 -1.79 18.45 -12.36c-18.25,-2.84 -35.73,-4.72 -54.74,-3.52 -43.94,2.77 -34.58,12.4 -45.19,17.06 -13.57,5.38 -16.44,-3.82 -29.08,12.23z"/>
   <path class="fil6" d="M262.6 299.26l12.24 -1.32 7.87 6.02c-2.02,4.85 4.96,4.63 -8.34,6.77 -0.68,0.11 -9.42,-0.89 -9.98,-1.09 -8.57,-3.19 -5.61,-6.35 -1.8,-10.37zm23.78 0.49c-21.63,-10.61 -17.29,-3.3 -35.07,2.86 -5.03,-1.78 -4.7,-1.04 -8.47,-3.49l-2.28 2.55 6.63 5.01c11.29,5.94 18.03,2.77 21.53,16.47 9.45,9.58 -0.03,8.1 12.38,12.57 13.95,1.27 25.39,-3.23 38.64,-5.85l1.04 -10.42 -10.65 -8.93c0.58,-0.46 1.14,-1.43 1.31,-0.98l7.08 1.28c-0.7,-14.18 -3.87,-6.95 1.95,-10.02 -0.25,-0.18 0.68,-13.61 -12.76,-0.02 0,-19.63 0.14,-5.26 -3.94,-10.99l-1.13 12.81c-7.96,2.35 -10.35,1.66 -16.27,-2.85z"/>
   <path class="fil4" d="M329 158.69l2.08 4.26c4.2,6.77 -2.39,-5.35 3.39,5.22 5.76,10.54 2.36,11.54 1.47,15.16l-8.78 -0.48 2.01 1.71 -0.84 4.64 18.2 -5.71c9.37,3.71 3.25,4.16 11.4,-0.25l8.27 2.97c13.62,4.66 10.24,2.53 16.59,13.2 6.2,10.41 6.85,8.04 12.06,15.14 -0.12,8.52 0.6,5.2 -2.82,9.24l-2.17 11.29 -1.27 8.79c4.08,4.16 0.55,-0.19 3.61,4.85l1.73 3.2c0.17,0.3 0.44,1.07 0.75,1.56 1.26,-3.16 0.01,-1.78 1.69,-5.4l4.65 -7.62 -1.22 -25.76c-0.45,-27.74 -41.56,-55.82 -70.24,-64.26l-3.5 2.07 2.92 6.19z"/>
   <path class="fil7" d="M405.05 212.91c17.28,10.7 13.53,23.07 23.91,32.03 13.63,2.52 20.12,-8.03 33.57,-12.16l11.41 -7.31 -1.23 -5.67c-23.13,-5.99 -42.47,-18.6 -70.72,-18.11l3.07 11.22z"/>
   <path class="fil8" d="M203.28 109.83c3.32,12.9 1.11,4.91 4.44,8.13l3.95 -2.86c13.23,-9.68 10.87,-4.58 19.51,-12.41l8.29 -7.5c0.18,-0.16 0.79,-0.55 0.96,-0.73 4.81,-5.23 2.64,1.08 3.21,-7.24l-0.44 -8.59c-3.87,-8.87 -17.29,-23.3 -25.22,-27.47 -5.48,11.62 -16.48,46.4 -14.7,58.68z"/>
   <path class="fil9" d="M217.99 331.99c3.55,6.32 2.69,2.11 -0.48,5.62 0.5,0.49 1.35,0.41 1.64,1.29 1.32,4.07 20.2,5.93 25.08,17.03 5.53,12.56 7.58,31.15 1.1,38.52l2.89 6.69c3.76,-13.13 -1.66,-36.48 5.62,-47.41l33.1 -2.09c6.05,1.08 2.54,-0.22 6.25,2.29l2.05 38.57 5.4 -43.3c9.4,-3.21 12.85,-0.79 18.83,-6.83 -20.61,1.26 -6.09,-0.52 -20.32,-3.7 -11.22,-2.5 -15.87,5.01 -18.04,-2.95 -12.41,-4.47 -2.94,-2.99 -12.38,-12.57l-0.12 9.59c-20.35,13.33 -30.91,8.4 -50.61,-0.75z"/>
   <path class="fil2" d="M203.28 109.83l-2.08 4.02c-2.64,8.92 -2.52,10.85 2.77,18.07 4.42,6.02 9.59,11.06 13.51,16.34l8 -3.38c5.66,-19.9 8.45,-17.48 22.42,-27.63 1.8,-11.56 4.4,-22.96 -4.27,-30.03 -0.57,8.32 1.6,2.01 -3.21,7.24 -0.17,0.18 -0.78,0.57 -0.96,0.73l-8.29 7.5c-8.63,7.84 -6.27,2.74 -19.51,12.41l-3.95 2.86c-3.33,-3.22 -1.13,4.77 -4.44,-8.13z"/>
   <path class="fil10" d="M156.87 278.25l1.68 0c-0.67,-15.56 9.26,-12.84 22.64,-14.84 8.44,0.1 6.12,3.41 4.61,-4.73 -2.16,-3 -4.82,-3.69 -6.3,-10.22l-7.53 -4.29c-5.95,-12.94 -5.77,0.83 -9.51,-15.82l3.76 -22.76c5.29,-9.17 7.61,-9.06 11.49,-15.37l12.96 -16.58 -2.83 -2c-6.28,2.78 -15.68,11.29 -19.69,17.1 -3.27,4.75 -9.47,18.19 -11.21,24.41 -6.87,24.61 -4.55,42.54 -0.09,65.12z"/>
   <path class="fil11" d="M285.01 257.58c0.48,0.5 1.27,0.5 1.51,1.43 0.76,3 7.02,1.42 13.08,21.73l4.2 9.06c4.08,5.72 3.94,-8.64 3.94,10.99 13.44,-13.59 12.51,-0.16 12.76,0.02l-2.48 -1.17c0,-14.23 -1.04,-2.35 5.12,-6.2 10.18,2.94 19.21,2.69 27.2,-3.09 0.47,-0.34 1.14,-1.09 1.71,-1.62 0.82,-1.76 1.43,-3.17 2.89,-5.02 0.54,-0.68 2.59,-2.14 2.74,-2.82 0.21,-0.94 1.06,-0.92 1.59,-1.39 -6.34,-4.79 -0.78,-2.04 -10.3,-3.64 -2.14,-0.36 -6.67,-0.58 -9.42,-0.95 -8.23,-1.12 -11.58,-2.56 -18.58,-2.26 -7.45,-1.39 -11.09,-3.81 -17.14,-7.16 -8.61,-4.77 -5.77,-5.39 -13.69,-7.04l-5.11 -0.87z"/>
   <path class="fil12" d="M158.55 278.25c4.79,10.61 -0.94,5.97 3,-3.3l2.5 -5.67c11.54,2.31 1.29,0.86 15.98,-0.74 7.15,1.52 2.52,-0.34 4.15,3.91 8.61,2.91 4.01,1.48 10.36,5.55l5.94 2.21 0.17 4.66 27.57 18.96 2.5 0.7 11.12 4.98c10.67,4.07 13.55,3.32 18.61,11.56 3.09,2.68 2.48,-4.53 3.51,7.17 -2.46,9.7 -30.14,8.15 -33.16,5.68 -2.23,-3.5 -6.18,4.29 -1.51,-9.05 -8.43,3.63 -12.9,-0.49 -21.13,-4.85 -4.62,-2.44 -6.99,-3.66 -11.22,-6.58l-9.83 -9.73 -4.54 -3.39 -10.99 -5.33 -0.37 3.75c11.29,6.89 8.97,10.61 22.21,18.31 5.2,3.02 20.86,11.56 24.57,14.93 19.71,9.15 30.26,14.08 50.61,0.75l0.12 -9.59c-3.5,-13.7 -10.24,-10.53 -21.53,-16.47l-6.63 -5.01c-8.97,-0.36 -22.99,-11.3 -30.83,-16.52l-28.56 -21.75c-13.38,2 -23.31,-0.71 -22.64,14.84z"/>
   <path class="fil13" d="M171.97 244.16c11.55,-2.13 3.39,-1.37 7.02,2.04 4.81,5.21 9.42,7.81 16.49,8.88 12.53,1.25 18.34,-0.85 29.9,-4.31l-5.14 -8.07c-6.36,1.2 -9.72,2.98 -16.02,-0.81 -2.94,-1.77 -1.63,-2.58 -1.7,-2.72 -1.82,-4.15 -7.2,-1.35 -17.81,-5.35 18.13,-2.92 31.42,-3.59 41.19,9.3 11.89,5.16 14.61,6.06 24.01,11.97l8.94 -1.2 -0.27 -2.32c-37.96,-4.31 -36.03,-39.87 -92.6,-18.59l0.24 -27.4 -3.76 22.76c3.73,16.65 3.55,2.88 9.51,15.82z"/>
   <path class="fil11" d="M181.19 263.4l28.56 21.75c7.83,5.22 21.85,16.16 30.83,16.52l2.28 -2.55c4.08,-20.89 3.65,-20.38 12.87,-37.53l-2.35 0.8c-6.6,6.47 -5.17,4.93 -15.44,5.99 -9.03,4.94 -17.51,6.3 -27.68,3.8l-18.67 -11.3 -5.78 -2.2c1.51,8.15 3.82,4.83 -4.61,4.73z"/>
   <path class="fil14" d="M142.14 374.47l22 -5.68 -4.01 0.43c0.67,-19.85 -2.5,-18.13 7.78,-32.02 5.76,-7.78 3.15,-5.89 4.53,-17.8 -2.67,-6.4 -2.98,-8.88 -9.25,-14.31 -6.55,9.2 -13.15,14.64 -16.26,26.3 -3.67,13.77 -1.92,28.18 -4.79,43.08z"/>
   <path class="fil15" d="M243.63 87.2c8.67,7.07 6.07,18.48 4.27,30.03 -13.98,10.15 -16.76,7.73 -22.42,27.63l43.09 -8.04c0.73,-12.34 -2.21,-21.13 -6.95,-31.88 -1.97,-4.45 -4.04,-8.88 -6.93,-13.44l-11.48 -12.89 0.44 8.59z"/>
   <path class="fil16" d="M248.84 297.4c-0.1,-4.12 -0.81,-8.22 0.51,-12.24 3.8,-11.6 2.74,-4.76 7.1,-6.73 3.23,5.99 4.97,0.31 1.22,15.46l-8.83 3.51zm15.88 -18.01l6.87 0.21c2.24,3.29 2.93,-1.45 2.46,9.72 -9.82,0.85 -5.63,2.22 -12.36,-2.11 -1.1,-13.92 -1.07,-3.51 3.03,-7.82zm-7.34 -5.63zm3.75 0.27l-3.75 -0.27zm3.75 0.27c0.51,-9.83 3.51,-15.96 14.36,-13.18 8.58,2.2 12.39,6.57 10.81,15.31 -11.61,-0.26 -8.99,1.12 -10.57,-11.77 -2.42,9.64 1.03,12.89 -14.6,9.64zm-5.41 -12.45c-9.22,17.15 -8.79,16.65 -12.87,37.53 3.77,2.45 3.43,1.71 8.47,3.49 17.78,-6.16 13.44,-13.47 35.07,-2.86l1.12 -1.7c-10.6,-11.68 -9.56,-4.09 -10.14,-18.32l11.63 0.49 -0.31 16.72c-1.56,6.92 -3.18,6 3.51,4.1l-0.35 -21.99c0.26,0 6.28,4.07 6.94,4.54l0.8 -2.85c-6.05,-20.3 -12.32,-18.73 -13.08,-21.73 -0.23,-0.93 -1.03,-0.93 -1.51,-1.43 -23.47,-2.72 -11.59,-1.51 -29.29,4z"/>
   <path class="fil17" d="M333.37 198.3l-1.66 5.8c10.93,1.02 13.76,-0.71 20.78,4.68 -11.21,13.39 -20.58,2.21 -37.81,8.25l11.13 0.37c16.72,1.86 59.69,-13.45 66.23,6.39 3.42,-4.04 2.7,-0.73 2.82,-9.24 -16.26,-3.28 -15.5,-16.7 -30.01,-23.58 -1.32,-1.27 -2.51,-2.57 -3.79,-3.97 -0.33,-0.37 -1.25,-0.73 -1.51,-1.81 -0.27,-1.15 -1.06,-1.31 -1.61,-1.95 -8.15,4.41 -2.03,3.96 -11.4,0.25 -3.48,10.78 -3.63,9.71 -13.17,14.81z"/>
   <path class="fil18" d="M429.11 298.94l-0.85 5.55c-10.83,0.26 -12.56,0.7 -21.71,2.11 -16.4,2.53 -10.29,-8.59 -10.28,-8.7 -6.75,4.11 -10.35,9.19 -12.53,17.33 15.71,3.65 53.87,16.75 66.19,14.27 -10.34,-8.93 -13.73,-25.09 -20.82,-30.56z"/>
   <path class="fil0" d="M261.08 226.79l10.75 0.04 1.69 4.61 11.06 -4.06c-3.77,-6.47 -3.71,-4.63 3.19,-2.6l2.19 -5.94 -9.59 0.4 -2.48 3.69 -1.84 -6.96 3.42 -19.76 -2.67 0 -1.75 8.33 -4.3 16.22 -7.6 -12.79 -0.41 -0.96 -1.07 7.91c-11,-6.83 -6.41,-7.75 -12.84,-13.69 -1.68,-1.55 1.84,6.19 -3.53,-3.22 -11.72,-3.47 -6.5,-6.26 -19.76,-8.08 1.21,4.01 0.05,2.54 -2.44,5.83l-9.72 -8.95 -1.99 -2.97 -19.07 1.1 -0.85 3.26c20.35,-1.22 25.28,7.46 37.6,16.1 6.85,4.81 29.81,18.12 32.02,22.47z"/>
   <path class="fil19" d="M325.81 217.41c-3.22,1.94 2.92,0.4 -5.56,2.35 -4.19,0.96 -0.26,0.1 -4.73,0.62 -4.08,0.48 -6.87,0.12 -11.68,0.78l0 3.18 22.25 -0.29 3.66 7.27 2.46 -9.55 19.23 -1.69c7.52,0.17 11.6,-0.86 18.27,-1.15 3.34,-0.15 5.25,-0.31 8.64,0.4 9.56,1.98 5.25,2.06 7.17,3.2 7.5,21.81 -17.83,20.02 -36.76,20.46 -24.5,0.58 -34.45,4.31 -54.13,8.05l-7.26 -6.24 -1.46 1.14c1.12,5.78 -1.94,1.9 3.48,7.44 18.23,2.67 27.34,-6.55 50.14,-3.45 3.52,-2.22 -1.73,-1.15 6.68,-2.04 39.9,-4.27 26.96,7.7 43.67,-12.79l2.17 -11.29c-6.54,-19.84 -49.51,-4.53 -66.23,-6.39z"/>
   <path class="fil20" d="M100.73 270.3c13.16,8.49 14.7,11.64 26.12,12.94 9.6,1.14 2.86,1.1 11.46,-1.51 8,-14.76 3.62,-19.16 6.15,-37.59l-6.85 0.2c-6.9,4.81 -10.95,5.49 -16.98,12.27 -7.97,8.97 -5.75,9.74 -19.9,13.7z"/>
   <path class="fil21" d="M401.04 240.46c-0.08,13.31 -0.23,17.92 -8.64,26.25 -1.88,10.01 -1.59,9.24 -7.53,15.62 -6.19,6.66 -3.84,6.48 -12.44,7.72l-0.77 2.93c-10.64,13.81 -12.89,10.37 -21.38,14.26 0.73,0.44 3.94,2.03 4.59,2.26 0.63,0.22 1.74,0.59 2.37,0.8 0.63,0.21 1.6,0.41 2.4,0.61 2.51,-3.04 -2.58,-2.64 7.08,-3.47l2.74 4.97c5.97,-9.75 3.69,-3.86 5.37,-3.63 2.18,0.29 -1.02,1.95 3.76,0.09 3.56,-1.39 5.78,-6.07 7.79,-9.52 14.22,-24.45 29.19,-57.79 13.44,-84.65l1.22 25.76z"/>
   <path class="fil22" d="M337.03 318.8c1.19,5.5 2.78,2.37 -2.65,4.47l-7.81 4.99c-4.53,-3.78 -4.75,6.11 -3.56,-7.57l-2.22 -1.24 -1.04 10.42c-13.25,2.62 -24.69,7.12 -38.64,5.85 2.17,7.96 6.82,0.44 18.04,2.95 14.22,3.17 -0.29,4.96 20.32,3.7 8.79,-0.41 47.67,-14.61 41.33,-20.84 -1.14,-0.44 -7.85,-2.72 -7.97,-2.78 -9.73,-5.37 3.7,5.16 -4.73,-4.43l-11.08 4.49z"/>
   <path class="fil23" d="M166.22 205.59l-0.24 27.4c56.57,-21.29 54.65,14.28 92.6,18.59l0.44 -2.7c0.64,-8.34 0.5,-3.59 -2.02,-5.27 -9.91,4.43 -26.9,-11.63 -37.51,-17.04 -17.84,-9.1 -32.35,-4.96 -50.13,-1.03 -0.23,-24.83 5.7,-28.13 22.1,-37.33l0.85 -3.26c-8.41,-5.36 -7.53,1.95 -3.07,-5.39 0,-0.01 6.42,-2.98 7.61,-4.03l-5.4 -0.65 -0.78 -1.26 -12.96 16.58c-3.88,6.31 -6.21,6.2 -11.49,15.37z"/>
   <path class="fil24" d="M100.73 270.3c14.15,-3.96 11.93,-4.74 19.9,-13.7 6.02,-6.77 10.08,-7.46 16.98,-12.27l-11.94 1.84c3.47,-14.4 -1.21,4.8 1.31,-10.57 -15.7,6.16 -13.77,10.16 -35.64,14.59 -1.48,0.3 -5.74,1.04 -6.71,1.29 -16.71,4.39 9.38,-3.34 -4.35,1.33 -0.64,0.22 -1.52,0.66 -2.02,0.84 -0.5,0.19 -1.35,0.54 -1.98,0.9 9.05,4.6 17.03,9.14 24.44,15.74z"/>
   <path class="fil14" d="M396.28 297.9c-0.01,0.11 -6.12,11.23 10.28,8.7 9.15,-1.42 10.88,-1.85 21.71,-2.11l0.85 -5.55c-1.64,-7.44 -2.55,-8.8 -7.88,-14.96 -8.67,-10.02 -6.32,-9.94 -13.48,-12.49 -2.27,4.07 -3.73,7.96 -5.91,12.29 -4.42,8.76 -4.58,5.66 -5.56,14.13z"/>
   <path class="fil25" d="M304.31 139.5l36.63 8.78c8.3,-14.14 11.19,-28.88 13.94,-45.91 -20.86,15.83 8.55,11.02 -46.52,34.81 -0.53,0.23 -1.65,1.72 -2.04,1.12 -0.39,-0.6 -1.39,0.73 -2.01,1.2z"/>
   <path class="fil26" d="M318 299.63c8.47,-1.51 4.43,1.56 11.67,9.42 3.26,3.54 0.94,0.35 3.82,3.87 4.52,5.53 1.61,1.54 3.53,5.88l11.08 -4.49 2.18 -7.06c8.49,-3.9 10.74,-0.46 21.38,-14.26 -8.67,-3.65 -1.6,-1.12 -12.39,-1.55 -8.8,-0.35 -3.64,3.3 -7.24,-2.72 -0.57,0.53 -1.24,1.28 -1.71,1.62 -7.99,5.78 -17.03,6.03 -27.2,3.09 -6.15,3.85 -5.12,-8.04 -5.12,6.2z"/>
   <path class="fil13" d="M289.38 253.37l0.74 5.08c7.92,1.65 5.08,2.26 13.69,7.04 6.05,3.36 9.69,5.78 17.14,7.16 -0.01,-0.02 -1.24,-4.23 -2.7,-5.41l23.5 -1.12 -22.29 -5.95c3.03,-5.31 0.25,-2.9 5.96,-5.07l42.04 -1.72 8.67 -2.83 -36.62 -0.63c-22.8,-3.1 -31.91,6.11 -50.14,3.45z"/>
   <path class="fil27" d="M184.64 289.42c-1.16,6.26 -0.96,4.64 -2.07,10.91l4.54 3.39c11.25,5.43 5.47,5.34 20.54,4.72 1.68,-0.07 9.15,-0.5 10.49,-0.7 12.96,-1.95 5.4,-0.08 10.07,-3.91l-27.57 -18.96c-12.62,0.08 -6.57,2.75 -16.01,4.55z"/>
   <path class="fil28" d="M315.66 203.59c-9.12,4.56 -11.91,8.97 -19.48,11.83 2.51,7.88 -7.21,6.99 7.66,5.74 4.81,-0.66 7.6,-0.31 11.68,-0.78 4.47,-0.52 0.54,0.34 4.73,-0.62 8.47,-1.95 2.33,-0.42 5.56,-2.35l-11.13 -0.37c17.23,-6.04 26.6,5.13 37.81,-8.25 -7.02,-5.38 -9.86,-3.66 -20.78,-4.68l1.66 -5.8 -17.71 5.29z"/>
   <path class="fil20" d="M410.51 237.64c1.32,2.48 0.85,-2.4 2.52,6.01 0.77,3.88 0.57,6.43 0.71,10.19l14.95 -0.76c11.06,0.25 27.17,-10.56 33.83,-20.3 -13.45,4.12 -19.94,14.68 -33.57,12.16 -10.37,-8.96 -6.63,-21.33 -23.91,-32.03l5.46 24.73z"/>
   <path class="fil18" d="M213.04 380.76c8.72,-0.04 20.01,-4.52 28.1,-8.92 2.32,-20.47 -19.4,-26.8 -22.31,-19.45l-5.79 28.37z"/>
   <path class="fil29" d="M133.36 68.9l0.31 4.11 19.24 8.99 1.55 -19.29 4.29 10.98 1.45 8.28 3.11 3.51c2.12,-8.08 0.49,-5.52 5.24,-11.06l6.74 9.81c0.21,-0.07 0.41,-0 1.22,-0.27l8.14 14.27 1.26 4.23c17.19,-11.37 -8.26,-21.54 -13.63,-28.75 -4.88,-6.55 -8.11,-12.93 -18.42,-17.79l-5.18 13.14c-1.57,4.15 -1.35,3.04 -2.51,4.61l-12.81 -4.77z"/>
   <path class="fil15" d="M370.83 163.66c2.14,2.7 1.54,2.21 4.18,4.81 0.68,0.67 3.39,3.11 4.25,3.82 5.01,4.1 3.97,3.42 8.85,5.41l20.3 3.42c8.06,-2.38 11.05,-7.13 15.11,-13.95 5.71,-9.58 8.24,-11.66 12.1,-23.55 -9.24,8.75 -15.42,20.38 -26.2,24.97 -14.64,6.24 -20.65,-4.32 -38.58,-4.93z"/>
   <path class="fil30" d="M410.32 354.77c0.59,0.55 1.48,0.54 1.75,1.65 0.66,2.72 7.62,3.06 8.84,20.1 3.03,2.12 0.8,-0.19 3.91,3.93 1.55,2.05 1.55,2.52 3.02,4.64 4.7,6.77 2.5,-0.09 6.45,10.68l4.49 -0.27c-0.65,-14.51 -16.91,-49.27 -24.04,-58.32l-4.42 17.6z"/>
   <path class="fil31" d="M195.48 255.09c4.61,4.51 -5.56,0.12 6.65,4.49 2.72,0.97 7.88,1.44 10.71,1.59 8.46,0.45 16.71,-0.38 24.99,0.15 6,-5.12 8.83,-2.95 17.59,-2.06 6.26,4.38 3.29,3.26 3.44,-5.35l-8.94 1.2c-9.4,-5.92 -12.12,-6.81 -24.01,-11.97l-5.67 -0.41 5.14 8.07c-11.56,3.46 -17.37,5.56 -29.9,4.31z"/>
   <path class="fil31" d="M339.52 249.93l36.62 0.63 -8.67 2.83c-2.1,5.23 -0.25,3.33 -2.94,6.58 -0.11,4.21 -7.04,9.09 -13.76,11.51l7.8 1.61 18.4 -6.53c1.45,-9.96 9.06,-2.65 11.64,-22.68l1.27 -8.79c-16.7,20.49 -3.76,8.53 -43.67,12.79 -8.42,0.9 -3.17,-0.18 -6.68,2.04z"/>
   <path class="fil32" d="M320.95 272.65c7.01,-0.31 10.35,1.14 18.58,2.26 2.74,0.37 7.28,0.59 9.42,0.95 9.51,1.6 3.96,-1.15 10.3,3.64l7.44 1.59 -8.12 -8 -7.8 -1.61c6.73,-2.42 13.65,-7.3 13.76,-11.51 -4.71,0.34 -5.76,1.61 -5.94,1.68 -8.73,3.22 -3.11,3.33 -12.39,1.68 -2.81,-8.26 -0.29,7.22 0.29,-1.83 0.47,-7.41 4.62,5.94 -0.29,-2.16 -2.52,-0.09 -11.32,0.07 -12.94,-0.21 -11.86,-2.06 -4.75,0.51 -7.83,-4.01 -5.72,2.17 -2.94,-0.23 -5.96,5.07l22.29 5.95 -23.5 1.12c1.46,1.18 2.69,5.39 2.7,5.41z"/>
   <path class="fil33" d="M142.14 374.47c2.86,-14.9 1.11,-29.3 4.79,-43.08 3.11,-11.66 9.71,-17.1 16.26,-26.3l-0.59 -5.99c-9.89,4.81 -19.51,16.7 -22.49,30.66 -4.34,20.33 5.78,31.63 -9.03,44.27l11.07 0.44z"/>
   <path class="fil34" d="M351.33 401.94c21.7,-9.86 15.61,-5.11 10.74,-28.23 -2.76,-13.14 2.43,-28.26 -1.86,-41.32 -11.38,12.77 12.36,46.14 -16.79,54.85 0.21,0.66 0.72,1.53 0.89,1.86 0.14,0.28 0.64,1.25 0.81,1.58 0.13,0.26 0.52,0.99 0.66,1.25l5.55 10.01z"/>
   <path class="fil35" d="M229.29 324.88c5.18,-9.72 1.76,-7.68 1.43,-20.35l-2.5 -0.7c-4.67,3.82 2.89,1.96 -10.07,3.91 -1.34,0.2 -8.81,0.63 -10.49,0.7 -15.07,0.62 -9.29,0.71 -20.54,-4.72l9.83 9.73c4.22,2.92 6.59,4.14 11.22,6.58 8.23,4.35 12.7,8.48 21.13,4.85z"/>
   <path class="fil36" d="M371.88 388.27l6.06 -0.2 1.48 -7.11c-3.69,-2.92 -2.9,-0.95 -3.39,-14.08 -1.58,-42.01 -7,-28.98 -8.84,-36.42 -0.32,-1.3 -1.27,-1.26 -1.93,-1.87 0.48,22.57 -2.54,38.5 3.93,51.62 0.09,0.18 3.37,3.5 2.69,8.06z"/>
   <path class="fil18" d="M164.14 368.79l10.3 -1.25 1.37 -36.99c-0.26,-11.66 1.89,-7.6 -3.37,-11.15 -1.38,11.91 1.23,10.01 -4.53,17.8 -10.27,13.89 -7.11,12.18 -7.78,32.02l4.01 -0.43z"/>
   <path class="fil37" d="M262.93 241.47c1.16,5.76 2.72,5.98 -3.91,7.4l-0.44 2.7 0.27 2.32c-0.16,8.62 2.82,9.74 -3.44,5.35l-2.05 3.14 2.35 -0.8c17.7,-5.51 5.82,-6.72 29.29,-4l5.11 0.87 -0.74 -5.08c-5.42,-5.54 -2.36,-1.66 -3.48,-7.44l-4.51 -3.54c-4.69,-5.38 1.01,-4.63 -12.62,-8.37 -4.6,10.05 -2.38,4.18 -5.85,7.44z"/>
   <path class="fil38" d="M298.4 158.23c-2.05,4.99 2.49,4.98 -2.25,4.31 9.79,2.9 25.85,7.04 33.32,7.91l1.6 -7.49 -2.08 -4.26c-1.69,0.93 3.64,9.59 -7.71,-1.61l4.79 -4.57 3.5 -2.07 -12.72 -4.58 -18.45 12.36z"/>
   <path class="fil22" d="M217.51 337.6c3.17,-3.51 4.03,0.7 0.48,-5.62 -3.71,-3.38 -19.37,-11.91 -24.57,-14.93 -13.23,-7.7 -10.92,-11.42 -22.21,-18.31 -0.32,-0.27 -4.27,-3.11 -4.7,-3.4 -0.26,-0.17 -1.25,-0.08 -1.45,-0.75 -0.18,-0.62 -0.94,-0.39 -1.4,-0.61 8.42,11.92 10.86,18.83 21.55,25.95 9.12,6.07 20.67,16.64 32.31,17.66z"/>
   <path class="fil39" d="M161.63 189.4c-6.47,-1.14 -15.5,-3.43 -22.04,-5.53 -11.26,-3.61 -10.86,-5.28 -19.22,-11.02 5.1,12.75 20.65,26.48 32.67,33.65l8.58 -17.1z"/>
   <path class="fil40" d="M294.37 194.91l-0.42 9.23 4.14 0.14 10.95 -4.26 -0.42 -8.56c0.15,-0.08 2.15,-2.25 6.6,-2.5 2.33,-0.13 1.85,0.4 7.05,1.73 0.49,-0.7 1.28,-2.28 1.61,-2.65 0.19,-0.21 0.77,-0.89 0.97,-1.09 0.36,-0.35 2.62,-1.64 4.32,-2.37l-2.01 -1.71 -5.62 -0.64 -8.67 3.54c5.61,-14.58 2.51,-3.57 -1.54,-7.87l-10.01 14.29c4.61,-7.05 4.17,-4.42 6.39,-13.62 -7.15,3.65 -4.55,3.1 -9.9,-0l-3.45 16.36z"/>
   <path class="fil14" d="M144.46 244.13c-2.54,18.43 1.85,22.83 -6.15,37.59 -8.61,2.61 -1.87,2.65 -11.46,1.51 6.77,7.18 15.62,5.49 26.94,5.55 -2.11,-21.72 -7.65,-25.79 -5.59,-53.59l-3.73 8.94z"/>
   <path class="fil18" d="M325.36 347.85c5.49,6.37 20.16,15.22 28.15,17.85l-0.4 -27.28 -27.76 9.43z"/>
   <path class="fil41" d="M229.29 324.88c-4.67,13.34 -0.72,5.55 1.51,9.05 3.02,2.47 30.7,4.02 33.16,-5.68 -1.04,-11.7 -0.42,-4.49 -3.51,-7.17l0.98 4.81c-2.58,0.67 -4.68,0.85 -7.17,1.06l-14.27 2.71c-0.04,-0.83 -0.23,-1.8 -0.37,-2.46 -5.21,-24.25 -1.33,-15.41 2.22,-17.68l-11.12 -4.98c0.34,12.67 3.75,10.63 -1.43,20.35z"/>
   <path class="fil42" d="M201.15 383.23l5.38 -3.17c4.25,-9.56 6.26,-11.95 5.82,-25.53l-1.91 -1.57 -15.26 11.46c-0.45,0.32 -1.11,0.74 -1.53,1.06l-4.17 3.8c4.02,9.5 3.25,9.78 11.68,13.95z"/>
   <path class="fil43" d="M172.4 279.52c-0.61,-7.58 2.46,-2.31 3.28,0.08 2.27,6.6 -3.16,1.45 -3.28,-0.08zm-0.89 12.49c1.62,-1.49 3.65,-1.63 5.44,-3.92l7.69 1.33c1.68,-5.15 -0.29,-1.92 3.8,-5.94l6.1 -5.48c-6.35,-4.06 -1.76,-2.63 -10.36,-5.55 -3.01,1.87 -0.82,0.09 -5.66,2.57l1.51 -6.48c-14.69,1.6 -4.44,3.05 -15.98,0.74 -2.45,21.05 0.52,-9.08 2.07,14.72 0.02,0.24 0.18,1.04 0.34,1.54 0.34,0.08 0.94,-0.28 1.04,0.08 1.58,6.12 -0.85,-2.48 5.78,1.58l-1.78 4.8z"/>
   <path class="fil44" d="M126.98 235.6c-2.53,15.37 2.16,-3.83 -1.31,10.57l11.94 -1.84 6.85 -0.2 3.73 -8.94 1.8 -15.68c-10.01,4.92 -15.15,5.07 -23.01,16.1z"/>
   <path class="fil45" d="M167.84 113.66l-1.22 0.6 3.38 2.26c2.23,1.33 2.71,1.27 5.31,3l19.68 19.55 4.78 -4.86 -22.18 -27.14c-5.25,-7.09 -5.05,-5.46 -12.28,-8.25 5.03,14.94 9.29,9.64 2.52,14.83z"/>
   <path class="fil18" d="M186.98 331.08l1.73 29.66c7.55,-2.79 12.94,-8.55 21.29,-17.11 -7.21,-5.47 -13.82,-11.31 -23.03,-12.55z"/>
   <path class="fil46" d="M388.6 243.87c-2.59,20.03 -10.2,12.72 -11.64,22.68 -7.44,12.06 -2.69,2.76 0.01,6.54 12.54,-0.61 5.06,1.28 15.42,-6.38 8.41,-8.33 8.56,-12.94 8.64,-26.25l-4.65 7.62c-1.67,3.62 -0.42,2.23 -1.69,5.4 -0.31,-0.49 -0.59,-1.26 -0.75,-1.56l-1.73 -3.2c-3.07,-5.04 0.46,-0.69 -3.61,-4.85z"/>
   <path class="fil11" d="M358.56 273.08l8.12 8c0.41,0.32 1.17,0.18 1.31,0.86 0.2,1.06 1.96,1.84 2.25,2.33 1.58,2.68 1.23,2.06 2.19,5.78 8.6,-1.24 6.25,-1.06 12.44,-7.72 5.94,-6.39 5.65,-5.61 7.53,-15.62 -10.36,7.65 -2.88,5.77 -15.42,6.38 -2.71,-3.78 -7.45,5.52 -0.01,-6.54l-18.4 6.53z"/>
   <path class="fil47" d="M434.29 395.75c-3.95,-10.77 -1.74,-3.91 -6.45,-10.68 -1.47,-2.12 -1.48,-2.59 -3.02,-4.64 -3.11,-4.12 -0.88,-1.81 -3.91,-3.93 -3.4,2.25 4.35,5.01 -7.64,0.34 -10.6,-4.13 -11.55,-13.24 -24.55,-12.04 4.27,10.59 30.89,25.55 45.56,30.95z"/>
   <path class="fil42" d="M410.81 332.63l-0.42 -6.49 -25.14 -5.67 -2.63 2.55c8.89,8.33 16.95,18.27 24.97,25.48l3.22 -15.87z"/>
   <path class="fil48" d="M328.34 189.21c-4.64,3.59 3.27,-0.6 -3.15,1.81 -0.25,0.09 -1.3,0.49 -1.49,0.05 -0.18,-0.44 -0.96,-0.24 -1.43,-0.39 -5.19,-1.33 -4.71,-1.87 -7.05,-1.73 -4.45,0.25 -6.45,2.43 -6.6,2.5l0.42 8.56 7.12 -4.64 -0.51 8.22 17.71 -5.29c9.54,-5.09 9.7,-4.02 13.17,-14.81l-18.2 5.71z"/>
   <path class="fil49" d="M133.67 73.01l-9.81 -4.93c3.01,5.71 17.53,12.86 23.31,15.27l-17.29 -4.38c5.18,9.66 6.13,10.94 17.7,11.56 9.73,4.46 1.23,1.22 5.6,-0.78 1.17,-2.46 3.15,-3.52 4.06,-4.5l2.97 -3.28 -1.45 -8.28 -4.29 -10.98 -1.55 19.29 -19.24 -8.99z"/>
   <path class="fil50" d="M160.21 81.97l-2.97 3.28 22.23 18.8c4.34,-3.55 1.77,-0.46 5.19,-5.81l-8.14 -14.27c-0.81,0.26 -1.01,0.2 -1.22,0.27l-6.74 -9.81c-4.75,5.54 -3.12,2.99 -5.24,11.06l-3.11 -3.51z"/>
   <path class="fil51" d="M261.13 274.03c15.63,3.25 12.19,0 14.6,-9.64 1.59,12.9 -1.04,11.51 10.57,11.77 1.57,-8.74 -2.23,-13.11 -10.81,-15.31 -10.85,-2.78 -13.85,3.35 -14.36,13.18z"/>
   <path class="fil13" d="M191.46 174.89l5.4 0.65c-1.19,1.05 -7.61,4.02 -7.61,4.03 -4.45,7.34 -5.34,0.03 3.07,5.39l19.07 -1.1 1.99 2.97c-6.42,0.91 -0.34,0.99 -3.05,-6.87l11.35 4.22 3.47 -1.67 -12.31 -5.34c-0.96,-0.38 -5.7,-1.8 -6.51,-2.39l1.9 -5.4c-2.64,0.06 -7.39,-0.27 -9.85,0.43 -12.84,3.62 -2.9,-0.44 -6.92,5.08z"/>
   <path class="fil43" d="M252.98 319.6c0.88,-1.31 10.99,1.3 4.86,4.59 -2.92,1.57 -9.16,1.81 -4.86,-4.59zm7.47 1.48c-5.06,-8.25 -7.94,-7.49 -18.61,-11.56 -3.56,2.28 -7.43,-6.57 -2.22,17.68 0.14,0.66 0.33,1.63 0.37,2.46l14.27 -2.71c2.49,-0.22 4.59,-0.39 7.17,-1.06l-0.98 -4.81z"/>
   <path class="fil12" d="M185.8 258.67l5.78 2.2c18.96,4.84 19.99,5.34 41.07,5.88 7.08,-6.56 13.12,-3 5.17,-5.44 -8.29,-0.53 -16.53,0.3 -24.99,-0.15 -2.82,-0.15 -7.99,-0.61 -10.71,-1.59 -12.21,-4.36 -2.04,0.02 -6.65,-4.49 -7.08,-1.07 -11.69,-3.67 -16.49,-8.88l0.52 2.24c1.48,6.53 4.14,7.22 6.3,10.22z"/>
   <path class="fil52" d="M394.56 349.04l-4.19 -11.04c-3.22,-7.67 -3.78,-4.94 -10.73,-12.44 -11.01,-11.88 -7.64,-5.92 -10.18,-13.14 -2.07,-0.94 -4.52,-1.32 -7.47,-2.29 0.63,11.45 -5.26,-1.55 12.88,20.37l19.69 18.53z"/>
   <path class="fil53" d="M320.79 319.45l2.22 1.24 3.31 -2.2c0.27,-0.2 1.55,-1.19 2.18,-1.77 8.3,3.08 2.54,-1 5.88,6.55 5.43,-2.09 3.84,1.03 2.65,-4.47 -1.92,-4.34 0.99,-0.35 -3.53,-5.88 -2.88,-3.52 -0.55,-0.34 -3.82,-3.87 -7.25,-7.85 -3.2,-10.93 -11.67,-9.42l2.48 1.17c-5.82,3.07 -2.65,-4.16 -1.95,10.02l-7.08 -1.28c-0.17,-0.45 -0.73,0.52 -1.31,0.98l10.65 8.93z"/>
   <path class="fil54" d="M325.43 255.1c3.08,4.53 -4.03,1.95 7.83,4.01 1.63,0.28 10.42,0.12 12.94,0.21 4.91,8.1 0.76,-5.25 0.29,2.16 -0.58,9.06 -3.1,-6.43 -0.29,1.83 9.27,1.65 3.66,1.53 12.39,-1.68 0.18,-0.07 1.23,-1.34 5.94,-1.68 2.69,-3.24 0.83,-1.35 2.94,-6.58l-42.04 1.72z"/>
   <path class="fil55" d="M187.57 401.1l-0.24 -22.66 -2.55 -10.75 -3.88 0c-0.37,15.22 -10.77,28.15 6.67,33.41z"/>
   <path class="fil49" d="M166.62 114.26l1.22 -0.6 -1.72 -6.69c-4.18,-2.35 -5.83,-3.4 -8.56,-4.76 -6.41,-3.19 0.25,3.23 -8.04,-4.81l-9.88 -1.43c5.17,9.14 11.03,19.84 26.97,18.29z"/>
   <path class="fil56" d="M220.24 242.71l5.67 0.41c-9.76,-12.88 -23.06,-12.21 -41.19,-9.3 10.61,4 15.99,1.2 17.81,5.35 0.06,0.14 -1.24,0.95 1.7,2.72 6.3,3.8 9.66,2.02 16.02,0.81z"/>
   <path class="fil28" d="M225.15 182.52l-3.47 1.67c7.53,1.46 0.68,-1.56 3.86,5.76 13.26,1.81 8.04,4.61 19.76,8.08l-1.41 -0.22 -0.28 -7.71c-0.72,-3.4 6.21,3.64 -2.91,-4.86 -0.14,-0.13 -6.01,-4.19 -6.13,-4.27 -3.83,-2.67 -6.82,-4.69 -11.82,-7.51l2.39 9.08z"/>
   <path class="fil18" d="M315.36 377.91c-1.02,-9.81 0.42,-21.84 -7.62,-26.58 -2.67,3.04 -5.14,5.98 -3.95,15.52 1.28,10.24 -0.64,7.04 11.57,11.06z"/>
   <path class="fil57" d="M380.01 382.09c3.08,-3.66 1.52,-1.09 4.32,-6.71 2.13,-4.29 -0.91,-3.46 0.5,-3.55l0.24 -9.85c16.94,-1.49 5.29,0.33 10.44,-4.06 -8.45,-5.23 -7.46,-8.12 -14.72,-13.34l-0.78 37.51z"/>
   <path class="fil58" d="M237.92 268.38c-1.02,-2.79 5.89,-2.77 -5.27,-1.63 -21.08,-0.54 -22.12,-1.04 -41.07,-5.88l18.67 11.3c10.17,2.51 18.65,1.14 27.68,-3.8z"/>
   <path class="fil59" d="M245.31 198.02c5.37,9.41 1.86,1.67 3.53,3.22 6.44,5.94 1.85,6.86 12.84,13.69l1.07 -7.91c-1.66,-5.18 -0.24,-2.73 -3.33,-7.28 -1.53,-2.26 -2.88,-3.7 -4.71,-4.96 -4.43,-3.06 0.5,0.27 -5.01,-1.88 -0.76,-0.3 -3.5,-0.68 -3.87,-1.68 -0.35,-0.98 -1.47,-0.75 -2.21,-1.13l0.28 7.71 1.41 0.22z"/>
   <path class="fil48" d="M394.86 214.55c-5.21,-7.09 -5.86,-4.73 -12.06,-15.14 -6.35,-10.67 -2.97,-8.54 -16.59,-13.2l-1.36 4.76c14.51,6.88 13.75,20.3 30.01,23.58z"/>
   <path class="fil60" d="M282.95 215.76l-2.57 3.49 9.59 -0.4 -2.19 5.94 16.06 -0.44 0 -3.18c-14.88,1.24 -5.15,2.14 -7.66,-5.74 -4.55,3.24 -3.8,-3.98 -3.83,3.75 -4.46,1.45 -4.01,2.66 -2.9,-1.76l-1.16 -5.12 4.72 -0.44c6.44,-4.13 1.94,8.28 5.09,-7.59l-4.14 -0.14 -4.28 1.3c-7.9,4.92 -4.75,0.3 -6.71,10.32z"/>
   <path class="fil61" d="M309.04 200.01l-10.95 4.26c-3.15,15.86 1.35,3.46 -5.09,7.59l-3.56 5.55c-1.11,4.42 -1.55,3.21 2.9,1.76 0.03,-7.73 -0.72,-0.51 3.83,-3.75 7.57,-2.86 10.35,-7.27 19.48,-11.83l0.51 -8.22 -7.12 4.64z"/>
   <path class="fil28" d="M352.03 288.72c3.6,6.03 -1.56,2.38 7.24,2.72 10.79,0.42 3.72,-2.1 12.39,1.55l0.77 -2.93c-0.96,-3.71 -0.62,-3.1 -2.19,-5.78 -0.29,-0.49 -2.05,-1.27 -2.25,-2.33 -0.13,-0.69 -0.89,-0.55 -1.31,-0.86l-7.44 -1.59c-0.53,0.46 -1.37,0.45 -1.59,1.39 -0.15,0.68 -2.2,2.14 -2.74,2.82 -1.45,1.85 -2.07,3.26 -2.89,5.02z"/>
   <path class="fil62" d="M187.57 401.1l8.25 -0.01c1.05,-7.26 1.53,-7.63 1.68,-7.9 1.37,-2.43 1.28,3.72 2.38,-5.76 -8.83,-2.2 -5.42,-1.67 -12.55,-8.99l0.24 22.66z"/>
   <path class="fil56" d="M158.55 278.25l-1.68 0 5.45 14.11c0.25,0.42 0.88,1.1 1.34,1.64 0.46,0.22 1.22,-0.01 1.4,0.61 0.19,0.66 1.19,0.58 1.45,0.75 0.44,0.28 4.38,3.13 4.7,3.4l0.37 -3.75 -0.07 -2.99 1.78 -4.8c-6.63,-4.06 -4.2,4.54 -5.78,-1.58 -0.09,-0.36 -0.7,0 -1.04,-0.08 -0.16,-0.5 -0.33,-1.3 -0.34,-1.54 -1.55,-23.81 -4.52,6.32 -2.07,-14.72l-2.5 5.67c-3.94,9.27 1.79,13.91 -3,3.3z"/>
   <path class="fil47" d="M402.98 365.08c9.13,7.76 10.47,9.71 17.94,11.43 -1.22,-17.04 -8.18,-17.38 -8.84,-20.1 -0.27,-1.11 -1.17,-1.1 -1.75,-1.65l-2.09 0.57c1.29,12.19 7.19,11.28 -5.25,9.74z"/>
   <path class="fil63" d="M194.99 139.08c12.94,14.07 10.72,17.75 22.8,16.75l-18.02 -21.61 -4.78 4.86z"/>
   <path class="fil64" d="M408.4 181.12l-20.3 -3.42 8.9 15.61c5.94,-3.6 0.23,2.63 6.93,-4.86 6.5,-7.26 0.9,-0.58 4.47,-7.33z"/>
   <path class="fil65" d="M147.58 90.53c3.44,5.46 2.94,3.78 1.95,6.87 8.29,8.05 1.62,1.62 8.04,4.81 2.73,1.36 4.38,2.41 8.56,4.76 -2.35,-5.92 -4.15,-7.86 -5.28,-11.61 -0.17,-0.56 -0.69,-3.61 -0.88,-4.19 -1.18,-3.57 -0.73,-1.46 -2.73,-5.91 -0.91,0.98 -2.89,2.04 -4.06,4.5 -4.37,2 4.13,5.24 -5.6,0.78z"/>
   <path class="fil42" d="M248.84 297.4l8.83 -3.51c3.75,-15.15 2.01,-9.47 -1.22,-15.46 -4.36,1.97 -3.3,-4.88 -7.1,6.73 -1.31,4.02 -0.6,8.12 -0.51,12.24z"/>
   <path class="fil42" d="M287.51 298.05l1.18 -1.12 0.31 -16.72 -11.63 -0.49c0.59,14.23 -0.46,6.65 10.14,18.32z"/>
   <path class="fil62" d="M180.89 367.69l3.88 0c-1.41,-12.64 -2.22,-28.31 2.21,-36.61l-6.34 -6.82 0.25 43.43z"/>
   <path class="fil58" d="M273.53 231.44l-10.16 -0.56 -0.44 10.59c3.47,-3.26 1.25,2.61 5.85,-7.44 13.63,3.74 7.93,2.99 12.62,8.37l3.19 -15.01 -11.06 4.06z"/>
   <path class="fil51" d="M292.2 301.03l7.17 -1.44 -0.58 -16.01c-0.65,-0.47 -6.68,-4.54 -6.94,-4.54l0.35 21.99z"/>
   <path class="fil56" d="M232.65 266.75c11.16,-1.15 4.25,-1.17 5.27,1.63 10.27,-1.07 8.84,0.48 15.44,-5.99l2.05 -3.14c-8.76,-0.89 -11.59,-3.06 -17.59,2.06 7.94,2.45 1.9,-1.12 -5.17,5.44z"/>
   <path class="fil66" d="M261.08 226.79l-4.08 16.82c2.52,1.68 2.67,-3.07 2.02,5.27 6.63,-1.43 5.06,-1.64 3.91,-7.4l0.44 -10.59 10.16 0.56 -1.69 -4.61 -10.75 -0.04z"/>
   <path class="fil18" d="M289.29 368.95l-0.23 -12.31 -16.96 0.72c4.41,6.18 8.98,7.64 17.19,11.59z"/>
   <path class="fil67" d="M213.39 186.83l9.72 8.95c2.49,-3.29 3.66,-1.82 2.44,-5.83 -3.19,-7.32 3.67,-4.3 -3.86,-5.76l-11.35 -4.22c2.71,7.85 -3.37,7.78 3.05,6.87z"/>
   <path class="fil9" d="M282.72 303.96c-12.53,5.56 -11.96,5.24 -20.11,-4.7 -3.81,4.03 -6.77,7.18 1.8,10.37 0.55,0.21 9.3,1.2 9.98,1.09 13.29,-2.14 6.32,-1.92 8.34,-6.77z"/>
   <path class="fil68" d="M271.93 187.61l4.89 8.62 2.67 0 2.82 -11.03c-3.54,-2.11 -5.73,4.4 -2.99,-8.82 -14.32,0.29 -6.12,-0 -10.34,3.23l7.56 3.34c1.57,10.73 1.44,1.86 -4.62,4.67z"/>
   <path class="fil54" d="M262.6 299.26c8.16,9.94 7.58,10.25 20.11,4.7l-7.87 -6.02 -12.24 1.32z"/>
   <path class="fil69" d="M329.48 170.45l5.81 6.33c-18.02,0.36 -4.22,-1.23 -8.12,6.07l8.78 0.48c0.88,-3.62 4.29,-4.62 -1.47,-15.16 -5.78,-10.57 0.81,1.55 -3.39,-5.22l-1.6 7.49z"/>
   <path class="fil70" d="M201.15 383.23l-1.27 4.2c5.15,2.69 0.85,-1.87 2.99,5.24 0.42,1.41 0.03,3.72 -0.3,5.82 1.88,-2.45 1.15,-0.59 3.56,-5.79 0.27,-0.58 1.38,-4.06 1.61,-4.66 10.63,0.09 8.26,2.15 14.96,-3.79l-14.96 1.06c-2.5,-3.23 -4.16,4.29 -1.2,-5.24l-5.38 3.17z"/>
   <path class="fil0" d="M298.78 283.58l0.58 16.01 -7.17 1.44c-6.69,1.89 -5.07,2.82 -3.51,-4.1l-1.18 1.12 -1.12 1.7c5.92,4.51 8.31,5.21 16.27,2.85l1.13 -12.81 -4.2 -9.06 -0.8 2.85z"/>
   <path class="fil41" d="M171.51 292.01l0.07 2.99 10.99 5.33c1.11,-6.27 0.91,-4.65 2.07,-10.91l-7.69 -1.33c-1.79,2.29 -3.82,2.43 -5.44,3.92z"/>
   <path class="fil54" d="M348.1 314.31c8.43,9.6 -5,-0.94 4.73,4.43 0.11,0.06 6.82,2.34 7.97,2.78 -2.18,-6.42 -1.94,0.67 -1.16,-10.61 -0.8,-0.2 -1.77,-0.4 -2.4,-0.61 -0.64,-0.21 -1.74,-0.58 -2.37,-0.8 -0.65,-0.23 -3.85,-1.82 -4.59,-2.26l-2.18 7.06z"/>
   <path class="fil71" d="M323.01 320.69c-1.2,13.68 -0.97,3.79 3.56,7.57l7.81 -4.99c-3.33,-7.54 2.42,-3.47 -5.88,-6.55 -0.63,0.58 -1.91,1.57 -2.18,1.77l-3.31 2.2z"/>
   <path class="fil52" d="M184.64 289.42c9.43,-1.8 3.39,-4.47 16.01,-4.55l-0.17 -4.66 -5.94 -2.21 -6.1 5.48c-4.09,4.02 -2.13,0.8 -3.8,5.94z"/>
   <path class="fil72" d="M263.16 207.99l7.6 12.79 4.3 -16.22c-10.21,4.79 -1.42,2.17 -11.91,3.43z"/>
   <path class="fil67" d="M281.4 242.4l4.51 3.54 1.46 -1.14c-1.21,-11.25 -2.15,-9.22 0.41,-20 -6.9,-2.03 -6.96,-3.87 -3.19,2.6l-3.19 15.01z"/>
   <polygon class="fil48" points="212.84,177.17 225.15,182.52 222.76,173.44 221.23,170.51 216.26,172.02 "/>
   <path class="fil73" d="M428.69 253.07l-14.95 0.76c-0.14,-3.75 0.06,-6.3 -0.71,-10.19 -1.67,-8.4 -1.2,-3.53 -2.52,-6.01l0.76 17.69c9.32,1.41 10.87,1.1 17.42,-2.25z"/>
   <path class="fil63" d="M394.56 349.04c1.62,5.02 2.58,3.62 6.78,1.45 -3.6,-8.24 -3.19,-8.36 -10.97,-12.49l4.19 11.04z"/>
   <path class="fil67" d="M267.99 204.15c-3.31,-5.83 -5.88,-12.19 -8.78,-16.54 -0.45,3.93 -1.62,7.84 0.42,11.52 3.89,7.01 1.72,2.44 8.35,5.03z"/>
   <path class="fil74" d="M402.98 365.08c12.44,1.54 6.54,2.45 5.25,-9.74l-5.44 0.36 0.19 9.38z"/>
   <path class="fil75" d="M271.59 279.61c0.44,15.2 4.01,4.82 -5.57,9.29l-1.3 -9.5c-4.1,4.32 -4.13,-6.09 -3.03,7.82 6.73,4.33 2.55,2.95 12.36,2.11 0.47,-11.17 -0.22,-6.42 -2.46,-9.72z"/>
   <path class="fil76" d="M271.59 279.61l-6.87 -0.21 1.3 9.5c9.58,-4.47 6.01,5.91 5.57,-9.29z"/>
   <path class="fil74" d="M329.75 231.32c12.58,-16.21 6.11,-1.83 21.68,-11.24l-19.23 1.69 -2.46 9.55z"/>
   <path class="fil77" d="M212.84 177.17l3.42 -5.15c-3.22,-2.61 0.32,-2.75 -8.03,-2.64l-1.9 5.4c0.81,0.59 5.55,2.01 6.51,2.39z"/>
   <path class="fil78" d="M279.33 176.38c-2.74,13.22 -0.55,6.72 2.99,8.82l1.79 -10.63 -3.2 -2.65 -1.58 4.46z"/>
   <path class="fil79" d="M321.54 182.21c-2.28,-4.82 -4.54,6.13 -1.44,-6.72l-8.77 2.39c4.05,4.3 7.15,-6.71 1.54,7.87l8.67 -3.54z"/>
   <path class="fil80" d="M329 158.69l-2.92 -6.19 -4.79 4.57c11.36,11.21 6.02,2.55 7.71,1.61z"/>
   <path class="fil80" d="M252.98 319.6c-4.29,6.4 1.94,6.16 4.86,4.59 6.13,-3.29 -3.98,-5.9 -4.86,-4.59z"/>
   <path class="fil81" d="M271.93 187.61c6.06,-2.81 6.19,6.06 4.62,-4.67l-7.56 -3.34 2.94 8z"/>
   <path class="fil82" d="M218.88 220.62c8.25,1.19 4.96,-1.31 4.01,-8.18 -4.79,3.37 -3.63,-2.9 -4.01,8.18z"/>
   <path class="fil83" d="M418.94 332.76l1.43 -1.29 -9.97 -5.33 0.42 6.49c5.35,-1.33 3.08,-1.27 8.12,0.13z"/>
   <polygon class="fil72" points="280.38,219.25 282.95,215.76 276.07,215.98 277.91,222.94 "/>
   <path class="fil70" d="M218.88 220.62c3.78,2.74 -5.35,5.43 5.66,1.42 2.91,-12.05 0.07,-6.99 -1.65,-9.6 0.95,6.88 4.24,9.37 -4.01,8.18z"/>
   <path class="fil79" d="M322.27 190.68c0.47,0.15 1.25,-0.05 1.43,0.39 0.18,0.44 1.24,0.04 1.49,-0.05 6.41,-2.42 -1.49,1.77 3.15,-1.81l0.84 -4.64c-1.7,0.73 -3.97,2.02 -4.32,2.37 -0.2,0.2 -0.78,0.88 -0.97,1.09 -0.33,0.37 -1.12,1.95 -1.61,2.65z"/>
   <path class="fil84" d="M364.84 190.98l1.36 -4.76 -8.27 -2.97c0.55,0.64 1.33,0.79 1.61,1.95 0.26,1.07 1.18,1.44 1.51,1.81 1.27,1.41 2.47,2.7 3.79,3.97z"/>
   <path class="fil85" d="M184.18 272.45c-1.63,-4.25 3,-2.39 -4.15,-3.91l-1.51 6.48c4.84,-2.48 2.65,-0.7 5.66,-2.57z"/>
   <polygon class="fil86" points="195.79,152.84 195.05,156.51 200.64,154.74 197.11,148.59 "/>
   <path class="fil87" d="M277.23 117.58l-5.78 0.11 2.12 6.2c2.57,-1.96 2.74,-4.31 3.66,-6.31z"/>
   <polygon class="fil72" points="289.66,205.45 293.95,204.14 294.37,194.91 "/>
   <path class="fil30" d="M212.34 354.53c3.74,-3.31 2.28,5.61 3.39,-7.18l-5.3 5.61 1.91 1.57z"/>
   <path class="fil88" d="M172.4 279.52c0.12,1.53 5.55,6.67 3.28,0.08 -0.82,-2.39 -3.89,-7.66 -3.28,-0.08z"/>
   <path class="fil89" d="M382.63 323.02l2.63 -2.55 -7.16 -2.77c3.31,7.63 1.3,2.6 4.53,5.32z"/>
   <path class="fil90" d="M318.64 356.14c-0.86,-8.54 -1.35,-2.89 3.25,-4.53 -3.9,-3.33 5.6,-3.58 -6.03,-2.45l2.79 6.98z"/>
   <path class="fil84" d="M179.5 248.45l-0.52 -2.24c-3.62,-3.42 4.53,-4.17 -7.02,-2.04l7.53 4.29z"/>
   <path class="fil91" d="M97.78 144.04l2.52 -2.68 -5.68 -2.58c0.94,10.54 -0.47,1.08 3.15,5.26z"/>
   <polygon class="fil87" points="356.59,138.08 354.15,135.29 350.52,142.27 "/>
   <polygon class="fil92" points="289.44,217.42 293,211.86 288.29,212.3 "/>
   <polygon class="fil93" points="473.93,225.46 477.09,223.7 472.7,219.8 "/>
   <polygon class="fil45" points="158.76,73.69 154.47,62.71 "/>
   <polygon class="fil94" points="280.91,171.92 284.1,174.57 "/>
   <polygon class="fil75" points="257.38,273.76 -0,0 "/>
  </g>
 </g>
</svg>
